<?xml version="1.0" standalone="no"?><!DOCTYPE svg PUBLIC "-//W3C//DTD SVG 1.1//EN" "http://www.w3.org/Graphics/SVG/1.1/DTD/svg11.dtd" ><svg version="1.1" xmlns="http://www.w3.org/2000/svg"><defs><font horiz-adv-x="0" id="font"><font-face ascent="750" bbox="-311 -301 1931 1160" cap-height="716" descent="-250" font-family="BigCity Grotesque Pro" font-stretch="normal" font-style="normal" font-weight="450" units-per-em="1000" x-height="500" /><missing-glyph d="M50 750H450V-250H50ZM400 -200V700H100V-200Z" horiz-adv-x="500" /><glyph glyph-name=".null" horiz-adv-x="0" /><glyph d="M399 256 294 570 194 256ZM253 719H346L586 0H481L427 166H167L112 0H13Z" glyph-name="A" horiz-adv-x="599" unicode="A" /><glyph d="M325 199 247 428 172 199ZM206 553H300L489 0H391L351 120H148L107 0H16Z" glyph-name="A.sc" horiz-adv-x="505" /><glyph d="M385 257V625H374L216 257ZM317 716H769V623H489V409H720V318H489V93H769V0H385V168H177L104 0H3Z" glyph-name="AE" horiz-adv-x="819" unicode="&#198;" /><glyph d="M322 200V470H314L192 200ZM262 550H645V468H420V319H602V239H420V82H645V0H322V122H156L100 0H6Z" glyph-name="AE.sc" horiz-adv-x="693" /><glyph d="M385 257V625H374L216 257ZM317 716H769V623H489V409H720V318H489V93H769V0H385V168H177L104 0H3ZM447 840 663 946 700 859 473 778Z" glyph-name="AEacute" horiz-adv-x="819" unicode="&#508;" /><glyph d="M391 650 566 732 599 659 415 598ZM322 200V470H314L192 200ZM262 550H645V468H420V319H602V239H420V82H645V0H322V122H156L100 0H6Z" glyph-name="AEacute.sc" horiz-adv-x="693" /><glyph d="M409 256 293 583 188 256ZM897 256 788 582 678 256ZM251 719H344L550 133L753 719H846L1086 0H981L926 166H648L590 -4H499L439 166H161L108 0H11Z" glyph-name="A_A" horiz-adv-x="1097" /><glyph d="M332 199 246 437 168 199ZM725 199 645 436 563 199ZM204 552H298L454 120L607 552H701L890 0H792L751 120H537L494 -2H403L358 120H143L104 0H14Z" glyph-name="A_A.sc" horiz-adv-x="905" /><glyph d="M409 256 293 583 188 256ZM897 256 788 582 678 256ZM251 719H344L550 133L753 719H846L1086 0H981L926 166H648L590 -4H499L439 166H161L108 0H11ZM730 840 946 946 983 859 756 778Z" glyph-name="A_Aacute" horiz-adv-x="1097" /><glyph d="M591 650 766 732 800 659 615 597ZM332 199 246 437 168 199ZM725 199 645 436 563 199ZM204 552H298L454 120L607 552H701L890 0H792L751 120H537L494 -2H403L358 120H143L104 0H14Z" glyph-name="A_Aacute.sc" horiz-adv-x="905" /><glyph d="M409 256 293 583 188 256ZM897 256 788 582 678 256ZM251 719H344L550 133L753 719H846L1086 0H981L926 166H648L590 -4H499L439 166H161L108 0H11ZM704 801Q677 801 659.5 818.5Q642 836 642 865Q642 893 659.5 910.5Q677 928 705 928Q734 928 751.5 910.5Q769 893 769 866Q769 837 751 819Q733 801 704 801ZM892 801Q865 801 847 818.5Q829 836 829 865Q829 893 847 910.5Q865 928 893 928Q922 928 939.5 910.5Q957 893 957 866Q957 837 939 819Q921 801 892 801Z" glyph-name="A_Adieresis" horiz-adv-x="1097" /><glyph d="M576 615Q551 615 536.5 630Q522 645 522 667Q522 690 536.5 704Q551 718 576 718Q602 718 617 704Q632 690 632 668Q632 645 617 630Q602 615 576 615ZM730 615Q704 615 690 630Q676 645 676 667Q676 690 690.5 704Q705 718 731 718Q757 718 771 704Q785 690 785 668Q785 645 770.5 630Q756 615 730 615ZM332 199 246 437 168 199ZM725 199 645 436 563 199ZM204 553H298L454 120L607 553H701L890 0H792L751 120H537L494 -3H403L358 120H143L104 0H14Z" glyph-name="A_Adieresis.sc" horiz-adv-x="905" /><glyph d="M409 256 293 583 188 256ZM897 256 788 582 678 256ZM251 719H344L550 133L753 719H846L1086 0H981L926 166H648L590 -4H499L439 166H161L108 0H11ZM615 859 652 946 868 840 842 778Z" glyph-name="A_Agrave" horiz-adv-x="1097" /><glyph d="M508 659 541 732 717 650 693 598ZM332 199 246 437 168 199ZM725 199 645 436 563 199ZM204 553H298L454 120L607 553H701L890 0H792L751 120H537L494 -3H403L358 120H143L104 0H14Z" glyph-name="A_Agrave.sc" horiz-adv-x="905" /><glyph d="M409 256 293 583 188 256ZM897 256 788 582 678 256ZM251 719H344L550 133L753 719H846L1086 0H981L926 166H648L590 -4H499L439 166H161L108 0H11ZM657 903H937V819H657Z" glyph-name="A_Amacron" horiz-adv-x="1097" /><glyph d="M539 699H766V629H539ZM332 199 246 437 168 199ZM725 199 645 436 563 199ZM204 553H298L454 120L607 553H701L890 0H792L751 120H537L494 -3H403L358 120H143L104 0H14Z" glyph-name="A_Amacron.sc" horiz-adv-x="905" /><glyph d="M409 256 293 583 188 256ZM897 256 788 582 678 256ZM1013 -225Q965 -225 936 -197Q907 -169 907 -127Q907 -92 926.5 -56Q946 -20 993 0H981L926 166H648L590 -4H499L439 166H161L108 0H11L251 719H344L550 133L753 719H846L1086 0Q1032 -29 1014.5 -57.5Q997 -86 997 -109Q997 -153 1045 -153Q1059 -153 1070 -148.5Q1081 -144 1089.5 -138.5Q1098 -133 1103 -128.5Q1108 -124 1109 -123V-187Q1108 -188 1101 -194Q1094 -200 1082 -207Q1070 -214 1053 -219.5Q1036 -225 1013 -225Z" glyph-name="A_Aogonek" horiz-adv-x="1097" /><glyph d="M792 0 751 120H537L494 -3H403L358 120H143L104 0H14L204 553H298L454 120L607 553H701L890 0Q850 -21 835.5 -42.5Q821 -64 821 -81Q821 -115 858 -115Q878 -115 892 -105.5Q906 -96 910 -94V-145Q907 -147 901 -151.5Q895 -156 885 -161Q875 -166 861 -170Q847 -174 830 -174Q789 -174 764.5 -152Q740 -130 740 -97Q740 -68 757 -41Q774 -14 810 0ZM332 199 246 437 168 199ZM725 199 645 436 563 199Z" glyph-name="A_Aogonek.sc" horiz-adv-x="905" /><glyph d="M409 256 293 583 188 256ZM897 256 788 582 678 256ZM251 719H344L550 133L753 719H846L1086 0H981L926 166H648L590 -4H499L439 166H161L108 0H11ZM797 771Q744 771 712 796Q680 821 680 864Q680 905 712 931.5Q744 958 797 958Q850 958 883 931.5Q916 905 916 864Q916 821 883.5 796Q851 771 797 771ZM797 826Q819 826 833.5 836.5Q848 847 848 866Q848 883 833 893Q818 903 797 903Q774 903 760.5 893Q747 883 747 866Q747 847 760.5 836.5Q774 826 797 826Z" glyph-name="A_Aring" horiz-adv-x="1097" /><glyph d="M653 594Q609 594 583 613Q557 632 557 666Q557 698 583 719Q609 740 653 740Q696 740 723 719Q750 698 750 666Q750 632 724 613Q698 594 653 594ZM653 638Q670 638 681 645.5Q692 653 692 667Q692 681 681 688Q670 695 653 695Q635 695 624.5 688Q614 681 614 667Q614 653 624.5 645.5Q635 638 653 638ZM332 199 246 437 168 199ZM725 199 645 436 563 199ZM204 553H298L454 120L607 553H701L890 0H792L751 120H537L494 -3H403L358 120H143L104 0H14Z" glyph-name="A_Aring.sc" horiz-adv-x="905" /><glyph d="M409 256 293 583 188 256ZM897 256 788 582 678 256ZM251 719H344L550 133L753 719H846L1086 0H981L926 166H648L590 -4H499L439 166H161L108 0H11ZM638 804Q638 809 641.5 829.5Q645 850 655.5 872.5Q666 895 685.5 913Q705 931 738 931Q765 931 782 920.5Q799 910 815 899Q832 888 843.5 878.5Q855 869 869 869Q880 869 886 876Q892 883 896 892Q900 902 902 915H968Q967 910 964 890Q961 870 951 848.5Q941 827 922 809.5Q903 792 870 792Q845 792 828.5 802.5Q812 813 795 824Q780 834 767.5 844Q755 854 740 854Q728 854 721 846Q714 838 710 829Q706 818 704 804Z" glyph-name="A_Atilde" horiz-adv-x="1097" /><glyph d="M520 618Q520 626 523.5 642.5Q527 659 536 676.5Q545 694 561.5 707Q578 720 604 720Q626 720 640 712.5Q654 705 667 697Q681 688 690 681Q699 674 711 674Q720 674 725 679.5Q730 685 733 691Q737 698 738 708H796Q795 700 792 683.5Q789 667 780 650.5Q771 634 755.5 621.5Q740 609 714 609Q692 609 679 616.5Q666 624 652 632Q639 640 629 647Q619 654 607 654Q597 654 591 648.5Q585 643 582 636Q579 628 577 618ZM332 199 246 437 168 199ZM725 199 645 436 563 199ZM204 553H298L454 120L607 553H701L890 0H792L751 120H537L494 -3H403L358 120H143L104 0H14Z" glyph-name="A_Atilde.sc" horiz-adv-x="905" /><glyph d="M251 719H344L549 151L729 716H830L590 -4H501L440 166H165L110 0H11ZM409 256 293 576 192 256Z" glyph-name="A_V" horiz-adv-x="841" /><glyph d="M332 199 246 433 170 199ZM204 553H298L453 132L589 550H683L494 -3H404L359 120H145L105 0H14Z" glyph-name="A_V.sc" horiz-adv-x="697" /><glyph d="M397 256 290 576 188 256ZM251 719H344L534 143L676 719H760L921 163L1081 716H1175L965 -4H874L713 535L572 -4H483L426 166H161L107 0H11Z" glyph-name="A_W" horiz-adv-x="1184" /><glyph d="M322 199 243 432 167 199ZM203 553H297L442 124L551 553H631L752 138L871 550H957L795 -3H705L585 391L478 -3H391L348 120H142L103 0H13Z" glyph-name="A_W.sc" horiz-adv-x="972" /><glyph d="M399 256 294 570 194 256ZM253 719H346L586 0H481L427 166H167L112 0H13ZM231 840 447 946 484 859 257 778Z" glyph-name="Aacute" horiz-adv-x="599" unicode="&#193;" /><glyph d="M190 650 365 732 398 659 214 597ZM325 199 247 428 172 199ZM206 553H300L489 0H391L351 120H148L107 0H16Z" glyph-name="Aacute.sc" horiz-adv-x="505" /><glyph d="M409 256 293 583 188 256ZM897 256 788 582 678 256ZM251 719H344L550 133L753 719H846L1086 0H981L926 166H648L590 -4H499L439 166H161L108 0H11ZM229 840 445 946 482 859 255 778Z" glyph-name="Aacute_A" horiz-adv-x="1097" /><glyph d="M188 650 363 732 396 659 212 597ZM332 199 246 437 168 199ZM725 199 645 436 563 199ZM204 553H298L454 120L607 553H701L890 0H792L751 120H537L494 -3H403L358 120H143L104 0H14Z" glyph-name="Aacute_A.sc" horiz-adv-x="905" /><glyph d="M409 256 293 583 188 256ZM897 256 788 582 678 256ZM251 719H344L550 133L753 719H846L1086 0H981L926 166H648L590 -4H499L439 166H161L108 0H11ZM730 840 946 946 983 859 756 778ZM229 840 445 946 482 859 255 778Z" glyph-name="Aacute_Aacute" horiz-adv-x="1097" /><glyph d="M591 650 766 732 800 659 615 597ZM188 650 363 732 396 659 212 597ZM332 199 246 437 168 199ZM725 199 645 436 563 199ZM204 553H298L454 120L607 553H701L890 0H792L751 120H537L494 -3H403L358 120H143L104 0H14Z" glyph-name="Aacute_Aacute.sc" horiz-adv-x="905" /><glyph d="M251 719H344L549 151L729 716H830L590 -4H501L440 166H165L110 0H11ZM409 256 293 576 192 256ZM229 840 445 946 482 859 255 778Z" glyph-name="Aacute_V" horiz-adv-x="841" /><glyph d="M188 650 363 732 396 659 212 597ZM332 199 246 433 170 199ZM204 553H298L453 132L589 550H683L494 -3H404L359 120H145L105 0H14Z" glyph-name="Aacute_V.sc" horiz-adv-x="697" /><glyph d="M399 256 294 570 194 256ZM253 719H346L586 0H481L427 166H167L112 0H13ZM299 786Q233 786 192 826.5Q151 867 150 934H229Q229 923 233 911Q237 899 245 888.5Q253 878 266.5 871.5Q280 865 299 865Q318 865 331.5 871.5Q345 878 353 888.5Q361 899 365 911Q369 923 369 934H449Q448 867 407 826.5Q366 786 299 786Z" glyph-name="Abreve" horiz-adv-x="599" unicode="&#258;" /><glyph d="M252 605Q200 605 165 635.5Q130 666 128 720H198Q198 713 200.5 704Q203 695 209.5 687.5Q216 680 226.5 674.5Q237 669 252 669Q267 669 277.5 674.5Q288 680 294.5 687.5Q301 695 304 704Q307 713 307 720H376Q374 666 340 635.5Q306 605 252 605ZM325 199 247 428 172 199ZM206 553H300L489 0H391L351 120H148L107 0H16Z" glyph-name="Abreve.sc" horiz-adv-x="505" /><glyph d="M251 719H344L549 151L729 716H830L590 -4H501L440 166H165L110 0H11ZM409 256 293 576 192 256ZM297 786Q231 786 190 826.5Q149 867 148 934H227Q227 923 231 911Q235 899 243 888.5Q251 878 264.5 871.5Q278 865 297 865Q316 865 329.5 871.5Q343 878 351 888.5Q359 899 363 911Q367 923 367 934H447Q446 867 405 826.5Q364 786 297 786Z" glyph-name="Abreve_V" horiz-adv-x="841" /><glyph d="M250 605Q198 605 163 635.5Q128 666 126 720H196Q196 713 198.5 704Q201 695 207.5 687.5Q214 680 224.5 674.5Q235 669 250 669Q265 669 275.5 674.5Q286 680 292.5 687.5Q299 695 302 704Q305 713 305 720H374Q372 666 338 635.5Q304 605 250 605ZM332 199 246 433 170 199ZM204 553H298L453 132L589 550H683L494 -3H404L359 120H145L105 0H14Z" glyph-name="Abreve_V.sc" horiz-adv-x="697" /><glyph d="M399 256 294 570 194 256ZM253 719H346L586 0H481L427 166H167L112 0H13ZM127 826 268 945H329L471 826L436 778L299 864L160 778Z" glyph-name="Acircumflex" horiz-adv-x="599" unicode="&#194;" /><glyph d="M111 638 224 731H280L394 638L363 598L252 664L142 598ZM325 199 247 428 172 199ZM206 553H300L489 0H391L351 120H148L107 0H16Z" glyph-name="Acircumflex.sc" horiz-adv-x="505" /><glyph d="M399 256 294 570 194 256ZM253 719H346L586 0H481L427 166H167L112 0H13ZM204 801Q177 801 159.5 818.5Q142 836 142 865Q142 893 159.5 910.5Q177 928 205 928Q234 928 251.5 910.5Q269 893 269 866Q269 837 251 819Q233 801 204 801ZM392 801Q365 801 347 818.5Q329 836 329 865Q329 893 347 910.5Q365 928 393 928Q422 928 439.5 910.5Q457 893 457 866Q457 837 439 819Q421 801 392 801Z" glyph-name="Adieresis" horiz-adv-x="599" unicode="&#196;" /><glyph d="M175 615Q150 615 135 630Q120 645 120 667Q120 690 134.5 704Q149 718 175 718Q201 718 216 704Q231 690 231 668Q231 645 216 630Q201 615 175 615ZM328 615Q303 615 288.5 630Q274 645 274 667Q274 690 288.5 704Q303 718 328 718Q354 718 369 704Q384 690 384 668Q384 645 369 630Q354 615 328 615ZM325 199 247 428 172 199ZM206 553H300L489 0H391L351 120H148L107 0H16Z" glyph-name="Adieresis.sc" horiz-adv-x="505" /><glyph d="M409 256 293 583 188 256ZM897 256 788 582 678 256ZM251 719H344L550 133L753 719H846L1086 0H981L926 166H648L590 -4H499L439 166H161L108 0H11ZM201 801Q174 801 156.5 818.5Q139 836 139 865Q139 893 156.5 910.5Q174 928 202 928Q231 928 248.5 910.5Q266 893 266 866Q266 837 248 819Q230 801 201 801ZM389 801Q362 801 344 818.5Q326 836 326 865Q326 893 344 910.5Q362 928 390 928Q419 928 436.5 910.5Q454 893 454 866Q454 837 436 819Q418 801 389 801Z" glyph-name="Adieresis_A" horiz-adv-x="1097" /><glyph d="M173 615Q148 615 133 630Q118 645 118 667Q118 690 132.5 704Q147 718 173 718Q199 718 214 704Q229 690 229 668Q229 645 214 630Q199 615 173 615ZM326 615Q301 615 286.5 630Q272 645 272 667Q272 690 286.5 704Q301 718 326 718Q352 718 367 704Q382 690 382 668Q382 645 367 630Q352 615 326 615ZM332 199 246 437 168 199ZM725 199 645 436 563 199ZM204 553H298L454 120L607 553H701L890 0H792L751 120H537L494 -3H403L358 120H143L104 0H14Z" glyph-name="Adieresis_A.sc" horiz-adv-x="905" /><glyph d="M409 256 293 583 188 256ZM897 256 788 582 678 256ZM251 719H344L550 133L753 719H846L1086 0H981L926 166H648L590 -4H499L439 166H161L108 0H11ZM704 801Q677 801 659.5 818.5Q642 836 642 865Q642 893 659.5 910.5Q677 928 705 928Q734 928 751.5 910.5Q769 893 769 866Q769 837 751 819Q733 801 704 801ZM892 801Q865 801 847 818.5Q829 836 829 865Q829 893 847 910.5Q865 928 893 928Q922 928 939.5 910.5Q957 893 957 866Q957 837 939 819Q921 801 892 801ZM201 801Q174 801 156.5 818.5Q139 836 139 865Q139 893 156.5 910.5Q174 928 202 928Q231 928 248.5 910.5Q266 893 266 866Q266 837 248 819Q230 801 201 801ZM389 801Q362 801 344 818.5Q326 836 326 865Q326 893 344 910.5Q362 928 390 928Q419 928 436.5 910.5Q454 893 454 866Q454 837 436 819Q418 801 389 801Z" glyph-name="Adieresis_Adieresis" horiz-adv-x="1097" /><glyph d="M576 615Q551 615 536.5 630Q522 645 522 667Q522 690 536.5 704Q551 718 576 718Q602 718 617 704Q632 690 632 668Q632 645 617 630Q602 615 576 615ZM730 615Q704 615 690 630Q676 645 676 667Q676 690 690.5 704Q705 718 731 718Q757 718 771 704Q785 690 785 668Q785 645 770.5 630Q756 615 730 615ZM173 615Q148 615 133 630Q118 645 118 667Q118 690 132.5 704Q147 718 173 718Q199 718 214 704Q229 690 229 668Q229 645 214 630Q199 615 173 615ZM326 615Q301 615 286.5 630Q272 645 272 667Q272 690 286.5 704Q301 718 326 718Q352 718 367 704Q382 690 382 668Q382 645 367 630Q352 615 326 615ZM332 199 246 437 168 199ZM725 199 645 436 563 199ZM204 553H298L454 120L607 553H701L890 0H792L751 120H537L494 -3H403L358 120H143L104 0H14Z" glyph-name="Adieresis_Adieresis.sc" horiz-adv-x="905" /><glyph d="M251 719H344L549 151L729 716H830L590 -4H501L440 166H165L110 0H11ZM409 256 293 576 192 256ZM201 801Q174 801 156.5 818.5Q139 836 139 865Q139 893 156.5 910.5Q174 928 202 928Q231 928 248.5 910.5Q266 893 266 866Q266 837 248 819Q230 801 201 801ZM389 801Q362 801 344 818.5Q326 836 326 865Q326 893 344 910.5Q362 928 390 928Q419 928 436.5 910.5Q454 893 454 866Q454 837 436 819Q418 801 389 801Z" glyph-name="Adieresis_V" horiz-adv-x="841" /><glyph d="M173 615Q148 615 133 630Q118 645 118 667Q118 690 132.5 704Q147 718 173 718Q199 718 214 704Q229 690 229 668Q229 645 214 630Q199 615 173 615ZM326 615Q301 615 286.5 630Q272 645 272 667Q272 690 286.5 704Q301 718 326 718Q352 718 367 704Q382 690 382 668Q382 645 367 630Q352 615 326 615ZM332 199 246 433 170 199ZM204 553H298L453 132L589 550H683L494 -3H404L359 120H145L105 0H14Z" glyph-name="Adieresis_V.sc" horiz-adv-x="697" /><glyph d="M399 256 294 570 194 256ZM253 719H346L586 0H481L427 166H167L112 0H13ZM115 859 152 946 368 840 342 778Z" glyph-name="Agrave" horiz-adv-x="599" unicode="&#192;" /><glyph d="M107 659 140 732 315 650 291 598ZM325 199 247 428 172 199ZM206 553H300L489 0H391L351 120H148L107 0H16Z" glyph-name="Agrave.sc" horiz-adv-x="505" /><glyph d="M409 256 293 583 188 256ZM897 256 788 582 678 256ZM251 719H344L550 133L753 719H846L1086 0H981L926 166H648L590 -4H499L439 166H161L108 0H11ZM615 859 652 946 868 840 842 778ZM113 859 150 946 366 840 340 778Z" glyph-name="Agrave_Agrave" horiz-adv-x="1097" /><glyph d="M508 659 541 732 717 650 693 598ZM105 659 138 732 313 650 289 598ZM332 199 246 437 168 199ZM725 199 645 436 563 199ZM204 553H298L454 120L607 553H701L890 0H792L751 120H537L494 -3H403L358 120H143L104 0H14Z" glyph-name="Agrave_Agrave.sc" horiz-adv-x="905" /><glyph d="M251 719H344L549 151L729 716H830L590 -4H501L440 166H165L110 0H11ZM409 256 293 576 192 256ZM113 859 150 946 366 840 340 778Z" glyph-name="Agrave_V" horiz-adv-x="841" /><glyph d="M105 659 138 732 313 650 289 598ZM332 199 246 433 170 199ZM204 553H298L453 132L589 550H683L494 -3H404L359 120H145L105 0H14Z" glyph-name="Agrave_V.sc" horiz-adv-x="697" /><glyph d="M399 256 294 570 194 256ZM253 719H346L586 0H481L427 166H167L112 0H13ZM158 903H438V819H158Z" glyph-name="Amacron" horiz-adv-x="599" unicode="&#256;" /><glyph d="M138 699H365V629H138ZM325 199 247 428 172 199ZM206 553H300L489 0H391L351 120H148L107 0H16Z" glyph-name="Amacron.sc" horiz-adv-x="505" /><glyph d="M409 256 293 583 188 256ZM897 256 788 582 678 256ZM251 719H344L550 133L753 719H846L1086 0H981L926 166H648L590 -4H499L439 166H161L108 0H11ZM155 903H435V819H155Z" glyph-name="Amacron_A" horiz-adv-x="1097" /><glyph d="M136 699H363V629H136ZM332 199 246 437 168 199ZM725 199 645 436 563 199ZM204 553H298L454 120L607 553H701L890 0H792L751 120H537L494 -3H403L358 120H143L104 0H14Z" glyph-name="Amacron_A.sc" horiz-adv-x="905" /><glyph d="M251 719H344L549 151L729 716H830L590 -4H501L440 166H165L110 0H11ZM409 256 293 576 192 256ZM155 903H435V819H155Z" glyph-name="Amacron_V" horiz-adv-x="841" /><glyph d="M136 699H363V629H136ZM332 199 246 433 170 199ZM204 553H298L453 132L589 550H683L494 -3H404L359 120H145L105 0H14Z" glyph-name="Amacron_V.sc" horiz-adv-x="697" /><glyph d="M399 256 294 570 194 256ZM586 0Q533 -29 515.5 -57.5Q498 -86 498 -109Q498 -153 545 -153Q559 -153 570 -148.5Q581 -144 589.5 -138.5Q598 -133 603 -128.5Q608 -124 609 -123V-187Q608 -188 601 -194Q594 -200 582 -207Q570 -214 553 -219.5Q536 -225 513 -225Q465 -225 436 -197Q407 -169 407 -127Q407 -92 426.5 -56Q446 -20 493 0H481L427 166H167L112 0H13L253 719H346Z" glyph-name="Aogonek" horiz-adv-x="599" unicode="&#260;" /><glyph d="M391 0 351 120H148L107 0H16L206 553H300L489 0Q449 -21 434 -42.5Q419 -64 419 -81Q419 -115 457 -115Q477 -115 491 -105.5Q505 -96 508 -94V-145Q506 -147 499.5 -151.5Q493 -156 483 -161Q473 -166 459.5 -170Q446 -174 428 -174Q388 -174 363.5 -152Q339 -130 339 -97Q339 -68 356 -41Q373 -14 409 0ZM325 199 247 428 172 199Z" glyph-name="Aogonek.sc" horiz-adv-x="505" /><glyph d="M399 256 294 570 194 256ZM253 719H346L586 0H481L427 166H167L112 0H13ZM298 771Q245 771 213 796Q181 821 181 864Q181 905 213 931.5Q245 958 298 958Q351 958 384 931.5Q417 905 417 864Q417 821 384.5 796Q352 771 298 771ZM298 826Q320 826 334.5 836.5Q349 847 349 866Q349 883 334 893Q319 903 298 903Q275 903 261.5 893Q248 883 248 866Q248 847 261.5 836.5Q275 826 298 826Z" glyph-name="Aring" horiz-adv-x="599" unicode="&#197;" /><glyph d="M251 594Q208 594 181 613Q154 632 154 666Q154 698 181 719Q208 740 251 740Q295 740 321.5 719Q348 698 348 666Q348 632 322 613Q296 594 251 594ZM251 638Q268 638 279.5 645.5Q291 653 291 667Q291 681 279.5 688Q268 695 251 695Q234 695 223.5 688Q213 681 213 667Q213 653 223.5 645.5Q234 638 251 638ZM325 199 247 428 172 199ZM206 553H300L489 0H391L351 120H148L107 0H16Z" glyph-name="Aring.sc" horiz-adv-x="505" /><glyph d="M409 256 293 583 188 256ZM897 256 788 582 678 256ZM251 719H344L550 133L753 719H846L1086 0H981L926 166H648L590 -4H499L439 166H161L108 0H11ZM295 771Q242 771 210 796Q178 821 178 864Q178 905 210 931.5Q242 958 295 958Q348 958 381 931.5Q414 905 414 864Q414 821 381.5 796Q349 771 295 771ZM295 826Q317 826 331.5 836.5Q346 847 346 866Q346 883 331 893Q316 903 295 903Q272 903 258.5 893Q245 883 245 866Q245 847 258.5 836.5Q272 826 295 826Z" glyph-name="Aring_A" horiz-adv-x="1097" /><glyph d="M249 594Q206 594 179 613Q152 632 152 666Q152 698 179 719Q206 740 249 740Q293 740 319.5 719Q346 698 346 666Q346 632 320 613Q294 594 249 594ZM249 638Q266 638 277.5 645.5Q289 653 289 667Q289 681 277.5 688Q266 695 249 695Q232 695 221.5 688Q211 681 211 667Q211 653 221.5 645.5Q232 638 249 638ZM332 199 246 437 168 199ZM725 199 645 436 563 199ZM204 553H298L454 120L607 553H701L890 0H792L751 120H537L494 -3H403L358 120H143L104 0H14Z" glyph-name="Aring_A.sc" horiz-adv-x="905" /><glyph d="M409 256 293 583 188 256ZM897 256 788 582 678 256ZM251 719H344L550 133L753 719H846L1086 0H981L926 166H648L590 -4H499L439 166H161L108 0H11ZM797 771Q744 771 712 796Q680 821 680 864Q680 905 712 931.5Q744 958 797 958Q850 958 883 931.5Q916 905 916 864Q916 821 883.5 796Q851 771 797 771ZM797 826Q819 826 833.5 836.5Q848 847 848 866Q848 883 833 893Q818 903 797 903Q774 903 760.5 893Q747 883 747 866Q747 847 760.5 836.5Q774 826 797 826ZM295 771Q242 771 210 796Q178 821 178 864Q178 905 210 931.5Q242 958 295 958Q348 958 381 931.5Q414 905 414 864Q414 821 381.5 796Q349 771 295 771ZM295 826Q317 826 331.5 836.5Q346 847 346 866Q346 883 331 893Q316 903 295 903Q272 903 258.5 893Q245 883 245 866Q245 847 258.5 836.5Q272 826 295 826Z" glyph-name="Aring_Aring" horiz-adv-x="1097" /><glyph d="M653 594Q609 594 583 613Q557 632 557 666Q557 698 583 719Q609 740 653 740Q696 740 723 719Q750 698 750 666Q750 632 724 613Q698 594 653 594ZM249 594Q206 594 179 613Q152 632 152 666Q152 698 179 719Q206 740 249 740Q293 740 319.5 719Q346 698 346 666Q346 632 320 613Q294 594 249 594ZM653 638Q670 638 681 645.5Q692 653 692 667Q692 681 681 688Q670 695 653 695Q635 695 624.5 688Q614 681 614 667Q614 653 624.5 645.5Q635 638 653 638ZM249 638Q266 638 277.5 645.5Q289 653 289 667Q289 681 277.5 688Q266 695 249 695Q232 695 221.5 688Q211 681 211 667Q211 653 221.5 645.5Q232 638 249 638ZM332 199 246 437 168 199ZM725 199 645 436 563 199ZM204 553H298L454 120L607 553H701L890 0H792L751 120H537L494 -3H403L358 120H143L104 0H14Z" glyph-name="Aring_Aring.sc" horiz-adv-x="905" /><glyph d="M251 719H344L549 151L729 716H830L590 -4H501L440 166H165L110 0H11ZM409 256 293 576 192 256ZM295 771Q242 771 210 796Q178 821 178 864Q178 905 210 931.5Q242 958 295 958Q348 958 381 931.5Q414 905 414 864Q414 821 381.5 796Q349 771 295 771ZM295 826Q317 826 331.5 836.5Q346 847 346 866Q346 883 331 893Q316 903 295 903Q272 903 258.5 893Q245 883 245 866Q245 847 258.5 836.5Q272 826 295 826Z" glyph-name="Aring_V" horiz-adv-x="841" /><glyph d="M249 594Q206 594 179 613Q152 632 152 666Q152 698 179 719Q206 740 249 740Q293 740 319.5 719Q346 698 346 666Q346 632 320 613Q294 594 249 594ZM249 638Q266 638 277.5 645.5Q289 653 289 667Q289 681 277.5 688Q266 695 249 695Q232 695 221.5 688Q211 681 211 667Q211 653 221.5 645.5Q232 638 249 638ZM332 199 246 433 170 199ZM204 553H298L453 132L589 550H683L494 -3H404L359 120H145L105 0H14Z" glyph-name="Aring_V.sc" horiz-adv-x="697" /><glyph d="M243 1055 459 1160 496 1074 268 994ZM399 256 294 570 194 256ZM253 719H346L586 0H481L427 166H167L112 0H13ZM298 771Q245 771 213 796Q181 821 181 864Q181 905 213 931.5Q245 958 298 958Q351 958 384 931.5Q417 905 417 864Q417 821 384.5 796Q352 771 298 771ZM298 826Q320 826 334.5 836.5Q349 847 349 866Q349 883 334 893Q319 903 298 903Q275 903 261.5 893Q248 883 248 866Q248 847 261.5 836.5Q275 826 298 826Z" glyph-name="Aringacute" horiz-adv-x="599" unicode="&#506;" /><glyph d="M200 818 377 899 408 827 223 767ZM251 594Q208 594 181 613Q154 632 154 666Q154 698 181 719Q208 740 251 740Q295 740 321.5 719Q348 698 348 666Q348 632 322 613Q296 594 251 594ZM251 638Q268 638 279.5 645.5Q291 653 291 667Q291 681 279.5 688Q268 695 251 695Q234 695 223.5 688Q213 681 213 667Q213 653 223.5 645.5Q234 638 251 638ZM325 199 247 428 172 199ZM206 553H300L489 0H391L351 120H148L107 0H16Z" glyph-name="Aringacute.sc" horiz-adv-x="505" /><glyph d="M399 256 294 570 194 256ZM253 719H346L586 0H481L427 166H167L112 0H13ZM138 804Q138 809 141.5 829.5Q145 850 155.5 872.5Q166 895 185.5 913Q205 931 238 931Q265 931 282 920.5Q299 910 315 899Q332 888 343.5 878.5Q355 869 369 869Q380 869 386 876Q392 883 396 892Q400 902 402 915H468Q467 910 464 890Q461 870 451 848.5Q441 827 422 809.5Q403 792 370 792Q345 792 328.5 802.5Q312 813 295 824Q280 834 267.5 844Q255 854 240 854Q228 854 221 846Q214 838 210 829Q206 818 204 804Z" glyph-name="Atilde" horiz-adv-x="599" unicode="&#195;" /><glyph d="M117 618Q118 626 121.5 642.5Q125 659 134.5 676.5Q144 694 160.5 707Q177 720 203 720Q225 720 238.5 712.5Q252 705 266 697Q280 688 289 681Q298 674 310 674Q318 674 323 679.5Q328 685 331 691Q335 698 336 708H394Q393 700 390 683.5Q387 667 378 650.5Q369 634 353.5 621.5Q338 609 312 609Q291 609 278 616.5Q265 624 251 632Q237 640 227 647Q217 654 205 654Q195 654 189.5 648.5Q184 643 181 636Q177 628 176 618ZM325 199 247 428 172 199ZM206 553H300L489 0H391L351 120H148L107 0H16Z" glyph-name="Atilde.sc" horiz-adv-x="505" /><glyph d="M86 716H277Q403 716 460 665.5Q517 615 517 530Q517 478 493.5 439.5Q470 401 426 378Q459 369 482.5 351.5Q506 334 521 311.5Q536 289 543 262.5Q550 236 550 208Q550 155 532 115.5Q514 76 481 50.5Q448 25 402 12.5Q356 0 299 0H86ZM286 413Q352 413 382.5 443Q413 473 413 526Q413 579 378 604Q343 629 278 629H190V413ZM300 87Q370 87 406.5 119Q443 151 443 208Q443 266 410 296Q377 326 301 326H190V87Z" glyph-name="B" horiz-adv-x="595" unicode="B" /><glyph d="M76 550H237Q342 550 389 511Q436 472 436 405Q436 365 416.5 335.5Q397 306 363 289Q414 275 438 240Q462 205 462 161Q462 79 405 39.5Q348 0 253 0H76ZM245 320Q293 320 316 341.5Q339 363 339 401Q339 439 313 457Q287 475 239 475H172V320ZM255 75Q307 75 334 97.5Q361 120 361 161Q361 203 336.5 224Q312 245 256 245H172V75Z" glyph-name="B.sc" horiz-adv-x="504" /><glyph d="M358 -11Q211 -11 131 78Q51 167 51 338Q51 424 69 495.5Q87 567 125 618.5Q163 670 221.5 698.5Q280 727 360 727Q401 727 429.5 723Q458 719 477 714Q499 708 513 700V609Q497 617 475 623Q454 629 427 633Q400 637 364 637Q308 637 269 615Q230 593 206 554Q182 515 171 460.5Q160 406 160 340Q160 79 364 79Q402 79 430.5 84Q459 89 477 96Q499 103 514 112V21Q499 12 477 5Q456 -2 427.5 -6.5Q399 -11 358 -11Z" glyph-name="C" horiz-adv-x="557" unicode="C" /><glyph d="M299 -9Q184 -9 115 59.5Q46 128 46 262Q46 328 61.5 382.5Q77 437 108.5 476Q140 515 188 537Q236 559 300 559Q332 559 355.5 555.5Q379 552 394 549Q411 544 423 538V457Q410 463 392 468Q376 472 355.5 475Q335 478 307 478Q264 478 234 462.5Q204 447 185 418.5Q166 390 157 350.5Q148 311 148 264Q148 72 306 72Q335 72 357 75.5Q379 79 394 84Q411 89 424 96V16Q412 9 394 4Q377 -2 354 -5.5Q331 -9 299 -9Z" glyph-name="C.sc" horiz-adv-x="465" /><glyph d="M357 -11Q210 -11 130 76.5Q50 164 50 332Q50 415 72 484.5Q94 554 139 605Q184 656 252.5 684.5Q321 713 414 713H976V620H777V-3H673V620H427Q356 620 305.5 599.5Q255 579 222.5 541Q190 503 174.5 450Q159 397 159 332Q159 79 363 79Q401 79 429.5 84Q458 89 477 96Q499 103 514 112V21Q499 12 476 5Q455 -2 426.5 -6.5Q398 -11 357 -11Z" glyph-name="C_T" horiz-adv-x="991" /><glyph d="M300 -9Q184 -9 115 58Q46 125 46 258Q46 321 64 374.5Q82 428 119 466.5Q156 505 212 526.5Q268 548 344 548H803V464H646V-2H548V464H354Q300 464 261.5 449Q223 434 198 407Q173 380 161 342Q149 304 149 257Q149 166 188 119Q227 72 307 72Q336 72 357.5 75.5Q379 79 394 84Q411 89 424 96V16Q412 9 394 4Q378 -2 355 -5.5Q332 -9 300 -9Z" glyph-name="C_T.sc" horiz-adv-x="821" /><glyph d="M357 -8Q210 -8 130 79.5Q50 167 50 335Q50 418 72 487.5Q94 557 139 608Q184 659 252.5 687.5Q321 716 414 716H976V623H777V0H673V623H427Q356 623 305.5 602.5Q255 582 222.5 544Q190 506 174.5 453Q159 400 159 335Q159 82 363 82Q401 82 429.5 87Q458 92 477 99Q499 106 514 115V24Q499 15 476 8Q455 1 426.5 -3.5Q398 -8 357 -8ZM554 896 587 945 726 859 863 945 898 896 756 778H694Z" glyph-name="C_Tcaron" horiz-adv-x="990" /><glyph d="M457 690 487 731 598 665 708 731 739 690 625 598H570ZM300 -7Q184 -7 115 60Q46 127 46 260Q46 323 64 376Q82 429 119 468Q156 507 212 528.5Q268 550 344 550H803V467H646V0H548V467H354Q300 467 261.5 452Q223 437 198 409.5Q173 382 161 343.5Q149 305 149 258Q149 167 188 120.5Q227 74 307 74Q336 74 357.5 77.5Q379 81 394 86Q411 91 424 98V17Q412 10 394 5Q378 0 355 -3.5Q332 -7 300 -7Z" glyph-name="C_Tcaron.sc" horiz-adv-x="820" /><glyph d="M357 -8Q210 -8 130 79.5Q50 167 50 335Q50 418 72 487.5Q94 557 139 608Q184 659 252.5 687.5Q321 716 414 716H976V623H777V0H673V623H427Q356 623 305.5 602.5Q255 582 222.5 544Q190 506 174.5 453Q159 400 159 335Q159 82 363 82Q401 82 429.5 87Q458 92 477 99Q499 106 514 115V24Q499 15 476 8Q455 1 426.5 -3.5Q398 -8 357 -8ZM678 -280 715 -196Q689 -191 674 -174.5Q659 -158 659 -132Q659 -106 676 -85.5Q693 -65 725 -65Q757 -65 773 -85Q789 -105 789 -135Q789 -169 771.5 -210Q754 -251 728 -301Z" glyph-name="C_Tcommaaccent" horiz-adv-x="990" /><glyph d="M300 -7Q184 -7 115 60Q46 127 46 260Q46 323 64 376Q82 429 119 468Q156 507 212 528.5Q268 550 344 550H803V467H646V0H548V467H354Q300 467 261.5 452Q223 437 198 409.5Q173 382 161 343.5Q149 305 149 258Q149 167 188 120.5Q227 74 307 74Q336 74 357.5 77.5Q379 81 394 86Q411 91 424 98V17Q412 10 394 5Q378 0 355 -3.5Q332 -7 300 -7ZM558 -238 588 -172Q539 -163 539 -118Q539 -97 554 -80.5Q569 -64 596 -64Q625 -64 639.5 -80Q654 -96 654 -122Q654 -149 639 -182Q624 -215 602 -254Z" glyph-name="C_Tcommaaccent.sc" horiz-adv-x="820" /><glyph d="M357 -11Q210 -11 130 77Q50 165 50 336Q50 419 72 488.5Q94 558 139 608.5Q184 659 252.5 687.5Q321 716 414 716H608L794 151L975 716H1076L835 -4H742L533 623H427Q356 623 305.5 602.5Q255 582 222.5 544.5Q190 507 174.5 454Q159 401 159 336Q159 79 363 79Q401 79 429.5 84Q458 89 477 96Q499 103 514 112V21Q499 12 476 5Q455 -2 426.5 -6.5Q398 -11 357 -11Z" glyph-name="C_V" horiz-adv-x="1086" /><glyph d="M300 -9Q184 -9 115 59Q46 127 46 261Q46 324 64 377Q82 430 119 468.5Q156 507 212 528.5Q268 550 344 550H512L655 128L793 550H887L698 -3H603L441 467H354Q247 467 198 410Q149 353 149 259Q149 167 188 119.5Q227 72 307 72Q336 72 357.5 75.5Q379 79 394 84Q411 89 424 96V16Q412 9 394 4Q378 -2 355 -5.5Q332 -9 300 -9Z" glyph-name="C_V.sc" horiz-adv-x="900" /><glyph d="M357 -11Q209 -11 129.5 77.5Q50 166 50 335Q50 417 71.5 487Q93 557 137.5 608Q182 659 250 687.5Q318 716 410 716H644L778 167L913 719H999L1133 170L1268 716H1361L1179 -4H1083L949 534L813 -4H717L562 623H426Q355 623 304.5 602.5Q254 582 221.5 544Q189 506 174 453.5Q159 401 159 336Q159 79 363 79Q401 79 429.5 84Q458 89 477 96Q499 103 514 112V21Q499 12 476 5Q455 -2 426.5 -6.5Q398 -11 357 -11Z" glyph-name="C_W" horiz-adv-x="1374" /><glyph d="M299 -9Q181 -9 113.5 59Q46 127 46 259Q46 322 64 375Q82 428 118 467Q154 506 209 528Q264 550 339 550H543L644 142L746 553H827L930 142L1031 550H1117L975 -3H881L779 391L676 -3H582L464 467H354Q299 467 260 452Q221 437 196 410Q171 383 159.5 344.5Q148 306 148 259Q148 168 187 120Q226 72 306 72Q335 72 357 75.5Q379 79 394 84Q411 89 424 96V16Q412 9 394 4Q377 -2 354 -5.5Q331 -9 299 -9Z" glyph-name="C_W.sc" horiz-adv-x="1134" /><glyph d="M357 -11Q209 -11 129.5 77.5Q50 166 50 335Q50 417 71.5 487Q93 557 137.5 608Q182 659 250 687.5Q318 716 410 716H691L852 442L1009 716H1113L909 362L1121 0H1010L845 280L680 0H576L788 362L634 624H426Q355 624 304.5 603.5Q254 583 221.5 545Q189 507 174 454.5Q159 402 159 337Q159 79 363 79Q401 79 429.5 84Q458 89 477 96Q499 103 514 112V21Q499 12 476 5Q455 -2 426.5 -6.5Q398 -11 357 -11Z" glyph-name="C_X" horiz-adv-x="1134" /><glyph d="M299 -9Q181 -9 113.5 59Q46 127 46 259Q46 322 64 375Q82 428 118 467Q154 506 209 528Q264 550 339 550H580L701 350L820 550H916L753 280L922 0H818L693 205L569 0H472L641 276L524 468H354Q299 468 260 453Q221 438 196 411Q171 384 159.5 345.5Q148 307 148 260Q148 168 187 120Q226 72 306 72Q335 72 357 75.5Q379 79 394 84Q411 89 424 96V16Q412 9 394 4Q377 -2 354 -5.5Q331 -9 299 -9Z" glyph-name="C_X.sc" horiz-adv-x="939" /><glyph d="M357 -11Q210 -11 130 77Q50 165 50 336Q50 418 72 487.5Q94 557 139 608Q184 659 252.5 687.5Q321 716 414 716H571L749 388L926 716H1027L797 291V0H693V291L512 624H428Q357 624 306 603.5Q255 583 222.5 545.5Q190 508 174.5 455Q159 402 159 337Q159 79 363 79Q401 79 429.5 84Q458 89 477 96Q499 103 514 112V21Q499 12 476 5Q455 -2 426.5 -6.5Q398 -11 357 -11Z" glyph-name="C_Y" horiz-adv-x="1036" /><glyph d="M299 -9Q184 -9 115 59Q46 127 46 260Q46 323 64 376Q82 429 119 467.5Q156 506 211.5 528Q267 550 343 550H480L615 308L750 550H843L660 223V0H563V223L424 468H355Q246 468 197 411.5Q148 355 148 261Q148 167 187.5 119.5Q227 72 306 72Q335 72 357 75.5Q379 79 394 84Q411 89 424 96V16Q412 9 394 4Q377 -2 354 -5.5Q331 -9 299 -9Z" glyph-name="C_Y.sc" horiz-adv-x="854" /><glyph d="M357 -11Q210 -11 130 77Q50 165 50 336Q50 417 72 486.5Q94 556 139.5 607Q185 658 255 687Q325 716 422 716H1059V624L732 92H1059V0H617V92L949 624H428Q359 624 308 603Q257 582 224 544Q191 506 175 453.5Q159 401 159 337Q159 79 363 79Q401 79 429.5 84Q458 89 477 96Q499 103 514 112V21Q499 12 476 5Q455 -2 426.5 -6.5Q398 -11 357 -11Z" glyph-name="C_Z" horiz-adv-x="1103" /><glyph d="M299 -9Q184 -9 115 59Q46 127 46 260Q46 322 64 375Q82 428 119.5 467Q157 506 214 528Q271 550 350 550H870V468L612 82H870V0H505V82L765 468H355Q302 468 263 453Q224 438 198.5 410.5Q173 383 160.5 345Q148 307 148 261Q148 167 187.5 119.5Q227 72 306 72Q335 72 357 75.5Q379 79 394 84Q411 89 424 96V16Q412 9 394 4Q377 -2 354 -5.5Q331 -9 299 -9Z" glyph-name="C_Z.sc" horiz-adv-x="913" /><glyph d="M666 896 699 945 838 859 975 945 1010 896 868 778H806ZM357 -11Q210 -11 130 77Q50 165 50 336Q50 417 72 486.5Q94 556 139.5 607Q185 658 255 687Q325 716 422 716H1059V624L732 92H1059V0H617V92L949 624H428Q359 624 308 603Q257 582 224 544Q191 506 175 453.5Q159 401 159 337Q159 79 363 79Q401 79 429.5 84Q458 89 477 96Q499 103 514 112V21Q499 12 476 5Q455 -2 426.5 -6.5Q398 -11 357 -11Z" glyph-name="C_Zcaron" horiz-adv-x="1103" /><glyph d="M547 690 577 731 689 665 799 731 830 690 716 598H661ZM299 -9Q184 -9 115 59Q46 127 46 260Q46 322 64 375Q82 428 119.5 467Q157 506 214 528Q271 550 350 550H870V468L612 82H870V0H505V82L765 468H355Q302 468 263 453Q224 438 198.5 410.5Q173 383 160.5 345Q148 307 148 261Q148 167 187.5 119.5Q227 72 306 72Q335 72 357 75.5Q379 79 394 84Q411 89 424 96V16Q412 9 394 4Q377 -2 354 -5.5Q331 -9 299 -9Z" glyph-name="C_Zcaron.sc" horiz-adv-x="913" /><glyph d="M849 -8Q810 -8 780 5Q750 18 716 46L700 0H622V688H557Q513 688 513 647V609Q497 617 475 623Q454 629 427 633Q400 637 364 637Q308 637 269 615Q230 593 206 554Q182 515 171 460.5Q160 406 160 340Q160 79 364 79Q402 79 430.5 84Q459 89 477 96Q499 103 514 112V21Q499 12 477 5Q456 -2 427.5 -6.5Q399 -11 358 -11Q211 -11 131 78Q51 167 51 338Q51 424 69 495.5Q87 567 125 618.5Q163 670 221.5 698.5Q280 727 360 727Q414 727 449 719Q468 766 530 766H725V449Q738 467 758 481Q776 494 801 503.5Q826 513 863 513Q916 513 954.5 493.5Q993 474 1018 440Q1043 406 1055 360.5Q1067 315 1067 263Q1067 200 1052 150Q1037 100 1009 64.5Q981 29 940.5 10.5Q900 -8 849 -8ZM826 76Q898 76 929 127Q960 178 960 260Q960 338 929.5 382.5Q899 427 832 427Q805 427 785 418Q765 409 752 398Q736 385 725 368V109Q737 100 753 93Q767 86 785 81Q803 76 826 76Z" glyph-name="C_b" horiz-adv-x="1113" /><glyph d="M514 21Q499 12 477 5Q456 -2 427.5 -6.5Q399 -11 358 -11Q211 -11 131 78Q51 167 51 338Q51 424 69 495.5Q87 567 125 618.5Q163 670 221.5 698.5Q280 727 360 727Q414 727 449 719Q468 766 530 766H724V446Q740 465 762 480Q783 493 811 503Q839 513 879 513Q926 513 958.5 497.5Q991 482 1011 454.5Q1031 427 1040 389.5Q1049 352 1049 308V0H946V303Q946 364 920.5 395Q895 426 839 426Q811 426 789.5 418Q768 410 753 401Q736 390 724 376V0H621V688H557Q513 688 513 647V609Q497 617 475 623Q454 629 427 633Q400 637 364 637Q308 637 269 615Q230 593 206 554Q182 515 171 460.5Q160 406 160 340Q160 79 364 79Q402 79 430.5 84Q459 89 477 96Q499 103 514 112Z" glyph-name="C_h" horiz-adv-x="1117" /><glyph d="M514 21Q499 12 477 5Q456 -2 427.5 -6.5Q399 -11 358 -11Q211 -11 131 78Q51 167 51 338Q51 424 69 495.5Q87 567 125 618.5Q163 670 221.5 698.5Q280 727 360 727Q414 727 449 719Q468 766 528 766H724V297H765L923 504H1033L852 268L1048 0H926L766 217H724V0H621V688H557Q513 688 513 647V609Q497 617 475 623Q454 629 427 633Q400 637 364 637Q308 637 269 615Q230 593 206 554Q182 515 171 460.5Q160 406 160 340Q160 79 364 79Q402 79 430.5 84Q459 89 477 96Q499 103 514 112Z" glyph-name="C_k" horiz-adv-x="1051" /><glyph d="M724 -8Q619 -8 619 116V688H557Q513 688 513 647V609Q497 617 475 623Q454 629 427 633Q400 637 364 637Q308 637 269 615Q230 593 206 554Q182 515 171 460.5Q160 406 160 340Q160 79 364 79Q402 79 430.5 84Q459 89 477 96Q499 103 514 112V21Q499 12 477 5Q456 -2 427.5 -6.5Q399 -11 358 -11Q211 -11 131 78Q51 167 51 338Q51 424 69 495.5Q87 567 125 618.5Q163 670 221.5 698.5Q280 727 360 727Q414 727 449 719Q468 766 528 766H721V139Q721 101 734 86Q747 71 779 71Q780 71 781 72H783V0Q776 -2 767 -4Q759 -6 748.5 -7Q738 -8 724 -8Z" glyph-name="C_l" horiz-adv-x="816" /><glyph d="M724 -8Q619 -8 619 116V332L538 291V374L619 415V688H557Q513 688 513 647V609Q497 617 475 623Q454 629 427 633Q400 637 364 637Q308 637 269 615Q230 593 206 554Q182 515 171 460.5Q160 406 160 340Q160 79 364 79Q402 79 430.5 84Q459 89 477 96Q499 103 514 112V21Q499 12 477 5Q456 -2 427.5 -6.5Q399 -11 358 -11Q211 -11 131 78Q51 167 51 338Q51 424 69 495.5Q87 567 125 618.5Q163 670 221.5 698.5Q280 727 360 727Q414 727 449 719Q468 766 528 766H721V466L809 510V427L721 383V139Q721 101 734 86Q747 71 779 71Q780 71 781 72H783V0Q776 -2 767 -4Q759 -6 748.5 -7Q738 -8 724 -8Z" glyph-name="C_lslash" horiz-adv-x="841" /><glyph d="M441 -11Q351 -11 279 13Q207 37 156 84.5Q105 132 77.5 203Q50 274 50 367Q50 442 68.5 508Q87 574 125 622.5Q163 671 221 699Q279 727 359 727Q400 727 428.5 723Q457 719 476 714Q498 708 512 700V609Q496 617 474 623Q453 629 426 633Q399 637 363 637Q307 637 268 615.5Q229 594 205 558Q181 522 170 474Q159 426 159 373Q159 214 243 142.5Q327 71 480 71H661Q726 71 761.5 89Q797 107 797 140Q797 166 776 183.5Q755 201 696 218Q666 227 638.5 238.5Q611 250 590 267.5Q569 285 556.5 309.5Q544 334 544 369Q544 438 597 475.5Q650 513 741 513Q770 513 792.5 510Q815 507 831 504Q850 500 864 495V414Q860 416 825 425Q790 434 740 434Q688 434 664.5 416.5Q641 399 641 373Q641 344 665 327.5Q689 311 737 298Q822 276 858.5 240.5Q895 205 895 148Q895 110 877.5 80.5Q860 51 828 30.5Q796 10 751 -0.5Q706 -11 651 -11Z" glyph-name="C_s" horiz-adv-x="932" /><glyph d="M441 -11Q351 -11 279 13Q207 37 156 84.5Q105 132 77.5 203Q50 274 50 367Q50 442 68.5 508Q87 574 125 622.5Q163 671 221 699Q279 727 359 727Q400 727 428.5 723Q457 719 476 714Q498 708 512 700V609Q496 617 474 623Q453 629 426 633Q399 637 363 637Q307 637 268 615.5Q229 594 205 558Q181 522 170 474Q159 426 159 373Q159 214 243 142.5Q327 71 480 71H661Q726 71 761.5 89Q797 107 797 140Q797 166 776 183.5Q755 201 696 218Q666 227 638.5 238.5Q611 250 590 267.5Q569 285 556.5 309.5Q544 334 544 369Q544 438 597 475.5Q650 513 741 513Q770 513 792.5 510Q815 507 831 504Q850 500 864 495V414Q860 416 825 425Q790 434 740 434Q688 434 664.5 416.5Q641 399 641 373Q641 344 665 327.5Q689 311 737 298Q822 276 858.5 240.5Q895 205 895 148Q895 110 877.5 80.5Q860 51 828 30.5Q796 10 751 -0.5Q706 -11 651 -11ZM547 722 586 769 715 663 841 769 882 722 737 580H692Z" glyph-name="C_scaron" horiz-adv-x="932" /><glyph d="M441 -11Q351 -11 279 13Q207 37 156 84.5Q105 132 77.5 203Q50 274 50 367Q50 442 68.5 508Q87 574 125 622.5Q163 671 221 699Q279 727 359 727Q400 727 428.5 723Q457 719 476 714Q498 708 512 700V609Q496 617 474 623Q453 629 426 633Q399 637 363 637Q307 637 268 615.5Q229 594 205 558Q181 522 170 474Q159 426 159 373Q159 214 243 142.5Q327 71 480 71H661Q726 71 761.5 89Q797 107 797 140Q797 166 776 183.5Q755 201 696 218Q666 227 638.5 238.5Q611 250 590 267.5Q569 285 556.5 309.5Q544 334 544 369Q544 438 597 475.5Q650 513 741 513Q770 513 792.5 510Q815 507 831 504Q850 500 864 495V414Q860 416 825 425Q790 434 740 434Q688 434 664.5 416.5Q641 399 641 373Q641 344 665 327.5Q689 311 737 298Q822 276 858.5 240.5Q895 205 895 148Q895 110 877.5 80.5Q860 51 828 30.5Q796 10 751 -0.5Q706 -11 651 -11ZM676 -280 713 -196Q687 -191 672 -174.5Q657 -158 657 -132Q657 -106 674 -85.5Q691 -65 723 -65Q755 -65 771 -85Q787 -105 787 -135Q787 -169 769.5 -210Q752 -251 726 -301Z" glyph-name="C_scommaaccent" horiz-adv-x="932" /><glyph d="M358 -11Q211 -11 131 78Q51 167 51 338Q51 424 69 495.5Q87 567 125 618.5Q163 670 221.5 698.5Q280 727 360 727Q401 727 429.5 723Q458 719 477 714Q499 708 513 700V609Q497 617 475 623Q454 629 427 633Q400 637 364 637Q308 637 269 615Q230 593 206 554Q182 515 171 460.5Q160 406 160 340Q160 79 364 79Q402 79 430.5 84Q459 89 477 96Q499 103 514 112V21Q499 12 477 5Q456 -2 427.5 -6.5Q399 -11 358 -11ZM261 840 477 946 514 859 287 778Z" glyph-name="Cacute" horiz-adv-x="557" unicode="&#262;" /><glyph d="M248 801 338 986 409 944 303 770ZM358 -11Q211 -11 131 78Q51 167 51 338Q51 424 69 495.5Q87 567 125 618.5Q163 670 221.5 698.5Q280 727 360 727Q401 727 429.5 723Q458 719 477 714Q499 708 513 700V609Q497 617 475 623Q454 629 427 633Q400 637 364 637Q308 637 269 615Q230 593 206 554Q182 515 171 460.5Q160 406 160 340Q160 79 364 79Q402 79 430.5 84Q459 89 477 96Q499 103 514 112V21Q499 12 477 5Q456 -2 427.5 -6.5Q399 -11 358 -11Z" glyph-name="Cacute.pl" horiz-adv-x="557" /><glyph d="M207 618 282 766 347 731 257 592ZM299 -9Q184 -9 115 59.5Q46 128 46 262Q46 328 61.5 382.5Q77 437 108.5 476Q140 515 188 537Q236 559 300 559Q332 559 355.5 555.5Q379 552 394 549Q411 544 423 538V457Q410 463 392 468Q376 472 355.5 475Q335 478 307 478Q264 478 234 462.5Q204 447 185 418.5Q166 390 157 350.5Q148 311 148 264Q148 72 306 72Q335 72 357 75.5Q379 79 394 84Q411 89 424 96V16Q412 9 394 4Q377 -2 354 -5.5Q331 -9 299 -9Z" glyph-name="Cacute.pl.sc" horiz-adv-x="465" /><glyph d="M213 650 388 732 421 659 237 598ZM299 -9Q184 -9 115 59.5Q46 128 46 262Q46 328 61.5 382.5Q77 437 108.5 476Q140 515 188 537Q236 559 300 559Q332 559 355.5 555.5Q379 552 394 549Q411 544 423 538V457Q410 463 392 468Q376 472 355.5 475Q335 478 307 478Q264 478 234 462.5Q204 447 185 418.5Q166 390 157 350.5Q148 311 148 264Q148 72 306 72Q335 72 357 75.5Q379 79 394 84Q411 89 424 96V16Q412 9 394 4Q377 -2 354 -5.5Q331 -9 299 -9Z" glyph-name="Cacute.sc" horiz-adv-x="465" /><glyph d="M260 840 476 946 513 859 286 778ZM357 -11Q209 -11 129.5 77.5Q50 166 50 335Q50 417 71.5 487Q93 557 137.5 608Q182 659 250 687.5Q318 716 410 716H644L778 167L913 719H999L1133 170L1268 716H1361L1179 -4H1083L949 534L813 -4H717L562 623H426Q355 623 304.5 602.5Q254 582 221.5 544Q189 506 174 453.5Q159 401 159 336Q159 79 363 79Q401 79 429.5 84Q458 89 477 96Q499 103 514 112V21Q499 12 476 5Q455 -2 426.5 -6.5Q398 -11 357 -11Z" glyph-name="Cacute_W" horiz-adv-x="1374" /><glyph d="M217 650 393 732 426 659 241 598ZM299 -9Q181 -9 113.5 59Q46 127 46 259Q46 322 64 375Q82 428 118 467Q154 506 209 528Q264 550 339 550H543L644 142L746 553H827L930 142L1031 550H1117L975 -3H881L779 391L676 -3H582L464 467H354Q299 467 260 452Q221 437 196 410Q171 383 159.5 344.5Q148 306 148 259Q148 168 187 120Q226 72 306 72Q335 72 357 75.5Q379 79 394 84Q411 89 424 96V16Q412 9 394 4Q377 -2 354 -5.5Q331 -9 299 -9Z" glyph-name="Cacute_W.sc" horiz-adv-x="1134" /><glyph d="M260 840 477 946 514 859 287 778ZM849 -8Q810 -8 780 5Q750 18 716 46L700 0H622V688H557Q513 688 513 647V609Q497 617 475 623Q454 629 427 633Q400 637 364 637Q308 637 269 615Q230 593 206 554Q182 515 171 460.5Q160 406 160 340Q160 79 364 79Q402 79 430.5 84Q459 89 477 96Q499 103 514 112V21Q499 12 477 5Q456 -2 427.5 -6.5Q399 -11 358 -11Q211 -11 131 78Q51 167 51 338Q51 424 69 495.5Q87 567 125 618.5Q163 670 221.5 698.5Q280 727 360 727Q414 727 449 719Q468 766 530 766H725V449Q738 467 758 481Q776 494 801 503.5Q826 513 863 513Q916 513 954.5 493.5Q993 474 1018 440Q1043 406 1055 360.5Q1067 315 1067 263Q1067 200 1052 150Q1037 100 1009 64.5Q981 29 940.5 10.5Q900 -8 849 -8ZM826 76Q898 76 929 127Q960 178 960 260Q960 338 929.5 382.5Q899 427 832 427Q805 427 785 418Q765 409 752 398Q736 385 725 368V109Q737 100 753 93Q767 86 785 81Q803 76 826 76Z" glyph-name="Cacute_b" horiz-adv-x="1113" /><glyph d="M260 840 477 946 514 859 287 778ZM514 21Q499 12 477 5Q456 -2 427.5 -6.5Q399 -11 358 -11Q211 -11 131 78Q51 167 51 338Q51 424 69 495.5Q87 567 125 618.5Q163 670 221.5 698.5Q280 727 360 727Q414 727 449 719Q468 766 528 766H724V297H765L923 504H1033L852 268L1048 0H926L766 217H724V0H621V688H557Q513 688 513 647V609Q497 617 475 623Q454 629 427 633Q400 637 364 637Q308 637 269 615Q230 593 206 554Q182 515 171 460.5Q160 406 160 340Q160 79 364 79Q402 79 430.5 84Q459 89 477 96Q499 103 514 112Z" glyph-name="Cacute_k" horiz-adv-x="1051" /><glyph d="M260 840 477 946 514 859 287 778ZM724 -8Q619 -8 619 116V688H557Q513 688 513 647V609Q497 617 475 623Q454 629 427 633Q400 637 364 637Q308 637 269 615Q230 593 206 554Q182 515 171 460.5Q160 406 160 340Q160 79 364 79Q402 79 430.5 84Q459 89 477 96Q499 103 514 112V21Q499 12 477 5Q456 -2 427.5 -6.5Q399 -11 358 -11Q211 -11 131 78Q51 167 51 338Q51 424 69 495.5Q87 567 125 618.5Q163 670 221.5 698.5Q280 727 360 727Q414 727 449 719Q468 766 528 766H721V139Q721 101 734 86.5Q747 72 778 71Q780 71 781 71.5Q782 72 783 72V0Q776 -2 767 -4Q759 -6 748.5 -7Q738 -8 724 -8Z" glyph-name="Cacute_l" horiz-adv-x="816" /><glyph d="M441 -11Q351 -11 279 13Q207 37 156 84.5Q105 132 77.5 203Q50 274 50 367Q50 442 68.5 508Q87 574 125 622.5Q163 671 221 699Q279 727 359 727Q400 727 428.5 723Q457 719 476 714Q498 708 512 700V609Q496 617 474 623Q453 629 426 633Q399 637 363 637Q307 637 268 615.5Q229 594 205 558Q181 522 170 474Q159 426 159 373Q159 214 243 142.5Q327 71 480 71H661Q726 71 761.5 89Q797 107 797 140Q797 166 776 183.5Q755 201 696 218Q666 227 638.5 238.5Q611 250 590 267.5Q569 285 556.5 309.5Q544 334 544 369Q544 438 597 475.5Q650 513 741 513Q770 513 792.5 510Q815 507 831 504Q850 500 864 495V414Q860 416 825 425Q790 434 740 434Q688 434 664.5 416.5Q641 399 641 373Q641 344 665 327.5Q689 311 737 298Q822 276 858.5 240.5Q895 205 895 148Q895 110 877.5 80.5Q860 51 828 30.5Q796 10 751 -0.5Q706 -11 651 -11ZM260 840 476 946 513 859 286 778Z" glyph-name="Cacute_s" horiz-adv-x="932" /><glyph d="M358 -11Q211 -11 131 78Q51 167 51 338Q51 424 69 495.5Q87 567 125 618.5Q163 670 221.5 698.5Q280 727 360 727Q401 727 429.5 723Q458 719 477 714Q499 708 513 700V609Q497 617 475 623Q454 629 427 633Q400 637 364 637Q308 637 269 615Q230 593 206 554Q182 515 171 460.5Q160 406 160 340Q160 79 364 79Q402 79 430.5 84Q459 89 477 96Q499 103 514 112V21Q499 12 477 5Q456 -2 427.5 -6.5Q399 -11 358 -11ZM168 896 201 945 340 859 477 945 512 896 370 778H308Z" glyph-name="Ccaron" horiz-adv-x="557" unicode="&#268;" /><glyph d="M139 690 169 731 280 665 391 731 421 690 307 598H252ZM299 -9Q184 -9 115 59.5Q46 128 46 262Q46 328 61.5 382.5Q77 437 108.5 476Q140 515 188 537Q236 559 300 559Q332 559 355.5 555.5Q379 552 394 549Q411 544 423 538V457Q410 463 392 468Q376 472 355.5 475Q335 478 307 478Q264 478 234 462.5Q204 447 185 418.5Q166 390 157 350.5Q148 311 148 264Q148 72 306 72Q335 72 357 75.5Q379 79 394 84Q411 89 424 96V16Q412 9 394 4Q377 -2 354 -5.5Q331 -9 299 -9Z" glyph-name="Ccaron.sc" horiz-adv-x="465" /><glyph d="M357 -11Q210 -11 130 76.5Q50 164 50 332Q50 415 72 484.5Q94 554 139 605Q184 656 252.5 684.5Q321 713 414 713H976V620H777V-3H673V620H427Q356 620 305.5 599.5Q255 579 222.5 541Q190 503 174.5 450Q159 397 159 332Q159 79 363 79Q401 79 429.5 84Q458 89 477 96Q499 103 514 112V21Q499 12 476 5Q455 -2 426.5 -6.5Q398 -11 357 -11ZM168 896 201 945 340 859 477 945 512 896 370 778H308Z" glyph-name="Ccaron_T" horiz-adv-x="991" /><glyph d="M141 690 171 731 283 665 393 731 423 690 309 598H254ZM300 -9Q184 -9 115 58Q46 125 46 258Q46 321 64 374.5Q82 428 119 466.5Q156 505 212 526.5Q268 548 344 548H803V464H646V-2H548V464H354Q247 464 198 407.5Q149 351 149 257Q149 166 188 119Q227 72 307 72Q336 72 357.5 75.5Q379 79 394 84Q411 89 424 96V16Q412 9 394 4Q378 -2 355 -5.5Q332 -9 300 -9Z" glyph-name="Ccaron_T.sc" horiz-adv-x="821" /><glyph d="M168 896 201 945 340 859 477 945 512 896 370 778H308ZM357 -11Q210 -11 130 77Q50 165 50 336Q50 419 72 488.5Q94 558 139 608.5Q184 659 252.5 687.5Q321 716 414 716H608L794 151L975 716H1076L835 -4H742L533 623H427Q356 623 305.5 602.5Q255 582 222.5 544.5Q190 507 174.5 454Q159 401 159 336Q159 79 363 79Q401 79 429.5 84Q458 89 477 96Q499 103 514 112V21Q499 12 476 5Q455 -2 426.5 -6.5Q398 -11 357 -11Z" glyph-name="Ccaron_V" horiz-adv-x="1086" /><glyph d="M142 690 172 731 284 665 395 731 425 690 311 598H256ZM300 -9Q184 -9 115 59Q46 127 46 261Q46 324 64 377Q82 430 119 468.5Q156 507 212 528.5Q268 550 344 550H512L655 128L793 550H887L698 -3H603L441 467H354Q247 467 198 410Q149 353 149 259Q149 167 188 119.5Q227 72 307 72Q336 72 357.5 75.5Q379 79 394 84Q411 89 424 96V16Q412 9 394 4Q378 -2 355 -5.5Q332 -9 300 -9Z" glyph-name="Ccaron_V.sc" horiz-adv-x="900" /><glyph d="M168 896 201 945 340 859 477 945 512 896 370 778H308ZM357 -11Q210 -11 130 77Q50 165 50 336Q50 418 72 487.5Q94 557 139 608Q184 659 252.5 687.5Q321 716 414 716H571L749 388L926 716H1027L797 291V0H693V291L512 624H428Q357 624 306 603.5Q255 583 222.5 545.5Q190 508 174.5 455Q159 402 159 337Q159 79 363 79Q401 79 429.5 84Q458 89 477 96Q499 103 514 112V21Q499 12 476 5Q455 -2 426.5 -6.5Q398 -11 357 -11Z" glyph-name="Ccaron_Y" horiz-adv-x="1036" /><glyph d="M141 690 171 731 282 665 393 731 423 690 309 598H254ZM299 -9Q184 -9 115 59Q46 127 46 260Q46 323 64 376Q82 429 119 467.5Q156 506 211.5 528Q267 550 343 550H480L615 308L750 550H843L660 223V0H563V223L424 468H355Q246 468 197 411.5Q148 355 148 261Q148 167 187.5 119.5Q227 72 306 72Q335 72 357 75.5Q379 79 394 84Q411 89 424 96V16Q412 9 394 4Q377 -2 354 -5.5Q331 -9 299 -9Z" glyph-name="Ccaron_Y.sc" horiz-adv-x="854" /><glyph d="M169 896 202 945 341 859 478 945 513 896 371 778H309ZM849 -8Q810 -8 780 5Q750 18 716 46L700 0H622V688H557Q513 688 513 647V609Q497 617 475 623Q454 629 427 633Q400 637 364 637Q308 637 269 615Q230 593 206 554Q182 515 171 460.5Q160 406 160 340Q160 79 364 79Q402 79 430.5 84Q459 89 477 96Q499 103 514 112V21Q499 12 477 5Q456 -2 427.5 -6.5Q399 -11 358 -11Q211 -11 131 78Q51 167 51 338Q51 424 69 495.5Q87 567 125 618.5Q163 670 221.5 698.5Q280 727 360 727Q414 727 449 719Q468 766 530 766H725V449Q738 467 758 481Q776 494 801 503.5Q826 513 863 513Q916 513 954.5 493.5Q993 474 1018 440Q1043 406 1055 360.5Q1067 315 1067 263Q1067 200 1052 150Q1037 100 1009 64.5Q981 29 940.5 10.5Q900 -8 849 -8ZM826 76Q898 76 929 127Q960 178 960 260Q960 338 929.5 382.5Q899 427 832 427Q805 427 785 418Q765 409 752 398Q736 385 725 368V109Q737 100 753 93Q767 86 785 81Q803 76 826 76Z" glyph-name="Ccaron_b" horiz-adv-x="1113" /><glyph d="M169 896 202 945 341 859 478 945 513 896 371 778H309ZM514 21Q499 12 477 5Q456 -2 427.5 -6.5Q399 -11 358 -11Q211 -11 131 78Q51 167 51 338Q51 424 69 495.5Q87 567 125 618.5Q163 670 221.5 698.5Q280 727 360 727Q414 727 449 719Q468 766 528 766H724V297H765L923 504H1033L852 268L1048 0H926L766 217H724V0H621V688H557Q513 688 513 647V609Q497 617 475 623Q454 629 427 633Q400 637 364 637Q308 637 269 615Q230 593 206 554Q182 515 171 460.5Q160 406 160 340Q160 79 364 79Q402 79 430.5 84Q459 89 477 96Q499 103 514 112Z" glyph-name="Ccaron_k" horiz-adv-x="1051" /><glyph d="M169 896 202 945 341 859 478 945 513 896 371 778H309ZM724 -8Q619 -8 619 116V688H557Q513 688 513 647V609Q497 617 475 623Q454 629 427 633Q400 637 364 637Q308 637 269 615Q230 593 206 554Q182 515 171 460.5Q160 406 160 340Q160 79 364 79Q402 79 430.5 84Q459 89 477 96Q499 103 514 112V21Q499 12 477 5Q456 -2 427.5 -6.5Q399 -11 358 -11Q211 -11 131 78Q51 167 51 338Q51 424 69 495.5Q87 567 125 618.5Q163 670 221.5 698.5Q280 727 360 727Q414 727 449 719Q468 766 528 766H721V139Q721 101 734 86.5Q747 72 777 71Q779 71 780.5 71.5Q782 72 783 72V0Q776 -2 767 -4Q759 -6 748.5 -7Q738 -8 724 -8Z" glyph-name="Ccaron_l" horiz-adv-x="816" /><glyph d="M169 896 202 945 341 859 478 945 513 896 371 778H309ZM799 560 835 644Q809 649 794 665.5Q779 682 779 708Q779 734 796 754.5Q813 775 845 775Q877 775 893.5 755Q910 735 910 705Q910 671 892.5 630Q875 589 849 539ZM724 -8Q619 -8 619 116V688H557Q513 688 513 647V609Q497 617 475 623Q454 629 427 633Q400 637 364 637Q308 637 269 615Q230 593 206 554Q182 515 171 460.5Q160 406 160 340Q160 79 364 79Q402 79 430.5 84Q459 89 477 96Q499 103 514 112V21Q499 12 477 5Q456 -2 427.5 -6.5Q399 -11 358 -11Q211 -11 131 78Q51 167 51 338Q51 424 69 495.5Q87 567 125 618.5Q163 670 221.5 698.5Q280 727 360 727Q414 727 449 719Q468 766 528 766H721V139Q721 101 734 86Q747 71 779 71Q780 71 781 72H783V0Q776 -2 767 -4Q759 -6 748.5 -7Q738 -8 724 -8Z" glyph-name="Ccaron_lcaron" horiz-adv-x="857" /><glyph d="M441 -11Q351 -11 279 13Q207 37 156 84.5Q105 132 77.5 203Q50 274 50 367Q50 442 68.5 508Q87 574 125 622.5Q163 671 221 699Q279 727 359 727Q400 727 428.5 723Q457 719 476 714Q498 708 512 700V609Q496 617 474 623Q453 629 426 633Q399 637 363 637Q307 637 268 615.5Q229 594 205 558Q181 522 170 474Q159 426 159 373Q159 214 243 142.5Q327 71 480 71H661Q726 71 761.5 89Q797 107 797 140Q797 166 776 183.5Q755 201 696 218Q666 227 638.5 238.5Q611 250 590 267.5Q569 285 556.5 309.5Q544 334 544 369Q544 438 597 475.5Q650 513 741 513Q770 513 792.5 510Q815 507 831 504Q850 500 864 495V414Q860 416 825 425Q790 434 740 434Q688 434 664.5 416.5Q641 399 641 373Q641 344 665 327.5Q689 311 737 298Q822 276 858.5 240.5Q895 205 895 148Q895 110 877.5 80.5Q860 51 828 30.5Q796 10 751 -0.5Q706 -11 651 -11ZM168 896 201 945 340 859 477 945 512 896 370 778H308Z" glyph-name="Ccaron_s" horiz-adv-x="932" /><glyph d="M441 -11Q351 -11 279 13Q207 37 156 84.5Q105 132 77.5 203Q50 274 50 367Q50 442 68.5 508Q87 574 125 622.5Q163 671 221 699Q279 727 359 727Q400 727 428.5 723Q457 719 476 714Q498 708 512 700V609Q496 617 474 623Q453 629 426 633Q399 637 363 637Q307 637 268 615.5Q229 594 205 558Q181 522 170 474Q159 426 159 373Q159 214 243 142.5Q327 71 480 71H661Q726 71 761.5 89Q797 107 797 140Q797 166 776 183.5Q755 201 696 218Q666 227 638.5 238.5Q611 250 590 267.5Q569 285 556.5 309.5Q544 334 544 369Q544 438 597 475.5Q650 513 741 513Q770 513 792.5 510Q815 507 831 504Q850 500 864 495V414Q860 416 825 425Q790 434 740 434Q688 434 664.5 416.5Q641 399 641 373Q641 344 665 327.5Q689 311 737 298Q822 276 858.5 240.5Q895 205 895 148Q895 110 877.5 80.5Q860 51 828 30.5Q796 10 751 -0.5Q706 -11 651 -11ZM547 722 586 769 715 663 841 769 882 722 737 580H692ZM168 896 201 945 340 859 477 945 512 896 370 778H308Z" glyph-name="Ccaron_scaron" horiz-adv-x="932" /><glyph d="M464 -133Q464 -162 449 -184Q434 -206 407.5 -220.5Q381 -235 346.5 -240Q312 -245 273 -240V-183Q317 -185 343 -173.5Q369 -162 369 -139Q369 -122 348.5 -111.5Q328 -101 278 -103L288 -4Q173 16 112 102.5Q51 189 51 338Q51 424 69 495.5Q87 567 125 618.5Q163 670 221.5 698.5Q280 727 360 727Q401 727 429.5 723Q458 719 477 714Q499 708 513 700V609Q497 617 475 623Q454 629 427 633Q400 637 364 637Q308 637 269 615Q230 593 206 554Q182 515 171 460.5Q160 406 160 340Q160 79 364 79Q402 79 430.5 84Q459 89 477 96Q499 103 514 112V21Q499 12 477 5Q457 -1 429.5 -6Q402 -11 362 -11L359 -45Q413 -49 438.5 -71.5Q464 -94 464 -133Z" glyph-name="Ccedilla" horiz-adv-x="557" unicode="&#199;" /><glyph d="M383 -101Q383 -124 370.5 -141Q358 -158 336.5 -168.5Q315 -179 286 -183Q257 -187 225 -183V-138Q259 -140 279 -131.5Q299 -123 299 -106Q299 -78 240 -78H229L237 -3Q147 14 96.5 80.5Q46 147 46 262Q46 328 61.5 382.5Q77 437 108.5 476Q140 515 188 536.5Q236 558 300 558Q332 558 355.5 555Q379 552 394 548Q411 544 423 538V457Q410 463 392 468Q376 472 355.5 475Q335 478 307 478Q264 478 234 462.5Q204 447 185 418.5Q166 390 157 350.5Q148 311 148 264Q148 72 306 72Q335 72 357 75.5Q379 79 394 84Q411 89 424 96V15Q412 9 395 3Q379 -1 357 -5Q335 -9 304 -9L301 -34Q344 -37 363.5 -54.5Q383 -72 383 -101Z" glyph-name="Ccedilla.sc" horiz-adv-x="465" /><glyph d="M463 -133Q463 -162 448 -184Q433 -206 406.5 -220.5Q380 -235 345.5 -240Q311 -245 272 -240V-183Q316 -185 342 -173.5Q368 -162 368 -139Q368 -122 348 -111.5Q328 -101 277 -103L286 -4Q171 16 110.5 101Q50 186 50 332Q50 415 72 484.5Q94 554 139 605Q184 656 252.5 684.5Q321 713 414 713H976V620H777V-3H673V620H427Q357 620 306 599.5Q255 579 222.5 541Q190 503 174.5 450Q159 397 159 332Q159 79 363 79Q401 79 429.5 84Q458 89 477 96Q499 103 514 112V21Q499 12 477 5Q457 -1 429 -6Q401 -11 362 -11L359 -45Q463 -52 463 -133Z" glyph-name="Ccedilla_T" horiz-adv-x="991" /><glyph d="M384 -101Q384 -124 371.5 -141Q359 -158 337 -168.5Q315 -179 286.5 -183Q258 -187 225 -183V-138Q259 -140 279.5 -131.5Q300 -123 300 -106Q300 -78 240 -78H229L237 -3Q147 13 96.5 78.5Q46 144 46 258Q46 321 64 374.5Q82 428 119 466.5Q156 505 212 526.5Q268 548 344 548H803V464H646V-2H548V464H354Q247 464 198 407.5Q149 351 149 257Q149 166 188 119Q227 72 307 72Q336 72 357.5 75.5Q379 79 394 84Q411 89 424 96V16Q412 9 395 4Q379 -1 357.5 -5Q336 -9 305 -9L302 -34Q384 -40 384 -101Z" glyph-name="Ccedilla_T.sc" horiz-adv-x="821" /><glyph d="M463 -133Q463 -162 448 -184Q433 -206 406.5 -220.5Q380 -235 345.5 -240Q311 -245 272 -240V-183Q316 -185 342 -173.5Q368 -162 368 -139Q368 -122 348 -111.5Q328 -101 277 -103L286 -4Q171 16 110.5 102Q50 188 50 336Q50 418 72 487.5Q94 557 139 608Q184 659 252.5 687.5Q321 716 414 716H571L749 388L926 716H1027L797 291V0H693V291L512 624H428Q357 624 306 603.5Q255 583 222.5 545.5Q190 508 174.5 455Q159 402 159 337Q159 79 363 79Q401 79 429.5 84Q458 89 477 96Q499 103 514 112V21Q499 12 477 5Q457 -1 429 -6Q401 -11 362 -11L359 -45Q463 -52 463 -133Z" glyph-name="Ccedilla_Y" horiz-adv-x="1036" /><glyph d="M383 -101Q383 -124 370.5 -141Q358 -158 336.5 -168.5Q315 -179 286 -183Q257 -187 225 -183V-138Q259 -140 279 -131.5Q299 -123 299 -106Q299 -78 240 -78H229L237 -3Q147 14 96.5 79.5Q46 145 46 260Q46 323 64 376Q82 429 119 467.5Q156 506 211.5 528Q267 550 343 550H480L615 308L750 550H843L660 223V0H563V223L424 468H355Q246 468 197 411.5Q148 355 148 261Q148 167 187.5 119.5Q227 72 306 72Q335 72 357 75.5Q379 79 394 84Q411 89 424 96V16Q412 9 395 4Q379 -1 357 -5Q335 -9 304 -9L301 -34Q344 -37 363.5 -54.5Q383 -72 383 -101Z" glyph-name="Ccedilla_Y.sc" horiz-adv-x="854" /><glyph d="M826 76Q898 76 929 127Q960 178 960 260Q960 338 929.5 382.5Q899 427 832 427Q805 427 785 418Q765 409 752 398Q736 385 725 368V109Q737 100 753 93Q767 86 785 81Q803 76 826 76ZM464 -133Q464 -162 449 -184Q434 -206 407.5 -220.5Q381 -235 346.5 -240Q312 -245 273 -240V-183Q317 -185 343 -173.5Q369 -162 369 -139Q369 -122 348.5 -111.5Q328 -101 278 -103L288 -4Q173 16 112 102.5Q51 189 51 338Q51 424 69 495.5Q87 567 125 618.5Q163 670 221.5 698.5Q280 727 360 727Q414 727 449 719Q468 766 530 766H725V449Q738 467 758 481Q776 494 801 503.5Q826 513 863 513Q916 513 954.5 493.5Q993 474 1018 440Q1043 406 1055 360.5Q1067 315 1067 263Q1067 200 1052 150Q1037 100 1009 64.5Q981 29 940.5 10.5Q900 -8 849 -8Q810 -8 780 5Q750 18 716 46L700 0H622V688H557Q513 688 513 647V609Q497 617 475 623Q454 629 427 633Q400 637 364 637Q308 637 269 615Q230 593 206 554Q182 515 171 460.5Q160 406 160 340Q160 79 364 79Q402 79 430.5 84Q459 89 477 96Q499 103 514 112V21Q499 12 477 5Q457 -1 429.5 -6Q402 -11 362 -11L359 -45Q413 -49 438.5 -71.5Q464 -94 464 -133Z" glyph-name="Ccedilla_b" horiz-adv-x="1113" /><glyph d="M464 -133Q464 -162 449 -184Q434 -206 407.5 -220.5Q381 -235 346.5 -240Q312 -245 273 -240V-183Q317 -185 343 -173.5Q369 -162 369 -139Q369 -122 348.5 -111.5Q328 -101 278 -103L288 -4Q173 16 112 102.5Q51 189 51 338Q51 424 69 495.5Q87 567 125 618.5Q163 670 221.5 698.5Q280 727 360 727Q414 727 449 719Q468 766 530 766H724V446Q740 465 762 480Q783 493 811 503Q839 513 879 513Q926 513 958.5 497.5Q991 482 1011 454.5Q1031 427 1040 389.5Q1049 352 1049 308V0H946V303Q946 364 920.5 395Q895 426 839 426Q811 426 789.5 418Q768 410 753 401Q736 390 724 376V0H621V688H557Q513 688 513 647V609Q497 617 475 623Q454 629 427 633Q400 637 364 637Q308 637 269 615Q230 593 206 554Q182 515 171 460.5Q160 406 160 340Q160 79 364 79Q402 79 430.5 84Q459 89 477 96Q499 103 514 112V21Q499 12 477 5Q457 -1 429.5 -6Q402 -11 362 -11L359 -45Q413 -49 438.5 -71.5Q464 -94 464 -133Z" glyph-name="Ccedilla_h" horiz-adv-x="1117" /><glyph d="M464 -133Q464 -162 449 -184Q434 -206 407.5 -220.5Q381 -235 346.5 -240Q312 -245 273 -240V-183Q317 -185 343 -173.5Q369 -162 369 -139Q369 -122 348.5 -111.5Q328 -101 278 -103L288 -4Q173 16 112 102.5Q51 189 51 338Q51 424 69 495.5Q87 567 125 618.5Q163 670 221.5 698.5Q280 727 360 727Q414 727 449 719Q468 766 528 766H724V297H765L923 504H1033L852 268L1048 0H926L766 217H724V0H621V688H557Q513 688 513 647V609Q497 617 475 623Q454 629 427 633Q400 637 364 637Q308 637 269 615Q230 593 206 554Q182 515 171 460.5Q160 406 160 340Q160 79 364 79Q402 79 430.5 84Q459 89 477 96Q499 103 514 112V21Q499 12 477 5Q457 -1 429.5 -6Q402 -11 362 -11L359 -45Q413 -49 438.5 -71.5Q464 -94 464 -133Z" glyph-name="Ccedilla_k" horiz-adv-x="1051" /><glyph d="M464 -133Q464 -162 449 -184Q434 -206 407.5 -220.5Q381 -235 346.5 -240Q312 -245 273 -240V-183Q317 -185 343 -173.5Q369 -162 369 -139Q369 -122 348.5 -111.5Q328 -101 278 -103L288 -4Q173 16 112 102.5Q51 189 51 338Q51 424 69 495.5Q87 567 125 618.5Q163 670 221.5 698.5Q280 727 360 727Q414 727 449 719Q468 766 528 766H721V139Q721 101 734 86.5Q747 72 778 71Q780 71 781 71.5Q782 72 783 72V0Q776 -2 767 -4Q759 -6 748.5 -7Q738 -8 724 -8Q619 -8 619 116V688H557Q513 688 513 647V609Q497 617 475 623Q454 629 427 633Q400 637 364 637Q308 637 269 615Q230 593 206 554Q182 515 171 460.5Q160 406 160 340Q160 79 364 79Q402 79 430.5 84Q459 89 477 96Q499 103 514 112V21Q499 12 477 5Q457 -1 429.5 -6Q402 -11 362 -11L359 -45Q413 -49 438.5 -71.5Q464 -94 464 -133Z" glyph-name="Ccedilla_l" horiz-adv-x="816" /><glyph d="M463 -133Q463 -162 448 -184Q433 -206 406.5 -220Q380 -234 345.5 -239Q311 -244 272 -239V-183Q316 -185 342 -173.5Q368 -162 368 -139Q368 -121 348 -111Q328 -101 277 -102L288 10Q176 45 113 134Q50 223 50 367Q50 442 68.5 508Q87 574 125 622.5Q163 671 221 699Q279 727 359 727Q400 727 428.5 723Q457 719 476 714Q498 708 512 700V609Q496 617 474 623Q453 629 426 633Q399 637 363 637Q307 637 268 615.5Q229 594 205 558Q181 522 170 474Q159 426 159 373Q159 214 243 142.5Q327 71 480 71H661Q726 71 761.5 89Q797 107 797 140Q797 166 776 183.5Q755 201 696 218Q666 227 638.5 238.5Q611 250 590 267.5Q569 285 556.5 309.5Q544 334 544 369Q544 438 597 475.5Q650 513 741 513Q770 513 792.5 510Q815 507 831 504Q850 500 864 495V414Q860 416 825 425Q790 434 740 434Q688 434 664.5 416.5Q641 399 641 373Q641 344 665 327.5Q689 311 737 298Q822 276 858.5 240.5Q895 205 895 148Q895 110 877.5 80.5Q860 51 828 30.5Q796 10 751 -0.5Q706 -11 651 -11H444Q419 -11 399.5 -9.5Q380 -8 362 -5L359 -44Q463 -51 463 -133Z" glyph-name="Ccedilla_s" horiz-adv-x="932" /><glyph d="M358 -11Q211 -11 131 78Q51 167 51 338Q51 424 69 495.5Q87 567 125 618.5Q163 670 221.5 698.5Q280 727 360 727Q401 727 429.5 723Q458 719 477 714Q499 708 513 700V609Q497 617 475 623Q454 629 427 633Q400 637 364 637Q308 637 269 615Q230 593 206 554Q182 515 171 460.5Q160 406 160 340Q160 79 364 79Q402 79 430.5 84Q459 89 477 96Q499 103 514 112V21Q499 12 477 5Q456 -2 427.5 -6.5Q399 -11 358 -11ZM166 826 307 945H368L510 826L475 778L338 864L199 778Z" glyph-name="Ccircumflex" horiz-adv-x="557" unicode="&#264;" /><glyph d="M138 638 252 731H307L420 638L390 598L280 664L168 598ZM299 -9Q184 -9 115 59.5Q46 128 46 262Q46 328 61.5 382.5Q77 437 108.5 476Q140 515 188 537Q236 559 300 559Q332 559 355.5 555.5Q379 552 394 549Q411 544 423 538V457Q410 463 392 468Q376 472 355.5 475Q335 478 307 478Q264 478 234 462.5Q204 447 185 418.5Q166 390 157 350.5Q148 311 148 264Q148 72 306 72Q335 72 357 75.5Q379 79 394 84Q411 89 424 96V16Q412 9 394 4Q377 -2 354 -5.5Q331 -9 299 -9Z" glyph-name="Ccircumflex.sc" horiz-adv-x="465" /><glyph d="M358 -11Q211 -11 131 78Q51 167 51 338Q51 424 69 495.5Q87 567 125 618.5Q163 670 221.5 698.5Q280 727 360 727Q401 727 429.5 723Q458 719 477 714Q499 708 513 700V609Q497 617 475 623Q454 629 427 633Q400 637 364 637Q308 637 269 615Q230 593 206 554Q182 515 171 460.5Q160 406 160 340Q160 79 364 79Q402 79 430.5 84Q459 89 477 96Q499 103 514 112V21Q499 12 477 5Q456 -2 427.5 -6.5Q399 -11 358 -11ZM327 801Q298 801 280.5 819.5Q263 838 263 867Q263 896 281 914Q299 932 328 932Q359 932 377 914Q395 896 395 867Q395 838 377 819.5Q359 801 327 801Z" glyph-name="Cdotaccent" horiz-adv-x="557" unicode="&#266;" /><glyph d="M272 615Q245 615 230 630Q215 645 215 668Q215 691 230 706Q245 721 272 721Q300 721 314.5 706Q329 691 329 669Q329 646 314 630.5Q299 615 272 615ZM299 -9Q184 -9 115 59.5Q46 128 46 262Q46 328 61.5 382.5Q77 437 108.5 476Q140 515 188 537Q236 559 300 559Q332 559 355.5 555.5Q379 552 394 549Q411 544 423 538V457Q410 463 392 468Q376 472 355.5 475Q335 478 307 478Q264 478 234 462.5Q204 447 185 418.5Q166 390 157 350.5Q148 311 148 264Q148 72 306 72Q335 72 357 75.5Q379 79 394 84Q411 89 424 96V16Q412 9 394 4Q377 -2 354 -5.5Q331 -9 299 -9Z" glyph-name="Cdotaccent.sc" horiz-adv-x="465" /><glyph d="M357 -11Q210 -11 130 76.5Q50 164 50 332Q50 415 72 484.5Q94 554 139 605Q184 656 252.5 684.5Q321 713 414 713H976V620H777V-3H673V620H427Q356 620 305.5 599.5Q255 579 222.5 541Q190 503 174.5 450Q159 397 159 332Q159 79 363 79Q401 79 429.5 84Q458 89 477 96Q499 103 514 112V21Q499 12 476 5Q455 -2 426.5 -6.5Q398 -11 357 -11ZM326 801Q297 801 279.5 819.5Q262 838 262 867Q262 896 280 914Q298 932 327 932Q358 932 376 914Q394 896 394 867Q394 838 376 819.5Q358 801 326 801Z" glyph-name="Cdotaccent_T" horiz-adv-x="991" /><glyph d="M272 615Q245 615 230.5 630Q216 645 216 668Q216 691 230.5 706Q245 721 272 721Q300 721 315 706Q330 691 330 669Q330 646 314.5 630.5Q299 615 272 615ZM300 -9Q184 -9 115 58Q46 125 46 258Q46 321 64 374.5Q82 428 119 466.5Q156 505 212 526.5Q268 548 344 548H803V464H646V-2H548V464H354Q247 464 198 407.5Q149 351 149 257Q149 166 188 119Q227 72 307 72Q336 72 357.5 75.5Q379 79 394 84Q411 89 424 96V16Q412 9 394 4Q378 -2 355 -5.5Q332 -9 300 -9Z" glyph-name="Cdotaccent_T.sc" horiz-adv-x="821" /><glyph d="M327 801Q298 801 280 819.5Q262 838 262 867Q262 896 280 914Q298 932 328 932Q358 932 376 914Q394 896 394 867Q394 838 376 819.5Q358 801 327 801ZM514 21Q499 12 477 5Q456 -2 427.5 -6.5Q399 -11 358 -11Q211 -11 131 78Q51 167 51 338Q51 424 69 495.5Q87 567 125 618.5Q163 670 221.5 698.5Q280 727 360 727Q414 727 449 719Q468 766 528 766H724V297H765L923 504H1033L852 268L1048 0H926L766 217H724V0H621V688H557Q513 688 513 647V609Q497 617 475 623Q454 629 427 633Q400 637 364 637Q308 637 269 615Q230 593 206 554Q182 515 171 460.5Q160 406 160 340Q160 79 364 79Q402 79 430.5 84Q459 89 477 96Q499 103 514 112Z" glyph-name="Cdotaccent_k" horiz-adv-x="1051" /><glyph d="M327 801Q298 801 280 819.5Q262 838 262 867Q262 896 280 914Q298 932 328 932Q358 932 376 914Q394 896 394 867Q394 838 376 819.5Q358 801 327 801ZM724 -8Q619 -8 619 116V688H557Q513 688 513 647V609Q497 617 475 623Q454 629 427 633Q400 637 364 637Q308 637 269 615Q230 593 206 554Q182 515 171 460.5Q160 406 160 340Q160 79 364 79Q402 79 430.5 84Q459 89 477 96Q499 103 514 112V21Q499 12 477 5Q456 -2 427.5 -6.5Q399 -11 358 -11Q211 -11 131 78Q51 167 51 338Q51 424 69 495.5Q87 567 125 618.5Q163 670 221.5 698.5Q280 727 360 727Q414 727 449 719Q468 766 528 766H721V139Q721 101 734 86.5Q747 72 776 71Q779 71 780.5 71.5Q782 72 783 72V0Q776 -2 767 -4Q759 -6 748.5 -7Q738 -8 724 -8Z" glyph-name="Cdotaccent_l" horiz-adv-x="816" /><glyph d="M86 716H288Q449 716 533.5 624Q618 532 618 358Q618 184 533.5 92Q449 0 288 0H86ZM290 93Q391 93 450.5 156.5Q510 220 510 358Q510 427 494.5 477.5Q479 528 450 560Q421 592 380.5 607.5Q340 623 290 623H191V93Z" glyph-name="D" horiz-adv-x="669" unicode="D" /><glyph d="M76 550H243Q377 550 444.5 477.5Q512 405 512 275Q512 146 444.5 73Q377 0 243 0H76ZM245 83Q321 83 366 129Q411 175 411 275Q411 375 366 421Q321 467 245 467H174V83Z" glyph-name="D.sc" horiz-adv-x="558" /><glyph d="M86 716H289Q382 716 455 680.5Q528 645 569 569Q603 647 670 687Q737 727 829 727Q870 727 898.5 723Q927 719 946 714Q968 708 982 700V609Q966 617 943 623Q923 629 896 633Q869 637 832 637Q777 637 738 615.5Q699 594 674.5 554.5Q650 515 639 460.5Q628 406 628 340Q628 267 643.5 217Q659 167 686 136Q713 105 750.5 92Q788 79 832 79Q871 79 899 84Q927 89 946 96Q968 103 983 112V21Q968 12 946 5Q925 -2 896.5 -6.5Q868 -11 827 -11Q733 -11 666.5 26Q600 63 565 137Q520 64 446 32Q372 0 289 0H86ZM291 93Q341 93 383 108.5Q425 124 455 156.5Q485 189 502 239Q519 289 519 358Q519 427 502 477.5Q485 528 455 560Q425 592 383 607.5Q341 623 291 623H190V93Z" glyph-name="D_C" horiz-adv-x="1025" /><glyph d="M76 550H243Q317 550 375 524Q433 498 466 443Q495 500 548 529.5Q601 559 673 559Q705 559 728 555.5Q751 552 766 549Q783 544 795 538V457Q782 463 765 468Q749 472 728 475Q707 478 679 478Q636 478 606 462.5Q576 447 557 418.5Q538 390 529.5 350.5Q521 311 521 264Q521 211 532.5 174.5Q544 138 565 115Q586 92 615 82Q644 72 679 72Q708 72 730 75.5Q752 79 767 84Q785 89 797 96V16Q785 9 766 4Q750 -2 726.5 -5.5Q703 -9 671 -9Q599 -9 546 18.5Q493 46 463 100Q427 47 369 23.5Q311 0 243 0H76ZM245 83Q322 83 370.5 130.5Q419 178 419 275Q419 373 370.5 420Q322 467 245 467H174V83Z" glyph-name="D_C.sc" horiz-adv-x="838" /><glyph d="M86 716H289Q382 716 455 680.5Q528 645 569 569Q603 647 670 687Q737 727 829 727Q870 727 898.5 723Q927 719 946 714Q968 708 982 700V609Q966 617 943 623Q923 629 896 633Q869 637 832 637Q777 637 738 615.5Q699 594 674.5 554.5Q650 515 639 460.5Q628 406 628 340Q628 267 643.5 217Q659 167 686 136Q713 105 750.5 92Q788 79 832 79Q871 79 899 84Q927 89 946 96Q968 103 983 112V21Q968 12 946 5Q925 -2 896.5 -6.5Q868 -11 827 -11Q733 -11 666.5 26Q600 63 565 137Q520 64 446 32Q372 0 289 0H86ZM291 93Q341 93 383 108.5Q425 124 455 156.5Q485 189 502 239Q519 289 519 358Q519 427 502 477.5Q485 528 455 560Q425 592 383 607.5Q341 623 291 623H190V93ZM636 896 669 945 808 859 945 945 980 896 838 778H776Z" glyph-name="D_Ccaron" horiz-adv-x="1025" /><glyph d="M511 690 541 731 653 665 764 731 794 690 680 598H625ZM76 550H243Q317 550 375 524Q433 498 466 443Q495 500 548 529.5Q601 559 673 559Q705 559 728 555.5Q751 552 766 549Q783 544 795 538V457Q782 463 765 468Q749 472 728 475Q707 478 679 478Q636 478 606 462.5Q576 447 557 418.5Q538 390 529.5 350.5Q521 311 521 264Q521 211 532.5 174.5Q544 138 565 115Q586 92 615 82Q644 72 679 72Q708 72 730 75.5Q752 79 767 84Q785 89 797 96V16Q785 9 766 4Q750 -2 726.5 -5.5Q703 -9 671 -9Q599 -9 546 18.5Q493 46 463 100Q427 47 369 23.5Q311 0 243 0H76ZM245 83Q322 83 370.5 130.5Q419 178 419 275Q419 373 370.5 420Q322 467 245 467H174V83Z" glyph-name="D_Ccaron.sc" horiz-adv-x="838" /><glyph d="M291 93Q341 93 383 108.5Q425 124 455 156.5Q485 189 502 239Q519 289 519 358Q519 427 502 477.5Q485 528 455 560Q425 592 383 607.5Q341 623 291 623H190V93ZM933 -133Q933 -162 917.5 -184Q902 -206 876 -220.5Q850 -235 815 -240Q780 -245 741 -240V-183Q786 -185 811.5 -173.5Q837 -162 837 -139Q837 -122 817 -111.5Q797 -101 746 -103L756 -4Q621 19 565 137Q520 64 446 32Q372 0 289 0H86V716H289Q382 716 455 680.5Q528 645 569 569Q603 647 670 687Q737 727 829 727Q870 727 898.5 723Q927 719 946 714Q968 708 982 700V609Q966 617 943 623Q923 629 896 633Q869 637 832 637Q777 637 738 615.5Q699 594 674.5 554.5Q650 515 639 460.5Q628 406 628 340Q628 267 643.5 217Q659 167 686 136Q713 105 750.5 92Q788 79 832 79Q871 79 899 84Q927 89 946 96Q968 103 983 112V21Q968 12 946 5Q926 -1 898.5 -6Q871 -11 831 -11L828 -45Q882 -49 907.5 -71.5Q933 -94 933 -133Z" glyph-name="D_Ccedilla" horiz-adv-x="1025" /><glyph d="M245 83Q322 83 370.5 130.5Q419 178 419 275Q419 373 370.5 420Q322 467 245 467H174V83ZM756 -102Q756 -124 743.5 -141Q731 -158 709.5 -168.5Q688 -179 659 -183Q630 -187 598 -183V-138Q631 -140 651.5 -131.5Q672 -123 672 -106Q672 -79 613 -78H602L610 -2Q508 16 463 100Q427 47 369 23.5Q311 0 243 0H76V550H243Q317 550 375 524Q433 498 466 443Q495 500 548 529.5Q601 559 673 559Q705 559 728 555.5Q751 552 766 549Q783 544 795 538V457Q782 463 765 468Q749 472 728 475Q707 478 679 478Q636 478 606 462.5Q576 447 557 418.5Q538 390 529.5 350.5Q521 311 521 264Q521 211 532.5 174.5Q544 138 565 115Q586 92 615 82Q644 72 679 72Q708 72 730 75.5Q752 79 767 84Q785 89 797 96V16Q785 9 767 4Q751 -1 729.5 -5Q708 -9 677 -9L674 -34Q756 -40 756 -102Z" glyph-name="D_Ccedilla.sc" horiz-adv-x="838" /><glyph d="M86 716H289Q383 716 456.5 680Q530 644 572 566Q592 608 622.5 638Q653 668 690.5 688Q728 708 771 717.5Q814 727 860 727Q903 727 935 722.5Q967 718 989 712Q1014 705 1032 697V609Q1011 617 985 623Q962 628 932.5 632Q903 636 866 636Q801 636 755.5 616Q710 596 681 559.5Q652 523 638.5 471.5Q625 420 625 357Q625 293 639.5 241.5Q654 190 683.5 154Q713 118 758.5 98.5Q804 79 867 79Q910 79 948 87V311H793V401H1044V16Q1021 8 993 3Q968 -3 937.5 -7Q907 -11 870 -11Q761 -11 683.5 30Q606 71 569 150Q524 70 450 35Q376 0 289 0H86ZM291 93Q341 93 383 108.5Q425 124 455 156.5Q485 189 502 239Q519 289 519 358Q519 427 502 477.5Q485 528 455 560Q425 592 383 607.5Q341 623 291 623H190V93Z" glyph-name="D_G" horiz-adv-x="1106" /><glyph d="M76 550H243Q318 550 376.5 523.5Q435 497 469 441Q502 501 564 530Q626 559 701 559Q735 559 761.5 555.5Q788 552 806 548Q827 542 842 536V457Q825 463 804 468Q785 472 761.5 475Q738 478 709 478Q609 478 564 422Q519 366 519 272Q519 178 563.5 125Q608 72 705 72Q736 72 763 77V231H647V311H851V12Q832 6 810 1Q789 -3 763.5 -6.5Q738 -10 708 -10Q621 -10 559 20.5Q497 51 465 108Q430 51 371.5 25.5Q313 0 243 0H76ZM245 83Q322 83 370.5 130.5Q419 178 419 275Q419 373 370.5 420Q322 467 245 467H174V83Z" glyph-name="D_G.sc" horiz-adv-x="908" /><glyph d="M820 801Q791 801 773.5 819.5Q756 838 756 867Q756 896 774 914Q792 932 821 932Q852 932 870 914Q888 896 888 867Q888 838 870 819.5Q852 801 820 801ZM86 716H289Q383 716 456.5 680Q530 644 572 566Q592 608 622.5 638Q653 668 690.5 688Q728 708 771 717.5Q814 727 860 727Q903 727 935 722.5Q967 718 989 712Q1014 705 1032 697V609Q1011 617 985 623Q962 628 932.5 632Q903 636 866 636Q801 636 755.5 616Q710 596 681 559.5Q652 523 638.5 471.5Q625 420 625 357Q625 293 639.5 241.5Q654 190 683.5 154Q713 118 758.5 98.5Q804 79 867 79Q910 79 948 87V311H793V401H1044V16Q1021 8 993 3Q968 -3 937.5 -7Q907 -11 870 -11Q761 -11 683.5 30Q606 71 569 150Q524 70 450 35Q376 0 289 0H86ZM291 93Q341 93 383 108.5Q425 124 455 156.5Q485 189 502 239Q519 289 519 358Q519 427 502 477.5Q485 528 455 560Q425 592 383 607.5Q341 623 291 623H190V93Z" glyph-name="D_Gdotaccent" horiz-adv-x="1106" /><glyph d="M669 615Q643 615 628 630Q613 645 613 668Q613 691 628 706Q643 721 670 721Q698 721 712.5 706Q727 691 727 669Q727 646 712 630.5Q697 615 669 615ZM76 550H243Q318 550 376.5 523.5Q435 497 469 441Q502 501 564 530Q626 559 701 559Q735 559 761.5 555.5Q788 552 806 548Q827 542 842 536V457Q825 463 804 468Q785 472 761.5 475Q738 478 709 478Q609 478 564 422Q519 366 519 272Q519 178 563.5 125Q608 72 705 72Q736 72 763 77V231H647V311H851V12Q832 6 810 1Q789 -3 763.5 -6.5Q738 -10 708 -10Q621 -10 559 20.5Q497 51 465 108Q430 51 371.5 25.5Q313 0 243 0H76ZM245 83Q322 83 370.5 130.5Q419 178 419 275Q419 373 370.5 420Q322 467 245 467H174V83Z" glyph-name="D_Gdotaccent.sc" horiz-adv-x="908" /><glyph d="M86 716H289Q384 716 460.5 681Q537 646 579 568Q614 646 675 686.5Q736 727 824 727Q970 727 1044.5 632.5Q1119 538 1119 358Q1119 178 1043.5 83.5Q968 -11 824 -11Q737 -11 671 29Q605 69 574 141Q552 103 520.5 76.5Q489 50 452.5 33Q416 16 374.5 8Q333 0 289 0H86ZM824 79Q921 79 966 148.5Q1011 218 1011 358Q1011 498 966.5 567.5Q922 637 824 637Q727 637 681.5 567.5Q636 498 636 358Q636 217 681 148Q726 79 824 79ZM291 93Q343 93 386.5 108.5Q430 124 461.5 156.5Q493 189 510.5 239Q528 289 528 358Q528 427 510.5 477.5Q493 528 461.5 560Q430 592 386.5 607.5Q343 623 291 623H190V93Z" glyph-name="D_O" horiz-adv-x="1170" /><glyph d="M76 550H243Q318 550 378 524Q438 498 471 443Q500 500 549 529.5Q598 559 667 559Q788 559 849.5 485.5Q911 412 911 275Q911 137 848 64Q785 -9 667 -9Q599 -9 547 20Q495 49 469 102Q432 48 372.5 24Q313 0 243 0H76ZM668 72Q741 72 775 123Q809 174 809 275Q809 375 776 426.5Q743 478 668 478Q594 478 560 427Q526 376 526 275Q526 173 559.5 122.5Q593 72 668 72ZM245 83Q325 83 374.5 130.5Q424 178 424 275Q424 373 374.5 420Q325 467 245 467H174V83Z" glyph-name="D_O.sc" horiz-adv-x="957" /><glyph d="M86 716H289Q384 716 460.5 681Q537 646 579 568Q614 646 675 686.5Q736 727 824 727Q970 727 1044.5 632.5Q1119 538 1119 358Q1119 178 1043.5 83.5Q968 -11 824 -11Q737 -11 671 29Q605 69 574 141Q552 103 520.5 76.5Q489 50 452.5 33Q416 16 374.5 8Q333 0 289 0H86ZM824 79Q921 79 966 148.5Q1011 218 1011 358Q1011 498 966.5 567.5Q922 637 824 637Q727 637 681.5 567.5Q636 498 636 358Q636 217 681 148Q726 79 824 79ZM291 93Q343 93 386.5 108.5Q430 124 461.5 156.5Q493 189 510.5 239Q528 289 528 358Q528 427 510.5 477.5Q493 528 461.5 560Q430 592 386.5 607.5Q343 623 291 623H190V93ZM774 840 990 946 1027 859 800 778Z" glyph-name="D_Oacute" horiz-adv-x="1170" /><glyph d="M622 650 797 732 830 659 646 598ZM76 550H243Q318 550 378 524Q438 498 471 443Q500 500 549 529.5Q598 559 667 559Q788 559 849.5 485.5Q911 412 911 275Q911 137 848 64Q785 -9 667 -9Q599 -9 547 20Q495 49 469 102Q432 48 372.5 24Q313 0 243 0H76ZM668 72Q741 72 775 123Q809 174 809 275Q809 375 776 426.5Q743 478 668 478Q594 478 560 427Q526 376 526 275Q526 173 559.5 122.5Q593 72 668 72ZM245 83Q325 83 374.5 130.5Q424 178 424 275Q424 373 374.5 420Q325 467 245 467H174V83Z" glyph-name="D_Oacute.sc" horiz-adv-x="957" /><glyph d="M86 716H289Q384 716 460.5 681Q537 646 579 568Q614 646 675 686.5Q736 727 824 727Q970 727 1044.5 632.5Q1119 538 1119 358Q1119 178 1043.5 83.5Q968 -11 824 -11Q737 -11 671 29Q605 69 574 141Q552 103 520.5 76.5Q489 50 452.5 33Q416 16 374.5 8Q333 0 289 0H86ZM824 79Q921 79 966 148.5Q1011 218 1011 358Q1011 498 966.5 567.5Q922 637 824 637Q727 637 681.5 567.5Q636 498 636 358Q636 217 681 148Q726 79 824 79ZM291 93Q343 93 386.5 108.5Q430 124 461.5 156.5Q493 189 510.5 239Q528 289 528 358Q528 427 510.5 477.5Q493 528 461.5 560Q430 592 386.5 607.5Q343 623 291 623H190V93ZM660 826 801 945H862L1004 826L969 778L832 864L693 778Z" glyph-name="D_Ocircumflex" horiz-adv-x="1170" /><glyph d="M532 638 645 731H701L815 638L784 598L673 664L563 598ZM76 550H243Q318 550 378 524Q438 498 471 443Q500 500 549 529.5Q598 559 667 559Q788 559 849.5 485.5Q911 412 911 275Q911 137 848 64Q785 -9 667 -9Q599 -9 547 20Q495 49 469 102Q432 48 372.5 24Q313 0 243 0H76ZM668 72Q741 72 775 123Q809 174 809 275Q809 375 776 426.5Q743 478 668 478Q594 478 560 427Q526 376 526 275Q526 173 559.5 122.5Q593 72 668 72ZM245 83Q325 83 374.5 130.5Q424 178 424 275Q424 373 374.5 420Q325 467 245 467H174V83Z" glyph-name="D_Ocircumflex.sc" horiz-adv-x="957" /><glyph d="M86 716H289Q384 716 460.5 681Q537 646 579 568Q614 646 675 686.5Q736 727 824 727Q970 727 1044.5 632.5Q1119 538 1119 358Q1119 178 1043.5 83.5Q968 -11 824 -11Q737 -11 671 29Q605 69 574 141Q552 103 520.5 76.5Q489 50 452.5 33Q416 16 374.5 8Q333 0 289 0H86ZM824 79Q921 79 966 148.5Q1011 218 1011 358Q1011 498 966.5 567.5Q922 637 824 637Q727 637 681.5 567.5Q636 498 636 358Q636 217 681 148Q726 79 824 79ZM291 93Q343 93 386.5 108.5Q430 124 461.5 156.5Q493 189 510.5 239Q528 289 528 358Q528 427 510.5 477.5Q493 528 461.5 560Q430 592 386.5 607.5Q343 623 291 623H190V93ZM737 801Q710 801 692.5 818.5Q675 836 675 865Q675 893 692.5 910.5Q710 928 738 928Q767 928 784.5 910.5Q802 893 802 866Q802 837 784 819Q766 801 737 801ZM925 801Q898 801 880 818.5Q862 836 862 865Q862 893 880 910.5Q898 928 926 928Q955 928 972.5 910.5Q990 893 990 866Q990 837 972 819Q954 801 925 801Z" glyph-name="D_Odieresis" horiz-adv-x="1170" /><glyph d="M596 615Q571 615 556.5 630Q542 645 542 667Q542 690 556.5 704Q571 718 596 718Q622 718 637 704Q652 690 652 668Q652 645 637 630Q622 615 596 615ZM749 615Q724 615 709.5 630Q695 645 695 667Q695 690 709.5 704Q724 718 749 718Q775 718 790 704Q805 690 805 668Q805 645 790 630Q775 615 749 615ZM76 550H243Q318 550 378 524Q438 498 471 443Q500 500 549 529.5Q598 559 667 559Q788 559 849.5 485.5Q911 412 911 275Q911 137 848 64Q785 -9 667 -9Q599 -9 547 20Q495 49 469 102Q432 48 372.5 24Q313 0 243 0H76ZM668 72Q741 72 775 123Q809 174 809 275Q809 375 776 426.5Q743 478 668 478Q594 478 560 427Q526 376 526 275Q526 173 559.5 122.5Q593 72 668 72ZM245 83Q325 83 374.5 130.5Q424 178 424 275Q424 373 374.5 420Q325 467 245 467H174V83Z" glyph-name="D_Odieresis.sc" horiz-adv-x="957" /><glyph d="M86 716H289Q384 716 460.5 681Q537 646 579 568Q614 646 675 686.5Q736 727 824 727Q970 727 1044.5 632.5Q1119 538 1119 358Q1119 178 1043.5 83.5Q968 -11 824 -11Q737 -11 671 29Q605 69 574 141Q552 103 520.5 76.5Q489 50 452.5 33Q416 16 374.5 8Q333 0 289 0H86ZM824 79Q921 79 966 148.5Q1011 218 1011 358Q1011 498 966.5 567.5Q922 637 824 637Q727 637 681.5 567.5Q636 498 636 358Q636 217 681 148Q726 79 824 79ZM291 93Q343 93 386.5 108.5Q430 124 461.5 156.5Q493 189 510.5 239Q528 289 528 358Q528 427 510.5 477.5Q493 528 461.5 560Q430 592 386.5 607.5Q343 623 291 623H190V93ZM652 859 689 946 905 840 879 778Z" glyph-name="D_Ograve" horiz-adv-x="1170" /><glyph d="M533 659 565 732 741 650 718 598ZM76 550H243Q318 550 378 524Q438 498 471 443Q500 500 549 529.5Q598 559 667 559Q788 559 849.5 485.5Q911 412 911 275Q911 137 848 64Q785 -9 667 -9Q599 -9 547 20Q495 49 469 102Q432 48 372.5 24Q313 0 243 0H76ZM668 72Q741 72 775 123Q809 174 809 275Q809 375 776 426.5Q743 478 668 478Q594 478 560 427Q526 376 526 275Q526 173 559.5 122.5Q593 72 668 72ZM245 83Q325 83 374.5 130.5Q424 178 424 275Q424 373 374.5 420Q325 467 245 467H174V83Z" glyph-name="D_Ograve.sc" horiz-adv-x="957" /><glyph d="M86 716H289Q384 716 460.5 681Q537 646 579 568Q614 646 675 686.5Q736 727 824 727Q970 727 1044.5 632.5Q1119 538 1119 358Q1119 178 1043.5 83.5Q968 -11 824 -11Q737 -11 671 29Q605 69 574 141Q552 103 520.5 76.5Q489 50 452.5 33Q416 16 374.5 8Q333 0 289 0H86ZM824 79Q921 79 966 148.5Q1011 218 1011 358Q1011 498 966.5 567.5Q922 637 824 637Q727 637 681.5 567.5Q636 498 636 358Q636 217 681 148Q726 79 824 79ZM291 93Q343 93 386.5 108.5Q430 124 461.5 156.5Q493 189 510.5 239Q528 289 528 358Q528 427 510.5 477.5Q493 528 461.5 560Q430 592 386.5 607.5Q343 623 291 623H190V93ZM698 817 823 978 895 921 752 778ZM836 837 1045 944 1084 860 863 778Z" glyph-name="D_Ohungarumlaut" horiz-adv-x="1170" /><glyph d="M562 630 662 755 725 709 609 598ZM680 645 843 729 878 661 704 598ZM76 550H243Q318 550 378 524Q438 498 471 443Q500 500 549 529.5Q598 559 667 559Q788 559 849.5 485.5Q911 412 911 275Q911 137 848 64Q785 -9 667 -9Q599 -9 547 20Q495 49 469 102Q432 48 372.5 24Q313 0 243 0H76ZM668 72Q741 72 775 123Q809 174 809 275Q809 375 776 426.5Q743 478 668 478Q594 478 560 427Q526 376 526 275Q526 173 559.5 122.5Q593 72 668 72ZM245 83Q325 83 374.5 130.5Q424 178 424 275Q424 373 374.5 420Q325 467 245 467H174V83Z" glyph-name="D_Ohungarumlaut.sc" horiz-adv-x="957" /><glyph d="M636 358Q636 238 668 173L934 603Q891 637 824 637Q727 637 681.5 567.5Q636 498 636 358ZM291 93Q343 93 386.5 108.5Q430 124 461.5 156.5Q493 189 510.5 239Q528 289 528 358Q528 427 510.5 477.5Q493 528 461.5 560Q430 592 386.5 607.5Q343 623 291 623H190V93ZM824 79Q921 79 966 148.5Q1011 218 1011 358Q1011 473 980 536L717 111Q760 79 824 79ZM824 -11Q734 -11 668 31L638 -19H546L610 81Q588 108 574 141Q552 103 520.5 76.5Q489 50 452.5 33Q416 16 374.5 8Q333 0 289 0H86V716H289Q384 716 460.5 681Q537 646 579 568Q614 646 675 686.5Q736 727 824 727Q920 727 984 685L1015 735H1106L1043 633Q1119 541 1119 358Q1119 178 1043.5 83.5Q968 -11 824 -11Z" glyph-name="D_Oslash" horiz-adv-x="1170" /><glyph d="M526 275Q526 192 549 143L751 452Q719 478 668 478Q594 478 560 427Q526 376 526 275ZM245 83Q325 83 374.5 130.5Q424 178 424 275Q424 373 374.5 420Q325 467 245 467H174V83ZM668 72Q741 72 775 122.5Q809 173 809 274Q809 352 788 395L591 93Q621 72 668 72ZM667 -9Q633 -9 602.5 -1Q572 7 546 21L520 -17H440L493 62Q485 70 479 80Q473 90 468 101Q431 47 371.5 23.5Q312 0 243 0H76V550H243Q318 550 378 524Q438 498 471 443Q500 500 549 529.5Q598 559 667 559Q743 559 798 527L825 567H905L849 484Q911 411 911 275Q911 137 848 64Q785 -9 667 -9Z" glyph-name="D_Oslash.sc" horiz-adv-x="964" /><glyph d="M86 716H289Q384 716 460.5 681Q537 646 579 568Q614 646 675 686.5Q736 727 824 727Q970 727 1044.5 632.5Q1119 538 1119 358Q1119 178 1043.5 83.5Q968 -11 824 -11Q737 -11 671 29Q605 69 574 141Q552 103 520.5 76.5Q489 50 452.5 33Q416 16 374.5 8Q333 0 289 0H86ZM824 79Q921 79 966 148.5Q1011 218 1011 358Q1011 498 966.5 567.5Q922 637 824 637Q727 637 681.5 567.5Q636 498 636 358Q636 217 681 148Q726 79 824 79ZM291 93Q343 93 386.5 108.5Q430 124 461.5 156.5Q493 189 510.5 239Q528 289 528 358Q528 427 510.5 477.5Q493 528 461.5 560Q430 592 386.5 607.5Q343 623 291 623H190V93ZM668 804Q668 809 671.5 829.5Q675 850 685.5 872.5Q696 895 715.5 913Q735 931 768 931Q795 931 812 920.5Q829 910 845 899Q862 888 873.5 878.5Q885 869 899 869Q910 869 916 876Q922 883 926 892Q930 902 932 915H998Q997 910 994 890Q991 870 981 848.5Q971 827 952 809.5Q933 792 900 792Q875 792 858.5 802.5Q842 813 825 824Q810 834 797.5 844Q785 854 770 854Q758 854 751 846Q744 838 740 829Q736 818 734 804Z" glyph-name="D_Otilde" horiz-adv-x="1170" /><glyph d="M536 618Q536 626 540 642.5Q544 659 553.5 676.5Q563 694 579.5 707Q596 720 622 720Q643 720 656.5 712.5Q670 705 684 697Q698 688 707.5 681Q717 674 729 674Q737 674 742 679.5Q747 685 750 691Q754 698 755 708H812Q811 700 808 683.5Q805 667 796.5 650.5Q788 634 772.5 621.5Q757 609 731 609Q710 609 696.5 616.5Q683 624 669 632Q655 640 645.5 647Q636 654 623 654Q614 654 608 648.5Q602 643 599 636Q595 628 594 618ZM76 550H243Q318 550 378 524Q438 498 471 443Q500 500 549 529.5Q598 559 667 559Q788 559 849.5 485.5Q911 412 911 275Q911 137 848 64Q785 -9 667 -9Q599 -9 547 20Q495 49 469 102Q432 48 372.5 24Q313 0 243 0H76ZM668 72Q741 72 775 123Q809 174 809 275Q809 375 776 426.5Q743 478 668 478Q594 478 560 427Q526 376 526 275Q526 173 559.5 122.5Q593 72 668 72ZM245 83Q325 83 374.5 130.5Q424 178 424 275Q424 373 374.5 420Q325 467 245 467H174V83Z" glyph-name="D_Otilde.sc" horiz-adv-x="957" /><glyph d="M86 716H288Q449 716 533.5 624Q618 532 618 358Q618 184 533.5 92Q449 0 288 0H86ZM290 93Q391 93 450.5 156.5Q510 220 510 358Q510 427 494.5 477.5Q479 528 450 560Q421 592 380.5 607.5Q340 623 290 623H191V93ZM141 896 174 945 313 859 450 945 485 896 343 778H281Z" glyph-name="Dcaron" horiz-adv-x="669" unicode="&#270;" /><glyph d="M120 690 149 731 261 665 372 731 403 690 288 598H233ZM76 0V550H243Q377 550 444.5 477.5Q512 405 512 275Q512 146 444.5 73Q377 0 243 0ZM174 83H245Q321 83 366 129Q411 175 411 275Q411 375 366 421Q321 467 245 467H174Z" glyph-name="Dcaron.sc" horiz-adv-x="558" /><glyph d="M86 716H289Q384 716 460.5 681Q537 646 579 568Q614 646 675 686.5Q736 727 824 727Q970 727 1044.5 632.5Q1119 538 1119 358Q1119 178 1043.5 83.5Q968 -11 824 -11Q737 -11 671 29Q605 69 574 141Q552 103 520.5 76.5Q489 50 452.5 33Q416 16 374.5 8Q333 0 289 0H86ZM824 79Q921 79 966 148.5Q1011 218 1011 358Q1011 498 966.5 567.5Q922 637 824 637Q727 637 681.5 567.5Q636 498 636 358Q636 217 681 148Q726 79 824 79ZM291 93Q343 93 386.5 108.5Q430 124 461.5 156.5Q493 189 510.5 239Q528 289 528 358Q528 427 510.5 477.5Q493 528 461.5 560Q430 592 386.5 607.5Q343 623 291 623H190V93ZM140 896 173 945 312 859 449 945 484 896 342 778H280Z" glyph-name="Dcaron_O" horiz-adv-x="1170" /><glyph d="M120 690 149 731 261 665 372 731 403 690 288 598H233ZM76 550H243Q318 550 378 524Q438 498 471 443Q500 500 549 529.5Q598 559 667 559Q788 559 849.5 485.5Q911 412 911 275Q911 137 848 64Q785 -9 667 -9Q599 -9 547 20Q495 49 469 102Q432 48 372.5 24Q313 0 243 0H76ZM668 72Q741 72 775 123Q809 174 809 275Q809 375 776 426.5Q743 478 668 478Q594 478 560 427Q526 376 526 275Q526 173 559.5 122.5Q593 72 668 72ZM245 83Q325 83 374.5 130.5Q424 178 424 275Q424 373 374.5 420Q325 467 245 467H174V83Z" glyph-name="Dcaron_O.sc" horiz-adv-x="957" /><glyph d="M98 0V324H14V410H98V716H300Q461 716 545.5 624Q630 532 630 358Q630 184 545.5 92Q461 0 300 0ZM302 93Q403 93 462.5 156.5Q522 220 522 358Q522 427 506.5 477.5Q491 528 462 560Q433 592 392.5 607.5Q352 623 302 623H202V410H315V324H202V93Z" glyph-name="Dcroat" horiz-adv-x="680" unicode="&#272;" /><glyph d="M84 0V245H20V316H84V550H251Q385 550 452.5 477.5Q520 405 520 275Q520 146 452.5 73Q385 0 251 0ZM254 83Q329 83 374 129Q419 175 419 275Q419 375 374.5 421Q330 467 254 467H182V316H266V245H182V83Z" glyph-name="Dcroat.sc" horiz-adv-x="566" /><glyph d="M24 0 48 79 291 719H372L613 80L639 0ZM509 88 328 569 146 88Z" glyph-name="Delta" horiz-adv-x="662" unicode="&#916;" /><glyph d="M28 62 222 552H302L494 63V0H28ZM396 75 258 429 120 75Z" glyph-name="Delta.sc" horiz-adv-x="523" /><glyph d="M86 716H479V623H191V409H430V318H191V93H479V0H86Z" glyph-name="E" horiz-adv-x="529" unicode="E" /><glyph d="M76 550H404V468H174V319H360V239H174V82H404V0H76Z" glyph-name="E.sc" horiz-adv-x="451" /><glyph d="M863 256 754 570 648 256ZM86 716H478V623H190V409H429V318H190V93H496L714 719H807L1055 0H950L892 166H619L564 0H86Z" glyph-name="E_A" horiz-adv-x="1064" /><glyph d="M706 199 625 429 546 199ZM76 550H404V468H174V319H360V239H174V82H416L584 553H678L873 0H774L732 120H520L480 0H76Z" glyph-name="E_A.sc" horiz-adv-x="886" /><glyph d="M863 256 754 570 648 256ZM86 716H478V623H190V409H429V318H190V93H496L714 719H807L1055 0H950L892 166H619L564 0H86ZM691 840 907 946 944 859 717 778Z" glyph-name="E_Aacute" horiz-adv-x="1064" /><glyph d="M568 650 744 732 776 659 592 597ZM706 199 625 429 546 199ZM76 550H404V468H174V319H360V239H174V82H416L584 553H678L873 0H774L732 120H520L480 0H76Z" glyph-name="E_Aacute.sc" horiz-adv-x="886" /><glyph d="M863 256 754 570 648 256ZM86 716H478V623H190V409H429V318H190V93H496L714 719H807L1055 0H950L892 166H619L564 0H86ZM759 786Q693 786 652 826.5Q611 867 610 934H689Q689 923 693 911Q697 899 705 888.5Q713 878 726.5 871.5Q740 865 759 865Q778 865 791.5 871.5Q805 878 813 888.5Q821 899 825 911Q829 923 829 934H909Q908 867 867 826.5Q826 786 759 786Z" glyph-name="E_Abreve" horiz-adv-x="1064" /><glyph d="M630 605Q577 605 542.5 635.5Q508 666 506 720H576Q576 713 578.5 704Q581 695 587.5 687.5Q594 680 604.5 674.5Q615 669 630 669Q645 669 655.5 674.5Q666 680 672.5 687.5Q679 695 681.5 704Q684 713 684 720H755Q753 666 718.5 635.5Q684 605 630 605ZM706 199 625 429 546 199ZM76 550H404V468H174V319H360V239H174V82H416L584 553H678L873 0H774L732 120H520L480 0H76Z" glyph-name="E_Abreve.sc" horiz-adv-x="886" /><glyph d="M863 256 754 570 648 256ZM86 716H478V623H190V409H429V318H190V93H496L714 719H807L1055 0H950L892 166H619L564 0H86ZM588 826 729 945H790L932 826L897 778L760 864L621 778Z" glyph-name="E_Acircumflex" horiz-adv-x="1064" /><glyph d="M489 638 603 731H658L772 638L742 598L630 664L519 598ZM706 199 625 429 546 199ZM76 550H404V468H174V319H360V239H174V82H416L584 553H678L873 0H774L732 120H520L480 0H76Z" glyph-name="E_Acircumflex.sc" horiz-adv-x="886" /><glyph d="M863 256 754 570 648 256ZM86 716H478V623H190V409H429V318H190V93H496L714 719H807L1055 0H950L892 166H619L564 0H86ZM664 801Q637 801 619.5 818.5Q602 836 602 865Q602 893 619.5 910.5Q637 928 665 928Q694 928 711.5 910.5Q729 893 729 866Q729 837 711 819Q693 801 664 801ZM852 801Q825 801 807 818.5Q789 836 789 865Q789 893 807 910.5Q825 928 853 928Q882 928 899.5 910.5Q917 893 917 866Q917 837 899 819Q881 801 852 801Z" glyph-name="E_Adieresis" horiz-adv-x="1064" /><glyph d="M553 615Q527 615 513 630Q499 645 499 667Q499 690 513 704Q527 718 553 718Q579 718 593.5 704Q608 690 608 668Q608 645 593.5 630Q579 615 553 615ZM706 615Q681 615 666.5 630Q652 645 652 667Q652 690 666.5 704Q681 718 707 718Q733 718 747.5 704Q762 690 762 668Q762 645 747 630Q732 615 706 615ZM706 199 625 429 546 199ZM76 550H404V468H174V319H360V239H174V82H416L584 553H678L873 0H774L732 120H520L480 0H76Z" glyph-name="E_Adieresis.sc" horiz-adv-x="886" /><glyph d="M863 256 754 570 648 256ZM86 716H478V623H190V409H429V318H190V93H496L714 719H807L1055 0H950L892 166H619L564 0H86ZM575 859 612 946 828 840 802 778Z" glyph-name="E_Agrave" horiz-adv-x="1064" /><glyph d="M485 659 518 732 693 650 669 598ZM706 199 625 429 546 199ZM76 550H404V468H174V319H360V239H174V82H416L584 553H678L873 0H774L732 120H520L480 0H76Z" glyph-name="E_Agrave.sc" horiz-adv-x="886" /><glyph d="M863 256 754 570 648 256ZM86 716H478V623H190V409H429V318H190V93H496L714 719H807L1055 0H950L892 166H619L564 0H86ZM618 903H898V819H618Z" glyph-name="E_Amacron" horiz-adv-x="1064" /><glyph d="M516 699H742V629H516ZM706 199 625 429 546 199ZM76 550H404V468H174V319H360V239H174V82H416L584 553H678L873 0H774L732 120H520L480 0H76Z" glyph-name="E_Amacron.sc" horiz-adv-x="886" /><glyph d="M863 256 754 570 648 256ZM950 0 892 166H619L564 0H86V716H478V623H190V409H429V318H190V93H496L714 719H807L1055 0Q1001 -29 983.5 -57.5Q966 -86 966 -109Q966 -153 1014 -153Q1028 -153 1039 -148.5Q1050 -144 1058.5 -138.5Q1067 -133 1072 -128.5Q1077 -124 1078 -123V-187Q1077 -188 1070 -194Q1063 -200 1051 -207Q1039 -214 1022 -219.5Q1005 -225 982 -225Q934 -225 905 -197Q876 -169 876 -127Q876 -92 895.5 -56Q915 -20 962 0Z" glyph-name="E_Aogonek" horiz-adv-x="1064" /><glyph d="M774 0 732 120H520L480 0H76V550H404V468H174V319H360V239H174V82H416L584 553H678L873 0Q833 -21 818 -42.5Q803 -64 803 -81Q803 -115 841 -115Q861 -115 875 -105.5Q889 -96 892 -94V-145Q889 -147 883 -151.5Q877 -156 867 -161Q857 -166 843 -170Q829 -174 812 -174Q771 -174 746.5 -152Q722 -130 722 -97Q722 -68 739 -41Q756 -14 793 0ZM706 199 625 429 546 199Z" glyph-name="E_Aogonek.sc" horiz-adv-x="886" /><glyph d="M863 256 754 570 648 256ZM86 716H478V623H190V409H429V318H190V93H496L714 719H807L1055 0H950L892 166H619L564 0H86ZM758 771Q705 771 673 796Q641 821 641 864Q641 905 673 931.5Q705 958 758 958Q811 958 844 931.5Q877 905 877 864Q877 821 844.5 796Q812 771 758 771ZM758 826Q780 826 794.5 836.5Q809 847 809 866Q809 883 794 893Q779 903 758 903Q735 903 721.5 893Q708 883 708 866Q708 847 721.5 836.5Q735 826 758 826Z" glyph-name="E_Aring" horiz-adv-x="1064" /><glyph d="M629 594Q585 594 559 613Q533 632 533 666Q533 698 559 719Q585 740 629 740Q673 740 700 719Q727 698 727 666Q727 632 700.5 613Q674 594 629 594ZM629 638Q646 638 657.5 645.5Q669 653 669 667Q669 681 657.5 688Q646 695 629 695Q612 695 601 688Q590 681 590 667Q590 653 601 645.5Q612 638 629 638ZM706 199 625 429 546 199ZM76 550H404V468H174V319H360V239H174V82H416L584 552H678L873 0H774L732 120H520L480 0H76Z" glyph-name="E_Aring.sc" horiz-adv-x="886" /><glyph d="M863 256 754 570 648 256ZM86 716H478V623H190V409H429V318H190V93H496L714 719H807L1055 0H950L892 166H619L564 0H86ZM598 804Q598 809 601.5 829.5Q605 850 615.5 872.5Q626 895 645.5 913Q665 931 698 931Q725 931 742 920.5Q759 910 775 899Q792 888 803.5 878.5Q815 869 829 869Q840 869 846 876Q852 883 856 892Q860 902 862 915H928Q927 910 924 890Q921 870 911 848.5Q901 827 882 809.5Q863 792 830 792Q805 792 788.5 802.5Q772 813 755 824Q740 834 727.5 844Q715 854 700 854Q688 854 681 846Q674 838 670 829Q666 818 664 804Z" glyph-name="E_Atilde" horiz-adv-x="1064" /><glyph d="M496 618Q496 626 499.5 642.5Q503 659 512.5 676.5Q522 694 538.5 707Q555 720 581 720Q603 720 616.5 712.5Q630 705 643 697Q657 688 667 681Q677 674 688 674Q696 674 701 679.5Q706 685 709 691Q713 698 714 708H772Q771 700 768 683.5Q765 667 756 650.5Q747 634 731.5 621.5Q716 609 690 609Q669 609 656 616.5Q643 624 629 632Q615 640 605 647Q595 654 583 654Q573 654 567 648.5Q561 643 558 636Q555 628 553 618ZM706 199 625 429 546 199ZM76 550H404V468H174V319H360V239H174V82H416L584 552H678L873 0H774L732 120H520L480 0H76Z" glyph-name="E_Atilde.sc" horiz-adv-x="886" /><glyph d="M529 93V623H190V409H429V318H190V93ZM86 716H922V623H633V409H873V318H633V93H922V0H86Z" glyph-name="E_E" horiz-adv-x="972" /><glyph d="M76 550H769V468H538V319H726V239H538V82H769V0H76ZM440 82V468H174V319H360V239H174V82Z" glyph-name="E_E.sc" horiz-adv-x="818" /><glyph d="M630 840 846 946 883 859 656 778ZM529 93V623H190V409H429V318H190V93ZM86 716H922V623H633V409H873V318H633V93H922V0H86Z" glyph-name="E_Eacute" horiz-adv-x="972" /><glyph d="M528 650 703 732 736 659 552 598ZM76 550H769V468H538V319H726V239H538V82H769V0H76ZM440 82V468H174V319H360V239H174V82Z" glyph-name="E_Eacute.sc" horiz-adv-x="818" /><glyph d="M551 826 692 945H754L896 826L861 778L724 864L585 778ZM529 93V623H190V409H429V318H190V93ZM86 716H922V623H633V409H873V318H633V93H922V0H86Z" glyph-name="E_Ecircumflex" horiz-adv-x="972" /><glyph d="M464 638 577 731H632L746 638L715 598L604 664L493 598ZM76 550H769V468H538V319H726V239H538V82H769V0H76ZM440 82V468H174V319H360V239H174V82Z" glyph-name="E_Ecircumflex.sc" horiz-adv-x="818" /><glyph d="M636 801Q609 801 591 818.5Q573 836 573 865Q573 893 591 910.5Q609 928 637 928Q666 928 683.5 910.5Q701 893 701 866Q701 837 683 819Q665 801 636 801ZM824 801Q796 801 778.5 818.5Q761 836 761 865Q761 893 778.5 910.5Q796 928 824 928Q853 928 871 910.5Q889 893 889 866Q889 837 871 819Q853 801 824 801ZM529 93V623H190V409H429V318H190V93ZM86 716H922V623H633V409H873V318H633V93H922V0H86Z" glyph-name="E_Edieresis" horiz-adv-x="972" /><glyph d="M532 615Q507 615 492.5 630Q478 645 478 667Q478 690 492.5 704Q507 718 532 718Q558 718 573 704Q588 690 588 668Q588 645 573 630Q558 615 532 615ZM685 615Q660 615 646 630Q632 645 632 667Q632 690 646 704Q660 718 685 718Q712 718 726.5 704Q741 690 741 668Q741 645 726 630Q711 615 685 615ZM76 550H769V468H538V319H726V239H538V82H769V0H76ZM440 82V468H174V319H360V239H174V82Z" glyph-name="E_Edieresis.sc" horiz-adv-x="818" /><glyph d="M589 903H870V819H589ZM529 93V623H190V409H429V318H190V93ZM86 716H922V623H633V409H873V318H633V93H922V0H86Z" glyph-name="E_Emacron" horiz-adv-x="972" /><glyph d="M495 699H722V629H495ZM76 550H769V468H538V319H726V239H538V82H769V0H76ZM440 82V468H174V319H360V239H174V82Z" glyph-name="E_Emacron.sc" horiz-adv-x="818" /><glyph d="M529 93V623H190V409H429V318H190V93ZM86 716H922V623H633V409H873V318H633V93H922V0Q869 -29 851.5 -57.5Q834 -86 834 -109Q834 -153 881 -153Q895 -153 906 -148.5Q917 -144 925.5 -138.5Q934 -133 939 -128.5Q944 -124 945 -123V-187Q944 -188 937 -194Q930 -200 918 -207Q906 -214 889 -219.5Q872 -225 849 -225Q801 -225 772 -197Q743 -169 743 -127Q743 -92 762.5 -56Q782 -20 829 0H86Z" glyph-name="E_Eogonek" horiz-adv-x="972" /><glyph d="M76 0V550H769V468H538V319H726V239H538V82H769V0Q728 -21 713.5 -42.5Q699 -64 699 -81Q699 -115 737 -115Q757 -115 771 -105.5Q785 -96 788 -94V-145Q786 -147 779.5 -151.5Q773 -156 763.5 -161Q754 -166 740 -170Q726 -174 709 -174Q667 -174 643 -152Q619 -130 619 -97Q619 -68 636 -41Q653 -14 688 0ZM440 82V468H174V319H360V239H174V82Z" glyph-name="E_Eogonek.sc" horiz-adv-x="818" /><glyph d="M86 716H479V623H191V409H430V318H191V93H479V0H86ZM187 840 403 946 440 859 213 778Z" glyph-name="Eacute" horiz-adv-x="529" unicode="&#201;" /><glyph d="M162 650 337 732 371 659 186 598ZM76 550H404V468H174V319H360V239H174V82H404V0H76Z" glyph-name="Eacute.sc" horiz-adv-x="451" /><glyph d="M863 256 754 570 648 256ZM86 716H478V623H190V409H429V318H190V93H496L714 719H807L1055 0H950L892 166H619L564 0H86ZM186 840 402 946 439 859 212 778Z" glyph-name="Eacute_A" horiz-adv-x="1064" /><glyph d="M162 650 338 732 371 659 187 598ZM706 199 625 429 546 199ZM76 550H404V468H174V319H360V239H174V82H416L584 553H678L873 0H774L732 120H520L480 0H76Z" glyph-name="Eacute_A.sc" horiz-adv-x="886" /><glyph d="M863 256 754 570 648 256ZM86 716H478V623H190V409H429V318H190V93H496L714 719H807L1055 0H950L892 166H619L564 0H86ZM691 840 907 946 944 859 717 778ZM186 840 402 946 439 859 212 778Z" glyph-name="Eacute_Aacute" horiz-adv-x="1064" /><glyph d="M568 650 744 732 776 659 592 597ZM162 650 338 732 371 659 187 598ZM706 199 625 429 546 199ZM76 550H404V468H174V319H360V239H174V82H416L584 553H678L873 0H774L732 120H520L480 0H76Z" glyph-name="Eacute_Aacute.sc" horiz-adv-x="886" /><glyph d="M863 256 754 570 648 256ZM86 716H478V623H190V409H429V318H190V93H496L714 719H807L1055 0H950L892 166H619L564 0H86ZM588 826 729 945H790L932 826L897 778L760 864L621 778ZM186 840 402 946 439 859 212 778Z" glyph-name="Eacute_Acircumflex" horiz-adv-x="1064" /><glyph d="M489 638 603 731H658L772 638L742 598L630 664L519 598ZM162 650 338 732 371 659 187 598ZM706 199 625 429 546 199ZM76 550H404V468H174V319H360V239H174V82H416L584 553H678L873 0H774L732 120H520L480 0H76Z" glyph-name="Eacute_Acircumflex.sc" horiz-adv-x="886" /><glyph d="M863 256 754 570 648 256ZM86 716H478V623H190V409H429V318H190V93H496L714 719H807L1055 0H950L892 166H619L564 0H86ZM758 771Q705 771 673 796Q641 821 641 864Q641 905 673 931.5Q705 958 758 958Q811 958 844 931.5Q877 905 877 864Q877 821 844.5 796Q812 771 758 771ZM758 826Q780 826 794.5 836.5Q809 847 809 866Q809 883 794 893Q779 903 758 903Q735 903 721.5 893Q708 883 708 866Q708 847 721.5 836.5Q735 826 758 826ZM186 840 402 946 439 859 212 778Z" glyph-name="Eacute_Aring" horiz-adv-x="1064" /><glyph d="M629 594Q585 594 559 613Q533 632 533 666Q533 698 559 719Q585 740 629 740Q673 740 700 719Q727 698 727 666Q727 632 700.5 613Q674 594 629 594ZM629 638Q646 638 657.5 645.5Q669 653 669 667Q669 681 657.5 688Q646 695 629 695Q612 695 601 688Q590 681 590 667Q590 653 601 645.5Q612 638 629 638ZM162 650 338 732 371 659 187 598ZM706 199 625 429 546 199ZM76 550H404V468H174V319H360V239H174V82H416L584 553H678L873 0H774L732 120H520L480 0H76Z" glyph-name="Eacute_Aring.sc" horiz-adv-x="886" /><glyph d="M186 840 402 946 440 859 213 778ZM529 93V623H190V409H429V318H190V93ZM86 716H922V623H633V409H873V318H633V93H922V0H86Z" glyph-name="Eacute_E" horiz-adv-x="972" /><glyph d="M162 650 338 732 371 659 187 598ZM76 550H769V468H538V319H726V239H538V82H769V0H76ZM440 82V468H174V319H360V239H174V82Z" glyph-name="Eacute_E.sc" horiz-adv-x="818" /><glyph d="M186 840 402 946 440 859 213 778ZM630 840 846 946 883 859 656 778ZM529 93V623H190V409H429V318H190V93ZM86 716H922V623H633V409H873V318H633V93H922V0H86Z" glyph-name="Eacute_Eacute" horiz-adv-x="972" /><glyph d="M528 650 703 732 736 659 552 598ZM162 650 338 732 371 659 187 598ZM76 550H769V468H538V319H726V239H538V82H769V0H76ZM440 82V468H174V319H360V239H174V82Z" glyph-name="Eacute_Eacute.sc" horiz-adv-x="818" /><glyph d="M186 840 402 946 440 859 213 778ZM569 859 606 946 822 840 796 778ZM529 93V623H190V409H429V318H190V93ZM86 716H922V623H633V409H873V318H633V93H922V0H86Z" glyph-name="Eacute_Egrave" horiz-adv-x="972" /><glyph d="M479 659 513 732 688 650 664 598ZM162 650 338 732 371 659 187 598ZM76 550H769V468H538V319H726V239H538V82H769V0H76ZM440 82V468H174V319H360V239H174V82Z" glyph-name="Eacute_Egrave.sc" horiz-adv-x="818" /><glyph d="M86 716H479V623H191V409H430V318H191V93H479V0H86ZM288 786Q222 786 181 826.5Q140 867 139 934H218Q218 923 222 911Q226 899 234 888.5Q242 878 255.5 871.5Q269 865 288 865Q307 865 320.5 871.5Q334 878 342 888.5Q350 899 354 911Q358 923 358 934H438Q437 867 396 826.5Q355 786 288 786Z" glyph-name="Ebreve" horiz-adv-x="529" unicode="&#276;" /><glyph d="M243 605Q191 605 156 635.5Q121 666 119 720H189Q189 713 192 704Q195 695 201 687.5Q207 680 217.5 674.5Q228 669 243 669Q258 669 268.5 674.5Q279 680 285.5 687.5Q292 695 295 704Q298 713 298 720H368Q366 666 331.5 635.5Q297 605 243 605ZM76 550H404V468H174V319H360V239H174V82H404V0H76Z" glyph-name="Ebreve.sc" horiz-adv-x="451" /><glyph d="M86 716H479V623H191V409H430V318H191V93H479V0H86ZM120 896 153 945 292 859 429 945 464 896 322 778H260Z" glyph-name="Ecaron" horiz-adv-x="529" unicode="&#282;" /><glyph d="M106 690 136 731 247 665 358 731 389 690 274 598H219ZM76 550H404V468H174V319H360V239H174V82H404V0H76Z" glyph-name="Ecaron.sc" horiz-adv-x="451" /><glyph d="M86 716H479V623H191V409H430V318H191V93H479V0H86ZM109 826 250 945H311L453 826L418 778L281 864L142 778Z" glyph-name="Ecircumflex" horiz-adv-x="529" unicode="&#202;" /><glyph d="M98 638 211 731H267L381 638L350 598L239 664L128 598ZM76 550H404V468H174V319H360V239H174V82H404V0H76Z" glyph-name="Ecircumflex.sc" horiz-adv-x="451" /><glyph d="M108 826 249 945H311L452 826L418 778L280 864L142 778ZM529 93V623H190V409H429V318H190V93ZM86 716H922V623H633V409H873V318H633V93H922V0H86Z" glyph-name="Ecircumflex_E" horiz-adv-x="972" /><glyph d="M98 638 211 731H267L381 638L350 598L239 664L128 598ZM76 550H769V468H538V319H726V239H538V82H769V0H76ZM440 82V468H174V319H360V239H174V82Z" glyph-name="Ecircumflex_E.sc" horiz-adv-x="818" /><glyph d="M193 801Q166 801 148.5 818.5Q131 836 131 865Q131 893 148.5 910.5Q166 928 194 928Q223 928 240.5 910.5Q258 893 258 866Q258 837 240 819Q222 801 193 801ZM381 801Q354 801 336 818.5Q318 836 318 865Q318 893 336 910.5Q354 928 382 928Q411 928 428.5 910.5Q446 893 446 866Q446 837 428 819Q410 801 381 801ZM86 716H479V623H191V409H430V318H191V93H479V0H86Z" glyph-name="Edieresis" horiz-adv-x="529" unicode="&#203;" /><glyph d="M167 615Q141 615 127 630Q113 645 113 667Q113 690 127 704Q141 718 167 718Q193 718 207.5 704Q222 690 222 668Q222 645 207.5 630Q193 615 167 615ZM320 615Q295 615 280.5 630Q266 645 266 667Q266 690 280.5 704Q295 718 321 718Q347 718 361.5 704Q376 690 376 668Q376 645 361 630Q346 615 320 615ZM76 550H404V468H174V319H360V239H174V82H404V0H76Z" glyph-name="Edieresis.sc" horiz-adv-x="451" /><glyph d="M863 256 754 570 648 256ZM86 716H478V623H190V409H429V318H190V93H496L714 719H807L1055 0H950L892 166H619L564 0H86ZM192 801Q165 801 147.5 818.5Q130 836 130 865Q130 893 147.5 910.5Q165 928 193 928Q222 928 239.5 910.5Q257 893 257 866Q257 837 239 819Q221 801 192 801ZM380 801Q353 801 335 818.5Q317 836 317 865Q317 893 335 910.5Q353 928 381 928Q410 928 427.5 910.5Q445 893 445 866Q445 837 427 819Q409 801 380 801Z" glyph-name="Edieresis_A" horiz-adv-x="1064" /><glyph d="M167 615Q141 615 127 630Q113 645 113 667Q113 690 127 704Q141 718 167 718Q193 718 207.5 704Q222 690 222 668Q222 645 207.5 630Q193 615 167 615ZM320 615Q295 615 280.5 630Q266 645 266 667Q266 690 280.5 704Q295 718 321 718Q347 718 361.5 704Q376 690 376 668Q376 645 361 630Q346 615 320 615ZM706 199 625 429 546 199ZM76 550H404V468H174V319H360V239H174V82H416L584 553H678L873 0H774L732 120H520L480 0H76Z" glyph-name="Edieresis_A.sc" horiz-adv-x="886" /><glyph d="M192 801Q165 801 147.5 818.5Q130 836 130 865Q130 893 147.5 910.5Q165 928 193 928Q222 928 239.5 910.5Q257 893 257 866Q257 837 239 819Q221 801 192 801ZM380 801Q353 801 335 818.5Q317 836 317 865Q317 893 335 910.5Q353 928 381 928Q410 928 427.5 910.5Q445 893 445 866Q445 837 427 819Q409 801 380 801ZM529 93V623H190V409H429V318H190V93ZM86 716H922V623H633V409H873V318H633V93H922V0H86Z" glyph-name="Edieresis_E" horiz-adv-x="972" /><glyph d="M167 615Q141 615 127 630Q113 645 113 667Q113 690 127 704Q141 718 167 718Q193 718 207.5 704Q222 690 222 668Q222 645 207.5 630Q193 615 167 615ZM320 615Q295 615 280.5 630Q266 645 266 667Q266 690 280.5 704Q295 718 321 718Q347 718 361.5 704Q376 690 376 668Q376 645 361 630Q346 615 320 615ZM76 550H769V468H538V319H726V239H538V82H769V0H76ZM440 82V468H174V319H360V239H174V82Z" glyph-name="Edieresis_E.sc" horiz-adv-x="818" /><glyph d="M86 716H479V623H191V409H430V318H191V93H479V0H86ZM286 801Q257 801 239.5 819.5Q222 838 222 867Q222 896 240 914Q258 932 287 932Q318 932 336 914Q354 896 354 867Q354 838 336 819.5Q318 801 286 801Z" glyph-name="Edotaccent" horiz-adv-x="529" unicode="&#278;" /><glyph d="M242 615Q215 615 200.5 630Q186 645 186 668Q186 691 200.5 706Q215 721 243 721Q271 721 285.5 706Q300 691 300 669Q300 646 285 630.5Q270 615 242 615ZM76 550H404V468H174V319H360V239H174V82H404V0H76Z" glyph-name="Edotaccent.sc" horiz-adv-x="451" /><glyph d="M285 801Q256 801 238.5 819.5Q221 838 221 867Q221 896 239 914Q257 932 286 932Q317 932 335 914Q353 896 353 867Q353 838 335 819.5Q317 801 285 801ZM529 93V623H190V409H429V318H190V93ZM86 716H922V623H633V409H873V318H633V93H922V0H86Z" glyph-name="Edotaccent_E" horiz-adv-x="972" /><glyph d="M242 615Q215 615 200.5 630Q186 645 186 668Q186 691 200.5 706Q215 721 243 721Q271 721 285.5 706Q300 691 300 669Q300 646 285.5 630.5Q271 615 242 615ZM76 550H769V468H538V319H726V239H538V82H769V0H76ZM440 82V468H174V319H360V239H174V82Z" glyph-name="Edotaccent_E.sc" horiz-adv-x="818" /><glyph d="M86 716H479V623H191V409H430V318H191V93H479V0H86ZM128 859 165 946 381 840 355 778Z" glyph-name="Egrave" horiz-adv-x="529" unicode="&#200;" /><glyph d="M115 659 148 732 324 650 300 598ZM76 550H404V468H174V319H360V239H174V82H404V0H76Z" glyph-name="Egrave.sc" horiz-adv-x="451" /><glyph d="M863 256 754 570 648 256ZM86 716H478V623H190V409H429V318H190V93H496L714 719H807L1055 0H950L892 166H619L564 0H86ZM124 859 161 946 377 840 351 778Z" glyph-name="Egrave_A" horiz-adv-x="1064" /><glyph d="M109 659 142 732 318 650 294 598ZM706 199 625 429 546 199ZM76 550H404V468H174V319H360V239H174V82H416L584 553H678L873 0H774L732 120H520L480 0H76Z" glyph-name="Egrave_A.sc" horiz-adv-x="886" /><glyph d="M125 859 162 946 378 840 352 778ZM529 93V623H190V409H429V318H190V93ZM86 716H922V623H633V409H873V318H633V93H922V0H86Z" glyph-name="Egrave_E" horiz-adv-x="972" /><glyph d="M111 659 144 732 320 650 296 598ZM76 550H769V468H538V319H726V239H538V82H769V0H76ZM440 82V468H174V319H360V239H174V82Z" glyph-name="Egrave_E.sc" horiz-adv-x="818" /><glyph d="M86 716H479V623H191V409H430V318H191V93H479V0H86ZM147 903H427V819H147Z" glyph-name="Emacron" horiz-adv-x="529" unicode="&#274;" /><glyph d="M130 699H356V629H130ZM76 550H404V468H174V319H360V239H174V82H404V0H76Z" glyph-name="Emacron.sc" horiz-adv-x="451" /><glyph d="M86 716H182L508 182V716H603V-46Q603 -137 562.5 -183.5Q522 -230 445 -230Q427 -230 411 -227.5Q395 -225 384 -222Q370 -218 359 -213V-125Q370 -129 382 -133Q393 -136 406 -138.5Q419 -141 433 -141Q471 -141 488.5 -120Q506 -99 507 -51V2L182 535V0H86Z" glyph-name="Eng" horiz-adv-x="690" unicode="&#330;" /><glyph d="M76 550H164L416 161V550H504V-24Q504 -99 469 -137Q434 -175 367 -175Q352 -175 339.5 -173Q327 -171 318 -169Q307 -166 298 -162V-84Q306 -87 315 -90Q324 -92 334 -93.5Q344 -95 355 -95Q384 -95 397.5 -80Q411 -65 413 -32V3L164 389V0H76Z" glyph-name="Eng.sc" horiz-adv-x="580" /><glyph d="M86 0V716H479V623H191V409H430V318H191V93H479V0Q426 -29 408.5 -57.5Q391 -86 391 -109Q391 -153 438 -153Q452 -153 463 -148.5Q474 -144 482.5 -138.5Q491 -133 496.5 -128.5Q502 -124 503 -123V-187Q502 -188 495 -194Q488 -200 476 -207Q464 -214 446.5 -219.5Q429 -225 406 -225Q358 -225 329 -197Q300 -169 300 -127Q300 -92 319.5 -56Q339 -20 386 0Z" glyph-name="Eogonek" horiz-adv-x="529" unicode="&#280;" /><glyph d="M76 0V550H404V468H174V319H360V239H174V82H404V0Q364 -21 349 -42.5Q334 -64 334 -81Q334 -115 372 -115Q392 -115 406 -105.5Q420 -96 423 -94V-145Q421 -147 414.5 -151.5Q408 -156 398 -161Q388 -166 374.5 -170Q361 -174 343 -174Q302 -174 278 -152Q254 -130 254 -97Q254 -68 270.5 -41Q287 -14 324 0Z" glyph-name="Eogonek.sc" horiz-adv-x="451" /><glyph d="M98 0V324H14V410H98V716H300Q461 716 545.5 624Q630 532 630 358Q630 184 545.5 92Q461 0 300 0ZM302 93Q403 93 462.5 156.5Q522 220 522 358Q522 427 506.5 477.5Q491 528 462 560Q433 592 392.5 607.5Q352 623 302 623H202V410H315V324H202V93Z" glyph-name="Eth" horiz-adv-x="680" unicode="&#208;" /><glyph d="M84 0V245H20V316H84V550H251Q385 550 452.5 477.5Q520 405 520 275Q520 146 452.5 73Q385 0 251 0ZM254 83Q329 83 374 129Q419 175 419 275Q419 375 374.5 421Q330 467 254 467H182V316H266V245H182V83Z" glyph-name="Eth.sc" horiz-adv-x="566" /><glyph d="M43 389V465H121Q145 585 219.5 656Q294 727 419 727Q459 727 488.5 722.5Q518 718 538 713Q562 707 578 699L570 610Q552 618 530 624Q509 629 482.5 633Q456 637 422 637Q344 637 296.5 590.5Q249 544 232 465H481L451 389ZM576 21Q559 12 536 5Q515 -2 486.5 -6.5Q458 -11 420 -11Q293 -11 214 57Q135 125 115 256H43V332H429L398 256H227Q242 167 293 123Q344 79 425 79Q461 79 489 84Q517 89 536 96Q559 103 576 112Z" glyph-name="Euro" horiz-adv-x="630" unicode="&#8364;" /><glyph d="M48 270V342H127Q146 420 210 466.5Q274 513 371 513Q406 513 431.5 509Q457 505 473 500Q492 494 505 487L497 403Q483 410 465 416Q449 421 427 425Q405 429 377 429Q321 429 285.5 404Q250 379 236 342H443L414 270ZM503 20Q489 11 468 5Q449 -2 422.5 -6.5Q396 -11 359 -11Q272 -11 208 30Q144 71 123 150H48V221H392L363 150H234Q251 112 288.5 93Q326 74 371 74Q401 74 425.5 79Q450 84 467 90Q487 97 503 106Z" glyph-name="Euro.old" horiz-adv-x="558" /><glyph d="M71 270V342H150Q169 420 233 466.5Q297 513 394 513Q429 513 454.5 509Q480 505 496 500Q515 494 528 487L520 403Q506 410 488 416Q472 421 450 425Q428 429 400 429Q344 429 308.5 404Q273 379 259 342H466L437 270ZM526 20Q512 11 491 5Q472 -2 445.5 -6.5Q419 -11 382 -11Q295 -11 231 30Q167 71 146 150H71V221H415L386 150H257Q274 112 311.5 93Q349 74 394 74Q424 74 448.5 79Q473 84 490 90Q510 97 526 106Z" glyph-name="Euro.oldtab" horiz-adv-x="603" /><glyph d="M41 298V361H103Q123 452 184.5 506Q246 560 346 560Q379 560 403.5 556.5Q428 553 445 549Q464 543 478 537L465 459Q452 465 435 470Q419 474 398.5 477Q378 480 352 480Q293 480 257.5 447.5Q222 415 208 361H402L377 298ZM474 16Q460 9 442 4Q425 -2 402.5 -5.5Q380 -9 350 -9Q249 -9 182 42.5Q115 94 98 194H41V257H360L335 194H204Q217 133 255.5 102.5Q294 72 356 72Q383 72 405 75.5Q427 79 442 84Q460 89 474 96Z" glyph-name="Euro.sc" horiz-adv-x="524" /><glyph d="M30 389V465H108Q132 585 206.5 656Q281 727 406 727Q446 727 475.5 722.5Q505 718 525 713Q549 707 565 699L557 610Q539 618 517 624Q496 629 469.5 633Q443 637 409 637Q331 637 283.5 590.5Q236 544 219 465H468L438 389ZM563 21Q546 12 523 5Q502 -2 473.5 -6.5Q445 -11 407 -11Q280 -11 201 57Q122 125 102 256H30V332H416L385 256H214Q229 167 280 123Q331 79 412 79Q448 79 476 84Q504 89 523 96Q546 103 563 112Z" glyph-name="Euro.tab" horiz-adv-x="603" /><glyph d="M86 716H477V623H191V406H430V314H191V0H86Z" glyph-name="F" horiz-adv-x="505" unicode="F" /><glyph d="M76 550H401V468H174V315H361V232H174V0H76Z" glyph-name="F.sc" horiz-adv-x="430" /><glyph d="M86 0V716H638V93H925V0H534V623H190V406H425V314H190V0Z" glyph-name="F_L" horiz-adv-x="938" /><glyph d="M76 0V550H537V83H765V0H440V468H174V315H354V232H174V0Z" glyph-name="F_L.sc" horiz-adv-x="782" /><glyph d="M821 511 858 595Q832 600 817 616.5Q802 633 802 659Q802 685 819 705.5Q836 726 868 726Q900 726 916 706Q932 686 932 656Q932 622 914.5 581Q897 540 871 490ZM86 0V716H638V93H925V0H534V623H190V406H425V314H190V0Z" glyph-name="F_Lcaron" horiz-adv-x="973" /><glyph d="M680 387 710 453Q661 462 661 505Q661 527 676 543.5Q691 560 719 560Q747 560 761.5 544Q776 528 776 502Q776 475 760.5 441.5Q745 408 723 369ZM76 0V550H537V83H765V0H440V468H174V315H354V232H174V0Z" glyph-name="F_Lcaron.sc" horiz-adv-x="814" /><glyph d="M394 -11Q300 -11 234.5 16Q169 43 128 92Q87 141 68.5 208Q50 275 50 355Q50 435 69.5 503Q89 571 130 620.5Q171 670 234 698.5Q297 727 384 727Q427 727 459 722.5Q491 718 512 712Q538 705 556 697V609Q535 617 509 623Q486 628 456.5 632Q427 636 390 636Q327 636 283 616Q239 596 211.5 559.5Q184 523 171 471.5Q158 420 158 357Q158 293 172 241.5Q186 190 214.5 154Q243 118 287 98.5Q331 79 392 79Q435 79 472 87V311H317V401H568V16Q545 8 517 3Q492 -3 461.5 -7Q431 -11 394 -11Z" glyph-name="G" horiz-adv-x="631" unicode="G" /><glyph d="M332 -10Q255 -10 201 11Q147 32 112.5 69.5Q78 107 62 158.5Q46 210 46 272Q46 334 62.5 386.5Q79 439 113.5 477Q148 515 200 537Q252 559 324 559Q358 559 384 555.5Q410 552 428 548Q449 542 465 536V457Q448 463 427 468Q408 472 384.5 475Q361 478 332 478Q235 478 191.5 422Q148 366 148 272Q148 178 191 125Q234 72 328 72Q359 72 386 77V232H270V311H474V12Q455 6 433 1Q412 -3 387 -6.5Q362 -10 332 -10Z" glyph-name="G.sc" horiz-adv-x="531" /><glyph d="M394 -11Q300 -11 234.5 16Q169 43 128 92Q87 141 68.5 208Q50 275 50 355Q50 435 69.5 503Q89 571 130 620.5Q171 670 234 698.5Q297 727 384 727Q427 727 459 722.5Q491 718 512 712Q538 705 556 697V609Q535 617 509 623Q486 628 456.5 632Q427 636 390 636Q327 636 283 616Q239 596 211.5 559.5Q184 523 171 471.5Q158 420 158 357Q158 293 172 241.5Q186 190 214.5 154Q243 118 287 98.5Q331 79 392 79Q435 79 472 87V314H317V405H838V716H942V0H838V312H568V16Q545 8 517 3Q492 -3 461.5 -7Q431 -11 394 -11Z" glyph-name="G_H" horiz-adv-x="1028" /><glyph d="M331 -10Q255 -10 200.5 11Q146 32 112 69.5Q78 107 62 158.5Q46 210 46 272Q46 334 62.5 386.5Q79 439 113.5 477Q148 515 200 537Q252 559 324 559Q358 559 384 555.5Q410 552 428 548Q449 542 465 536V457Q448 463 427 468Q408 472 384.5 475Q361 478 332 478Q235 478 191.5 422Q148 366 148 272Q148 178 191 125Q234 72 328 72Q359 72 386 77V234H270V314H681V550H779V0H681V231H474V12Q455 6 433 1Q412 -3 386.5 -6.5Q361 -10 331 -10Z" glyph-name="G_H.sc" horiz-adv-x="855" /><glyph d="M394 -11Q300 -11 234.5 16Q169 43 128 92Q87 141 68.5 208Q50 275 50 355Q50 435 69.5 503Q89 571 130 620.5Q171 670 234 698.5Q297 727 384 727Q427 727 459 722.5Q491 718 512 712Q538 705 556 697V609Q535 617 509 623Q486 628 456.5 632Q427 636 390 636Q327 636 283 616Q239 596 211.5 559.5Q184 523 171 471.5Q158 420 158 357Q158 293 172 241.5Q186 190 214.5 154Q243 118 287 98.5Q331 79 392 79Q435 79 472 87V316H317V405H616L833 716H942L700 368L958 0H838L616 315H568V16Q545 8 517 3Q492 -3 461.5 -7Q431 -11 394 -11Z" glyph-name="G_K" horiz-adv-x="963" /><glyph d="M331 -10Q255 -10 200.5 11Q146 32 112 69.5Q78 107 62 158.5Q46 210 46 272Q46 334 62.5 386.5Q79 439 113.5 477Q148 515 200 537Q252 559 324 559Q358 559 384 555.5Q410 552 428 548Q449 542 465 536V457Q448 463 427 468Q408 472 384.5 475Q361 478 332 478Q235 478 191.5 422Q148 366 148 272Q148 178 191 125Q234 72 328 72Q359 72 386 77V235H270V313H509L676 550H778L588 280L791 0H680L509 234H474V12Q455 6 433 1Q412 -3 386.5 -6.5Q361 -10 331 -10Z" glyph-name="G_K.sc" horiz-adv-x="802" /><glyph d="M938 -8Q899 -8 869 5Q839 18 805 46L789 0H711V688H600Q556 688 556 647V609Q555 609 542 613.5Q529 618 507.5 623Q486 628 456 632Q426 636 390 636Q327 636 283 616Q239 596 211.5 559.5Q184 523 171 471.5Q158 420 158 357Q158 293 172 241.5Q186 190 214.5 154Q243 118 287 98.5Q331 79 392 79Q435 79 472 87V311H317V401H568V16Q545 8 517 3Q492 -3 461.5 -7Q431 -11 394 -11Q300 -11 234.5 16Q169 43 128 92Q87 141 68.5 208Q50 275 50 355Q50 435 69.5 503Q89 571 130 620.5Q171 670 234 698.5Q297 727 384 727Q415 727 440.5 724.5Q466 722 486 717Q495 742 516.5 754Q538 766 569 766H813V449Q826 467 846 481Q864 494 889.5 503.5Q915 513 952 513Q1005 513 1043.5 493.5Q1082 474 1107 440Q1132 406 1144 360.5Q1156 315 1156 263Q1156 200 1141 150Q1126 100 1098 64.5Q1070 29 1029.5 10.5Q989 -8 938 -8ZM813 109Q825 100 841 93Q855 86 873.5 81Q892 76 915 76Q987 76 1018 127Q1049 178 1049 260Q1049 338 1018.5 382.5Q988 427 921 427Q894 427 874 418Q854 409 840 398Q824 385 813 368Z" glyph-name="G_b" horiz-adv-x="1202" /><glyph d="M568 16Q545 8 517 3Q492 -3 461.5 -7Q431 -11 394 -11Q300 -11 234.5 16Q169 43 128 92Q87 141 68.5 208Q50 275 50 355Q50 435 69.5 503Q89 571 130 620.5Q171 670 234 698.5Q297 727 384 727Q415 727 440.5 724.5Q466 722 486 717Q495 742 516.5 754Q538 766 569 766H813V446Q829 465 852 480Q872 493 900.5 503Q929 513 969 513Q1016 513 1048.5 497.5Q1081 482 1101 454.5Q1121 427 1130 389.5Q1139 352 1139 308V0H1036V303Q1036 364 1010.5 395Q985 426 929 426Q901 426 879.5 418Q858 410 843 401Q826 390 813 376V0H711V688H600Q556 688 556 647V609Q535 617 509 623Q486 628 456.5 632Q427 636 390 636Q327 636 283 616Q239 596 211.5 559.5Q184 523 171 471.5Q158 420 158 357Q158 293 172 241.5Q186 190 214.5 154Q243 118 287 98.5Q331 79 392 79Q435 79 472 87V311H317V401H568Z" glyph-name="G_h" horiz-adv-x="1207" /><glyph d="M568 16Q545 8 517 3Q492 -3 461.5 -7Q431 -11 394 -11Q300 -11 234.5 16Q169 43 128 92Q87 141 68.5 208Q50 275 50 355Q50 435 69.5 503Q89 571 130 620.5Q171 670 234 698.5Q297 727 384 727Q415 727 440.5 724.5Q466 722 486 717Q504 766 566 766H813V297H855L1013 504H1123L942 268L1138 0H1015L856 217H813V0H711V688H600Q556 688 556 647V609Q535 617 509 623Q486 628 456.5 632Q427 636 390 636Q327 636 283 616Q239 596 211.5 559.5Q184 523 171 471.5Q158 420 158 357Q158 293 172 241.5Q186 190 214.5 154Q243 118 287 98.5Q331 79 392 79Q435 79 472 87V311H317V401H568Z" glyph-name="G_k" horiz-adv-x="1141" /><glyph d="M815 -8Q710 -8 710 116V688H600Q556 688 556 647V609Q535 617 509 623Q486 628 456.5 632Q427 636 390 636Q327 636 283 616Q239 596 211.5 559.5Q184 523 171 471.5Q158 420 158 357Q158 293 172 241.5Q186 190 214.5 154Q243 118 287 98.5Q331 79 392 79Q435 79 472 87V311H317V401H568V16Q545 8 517 3Q492 -3 461.5 -7Q431 -11 394 -11Q300 -11 234.5 16Q169 43 128 92Q87 141 68.5 208Q50 275 50 355Q50 435 69.5 503Q89 571 130 620.5Q171 670 234 698.5Q297 727 384 727Q415 727 440.5 724.5Q466 722 486 717Q504 766 566 766H813V139Q813 101 825.5 86.5Q838 72 868 71Q870 71 871.5 71.5Q873 72 874 72V0Q867 -2 858 -4Q850 -6 839.5 -7Q829 -8 815 -8Z" glyph-name="G_l" horiz-adv-x="907" /><glyph d="M640 860 857 966 894 879 667 798ZM815 -8Q710 -8 710 116V688H600Q556 688 556 647V609Q535 617 509 623Q486 628 456.5 632Q427 636 390 636Q327 636 283 616Q239 596 211.5 559.5Q184 523 171 471.5Q158 420 158 357Q158 293 172 241.5Q186 190 214.5 154Q243 118 287 98.5Q331 79 392 79Q435 79 472 87V311H317V401H568V16Q545 8 517 3Q492 -3 461.5 -7Q431 -11 394 -11Q300 -11 234.5 16Q169 43 128 92Q87 141 68.5 208Q50 275 50 355Q50 435 69.5 503Q89 571 130 620.5Q171 670 234 698.5Q297 727 384 727Q415 727 440.5 724.5Q466 722 486 717Q504 766 566 766H813V139Q813 101 826 86Q839 71 869 71Q871 71 872 71.5Q873 72 874 72V0Q867 -2 858 -4Q850 -6 839.5 -7Q829 -8 815 -8Z" glyph-name="G_lacute" horiz-adv-x="907" /><glyph d="M890 560 926 644Q900 649 885 665.5Q870 682 870 708Q870 734 887 754.5Q904 775 936 775Q968 775 984.5 755Q1001 735 1001 705Q1001 671 983.5 630Q966 589 940 539ZM815 -8Q710 -8 710 116V688H600Q556 688 556 647V609Q535 617 509 623Q486 628 456.5 632Q427 636 390 636Q327 636 283 616Q239 596 211.5 559.5Q184 523 171 471.5Q158 420 158 357Q158 293 172 241.5Q186 190 214.5 154Q243 118 287 98.5Q331 79 392 79Q435 79 472 87V311H317V401H568V16Q545 8 517 3Q492 -3 461.5 -7Q431 -11 394 -11Q300 -11 234.5 16Q169 43 128 92Q87 141 68.5 208Q50 275 50 355Q50 435 69.5 503Q89 571 130 620.5Q171 670 234 698.5Q297 727 384 727Q415 727 440.5 724.5Q466 722 486 717Q504 766 566 766H813V139Q813 101 826 86.5Q839 72 869 71Q871 71 872 71.5Q873 72 874 72V0Q867 -2 858 -4Q850 -6 839.5 -7Q829 -8 815 -8Z" glyph-name="G_lcaron" horiz-adv-x="949" /><glyph d="M815 -8Q710 -8 710 116V688H600Q556 688 556 647V609Q535 617 509 623Q486 628 456.5 632Q427 636 390 636Q327 636 283 616Q239 596 211.5 559.5Q184 523 171 471.5Q158 420 158 357Q158 293 172 241.5Q186 190 214.5 154Q243 118 287 98.5Q331 79 392 79Q435 79 472 87V311H317V401H568V16Q545 8 517 3Q492 -3 461.5 -7Q431 -11 394 -11Q300 -11 234.5 16Q169 43 128 92Q87 141 68.5 208Q50 275 50 355Q50 435 69.5 503Q89 571 130 620.5Q171 670 234 698.5Q297 727 384 727Q415 727 440.5 724.5Q466 722 486 717Q504 766 566 766H813V139Q813 101 825.5 86.5Q838 72 869 71Q871 71 872 71.5Q873 72 874 72V0Q867 -2 858 -4Q850 -6 839.5 -7Q829 -8 815 -8ZM743 -280 779 -196Q753 -191 738 -174.5Q723 -158 723 -132Q723 -106 740 -85.5Q757 -65 789 -65Q821 -65 837.5 -85Q854 -105 854 -135Q854 -169 836.5 -210Q819 -251 793 -301Z" glyph-name="G_lcommaaccent" horiz-adv-x="907" /><glyph d="M815 -8Q710 -8 710 116V331L630 291V374L710 415V688H600Q556 688 556 647V609Q535 617 509 623Q486 628 456.5 632Q427 636 390 636Q327 636 283 616Q239 596 211.5 559.5Q184 523 171 471.5Q158 420 158 357Q158 293 172 241.5Q186 190 214.5 154Q243 118 287 98.5Q331 79 392 79Q435 79 472 87V311H317V401H568V16Q545 8 517 3Q492 -3 461.5 -7Q431 -11 394 -11Q300 -11 234.5 16Q169 43 128 92Q87 141 68.5 208Q50 275 50 355Q50 435 69.5 503Q89 571 130 620.5Q171 670 234 698.5Q297 727 384 727Q415 727 440.5 724.5Q466 722 486 717Q504 766 566 766H813V467L900 510V427L813 383V139Q813 101 825.5 86.5Q838 72 869 71Q871 71 872 71.5Q873 72 874 72V0Q867 -2 858 -4Q850 -6 839.5 -7Q829 -8 815 -8Z" glyph-name="G_lslash" horiz-adv-x="932" /><glyph d="M394 -11Q300 -11 234.5 16Q169 43 128 92Q87 141 68.5 208Q50 275 50 355Q50 435 69.5 503Q89 571 130 620.5Q171 670 234 698.5Q297 727 384 727Q427 727 459 722.5Q491 718 512 712Q538 705 556 697V609Q535 617 509 623Q486 628 456.5 632Q427 636 390 636Q327 636 283 616Q239 596 211.5 559.5Q184 523 171 471.5Q158 420 158 357Q158 293 172 241.5Q186 190 214.5 154Q243 118 287 98.5Q331 79 392 79Q435 79 472 87V311H317V401H568V16Q545 8 517 3Q492 -3 461.5 -7Q431 -11 394 -11ZM337 786Q271 786 230 826.5Q189 867 188 934H267Q267 923 271 911Q275 899 283 888.5Q291 878 304.5 871.5Q318 865 337 865Q356 865 369.5 871.5Q383 878 391 888.5Q399 899 403 911Q407 923 407 934H487Q486 867 445 826.5Q404 786 337 786Z" glyph-name="Gbreve" horiz-adv-x="631" unicode="&#286;" /><glyph d="M286 605Q232 605 198 635.5Q164 666 162 720H231Q231 713 234 704Q237 695 243.5 687.5Q250 680 260.5 674.5Q271 669 286 669Q301 669 311.5 674.5Q322 680 328 687.5Q334 695 337 704Q340 713 340 720H410Q408 666 373 635.5Q338 605 286 605ZM332 -10Q255 -10 201 11Q147 32 112.5 69.5Q78 107 62 158.5Q46 210 46 272Q46 334 62.5 386.5Q79 439 113.5 477Q148 515 200 537Q252 559 324 559Q358 559 384 555.5Q410 552 428 548Q449 542 465 536V457Q448 463 427 468Q408 472 384.5 475Q361 478 332 478Q235 478 191.5 422Q148 366 148 272Q148 178 191 125Q234 72 328 72Q359 72 386 77V232H270V311H474V12Q455 6 433 1Q412 -3 387 -6.5Q362 -10 332 -10Z" glyph-name="Gbreve.sc" horiz-adv-x="531" /><glyph d="M336 786Q269 786 228 826.5Q187 867 186 934H265Q265 923 269 911Q273 899 281.5 888.5Q290 878 303.5 871.5Q317 865 336 865Q355 865 368 871.5Q381 878 389.5 888.5Q398 899 402 911Q406 923 406 934H485Q484 867 443 826.5Q402 786 336 786ZM938 -8Q899 -8 869 5Q839 18 805 46L789 0H711V688H600Q556 688 556 647V609Q555 609 542.5 613.5Q530 618 508 623Q486 628 456 632Q426 636 390 636Q327 636 283 616Q239 596 211.5 559.5Q184 523 171 471.5Q158 420 158 357Q158 293 172 241.5Q186 190 214.5 154Q243 118 287 98.5Q331 79 392 79Q435 79 472 87V311H317V401H568V16Q545 8 517 3Q492 -3 461.5 -7Q431 -11 394 -11Q300 -11 234.5 16Q169 43 128 92Q87 141 68.5 208Q50 275 50 355Q50 435 69.5 503Q89 571 130 620.5Q171 670 234 698.5Q297 727 384 727Q415 727 440.5 724.5Q466 722 486 717Q495 742 516.5 754Q538 766 569 766H813V449Q826 467 846 481Q864 494 889.5 503.5Q915 513 952 513Q1005 513 1043.5 493.5Q1082 474 1107 440Q1132 406 1144 360.5Q1156 315 1156 263Q1156 200 1141 150Q1126 100 1098 64.5Q1070 29 1029.5 10.5Q989 -8 938 -8ZM813 109Q825 100 841 93Q855 86 873.5 81Q892 76 915 76Q987 76 1018 127Q1049 178 1049 260Q1049 338 1018.5 382.5Q988 427 921 427Q894 427 874 418Q854 409 840 398Q824 385 813 368Z" glyph-name="Gbreve_b" horiz-adv-x="1202" /><glyph d="M336 786Q269 786 228 826.5Q187 867 186 934H265Q265 923 269 911Q273 899 281.5 888.5Q290 878 303.5 871.5Q317 865 336 865Q355 865 368 871.5Q381 878 389.5 888.5Q398 899 402 911Q406 923 406 934H485Q484 867 443 826.5Q402 786 336 786ZM815 -8Q710 -8 710 116V688H600Q556 688 556 647V609Q535 617 509 623Q486 628 456.5 632Q427 636 390 636Q327 636 283 616Q239 596 211.5 559.5Q184 523 171 471.5Q158 420 158 357Q158 293 172 241.5Q186 190 214.5 154Q243 118 287 98.5Q331 79 392 79Q435 79 472 87V311H317V401H568V16Q545 8 517 3Q492 -3 461.5 -7Q431 -11 394 -11Q300 -11 234.5 16Q169 43 128 92Q87 141 68.5 208Q50 275 50 355Q50 435 69.5 503Q89 571 130 620.5Q171 670 234 698.5Q297 727 384 727Q415 727 440.5 724.5Q466 722 486 717Q504 766 566 766H813V139Q813 101 825.5 86.5Q838 72 869 71Q871 71 872 71.5Q873 72 874 72V0Q867 -2 858 -4Q850 -6 839.5 -7Q829 -8 815 -8Z" glyph-name="Gbreve_l" horiz-adv-x="907" /><glyph d="M394 -11Q300 -11 234.5 16Q169 43 128 92Q87 141 68.5 208Q50 275 50 355Q50 435 69.5 503Q89 571 130 620.5Q171 670 234 698.5Q297 727 384 727Q427 727 459 722.5Q491 718 512 712Q538 705 556 697V609Q535 617 509 623Q486 628 456.5 632Q427 636 390 636Q327 636 283 616Q239 596 211.5 559.5Q184 523 171 471.5Q158 420 158 357Q158 293 172 241.5Q186 190 214.5 154Q243 118 287 98.5Q331 79 392 79Q435 79 472 87V311H317V401H568V16Q545 8 517 3Q492 -3 461.5 -7Q431 -11 394 -11ZM184 826 325 945H386L528 826L493 778L356 864L217 778Z" glyph-name="Gcircumflex" horiz-adv-x="631" unicode="&#284;" /><glyph d="M157 638 270 731H326L439 638L408 598L298 664L186 598ZM332 -10Q255 -10 201 11Q147 32 112.5 69.5Q78 107 62 158.5Q46 210 46 272Q46 334 62.5 386.5Q79 439 113.5 477Q148 515 200 537Q252 559 324 559Q358 559 384 555.5Q410 552 428 548Q449 542 465 536V457Q448 463 427 468Q408 472 384.5 475Q361 478 332 478Q235 478 191.5 422Q148 366 148 272Q148 178 191 125Q234 72 328 72Q359 72 386 77V232H270V311H474V12Q455 6 433 1Q412 -3 387 -6.5Q362 -10 332 -10Z" glyph-name="Gcircumflex.sc" horiz-adv-x="531" /><glyph d="M394 -11Q300 -11 234.5 16Q169 43 128 92Q87 141 68.5 208Q50 275 50 355Q50 435 69.5 503Q89 571 130 620.5Q171 670 234 698.5Q297 727 384 727Q427 727 459 722.5Q491 718 512 712Q538 705 556 697V609Q535 617 509 623Q486 628 456.5 632Q427 636 390 636Q327 636 283 616Q239 596 211.5 559.5Q184 523 171 471.5Q158 420 158 357Q158 293 172 241.5Q186 190 214.5 154Q243 118 287 98.5Q331 79 392 79Q435 79 472 87V311H317V401H568V16Q545 8 517 3Q492 -3 461.5 -7Q431 -11 394 -11ZM315 -280 352 -196Q326 -191 311 -174.5Q296 -158 296 -132Q296 -106 313 -85.5Q330 -65 362 -65Q394 -65 410 -85Q426 -105 426 -135Q426 -169 408.5 -210Q391 -251 365 -301Z" glyph-name="Gcommaaccent" horiz-adv-x="631" unicode="&#290;" /><glyph d="M332 -10Q255 -10 201 11Q147 32 112.5 69.5Q78 107 62 158.5Q46 210 46 272Q46 334 62.5 386.5Q79 439 113.5 477Q148 515 200 537Q252 559 324 559Q358 559 384 555.5Q410 552 428 548Q449 542 465 536V457Q448 463 427 468Q408 472 384.5 475Q361 478 332 478Q235 478 191.5 422Q148 366 148 272Q148 178 191 125Q234 72 328 72Q359 72 386 77V232H270V311H474V12Q455 6 433 1Q412 -3 387 -6.5Q362 -10 332 -10ZM270 -238 300 -172Q251 -163 251 -118Q251 -97 266 -80.5Q281 -64 309 -64Q337 -64 351 -80Q365 -96 365 -122Q365 -149 350.5 -182Q336 -215 314 -254Z" glyph-name="Gcommaaccent.sc" horiz-adv-x="531" /><glyph d="M394 -11Q300 -11 234.5 16Q169 43 128 92Q87 141 68.5 208Q50 275 50 355Q50 435 69.5 503Q89 571 130 620.5Q171 670 234 698.5Q297 727 384 727Q427 727 459 722.5Q491 718 512 712Q538 705 556 697V609Q535 617 509 623Q486 628 456.5 632Q427 636 390 636Q327 636 283 616Q239 596 211.5 559.5Q184 523 171 471.5Q158 420 158 357Q158 293 172 241.5Q186 190 214.5 154Q243 118 287 98.5Q331 79 392 79Q435 79 472 87V311H317V401H568V16Q545 8 517 3Q492 -3 461.5 -7Q431 -11 394 -11ZM345 801Q316 801 298.5 819.5Q281 838 281 867Q281 896 299 914Q317 932 346 932Q377 932 395 914Q413 896 413 867Q413 838 395 819.5Q377 801 345 801Z" glyph-name="Gdotaccent" horiz-adv-x="631" unicode="&#288;" /><glyph d="M292 615Q266 615 251.5 630Q237 645 237 668Q237 691 251.5 706Q266 721 293 721Q320 721 335 706Q350 691 350 669Q350 646 335 630.5Q320 615 292 615ZM332 -10Q255 -10 201 11Q147 32 112.5 69.5Q78 107 62 158.5Q46 210 46 272Q46 334 62.5 386.5Q79 439 113.5 477Q148 515 200 537Q252 559 324 559Q358 559 384 555.5Q410 552 428 548Q449 542 465 536V457Q448 463 427 468Q408 472 384.5 475Q361 478 332 478Q235 478 191.5 422Q148 366 148 272Q148 178 191 125Q234 72 328 72Q359 72 386 77V232H270V311H474V12Q455 6 433 1Q412 -3 387 -6.5Q362 -10 332 -10Z" glyph-name="Gdotaccent.sc" horiz-adv-x="531" /><glyph d="M394 -11Q300 -11 234.5 16Q169 43 128 92Q87 141 68.5 208Q50 275 50 355Q50 435 69.5 503Q89 571 130 620.5Q171 670 234 698.5Q297 727 384 727Q427 727 459 722.5Q491 718 512 712Q538 705 556 697V609Q535 617 509 623Q486 628 456.5 632Q427 636 390 636Q327 636 283 616Q239 596 211.5 559.5Q184 523 171 471.5Q158 420 158 357Q158 293 172 241.5Q186 190 214.5 154Q243 118 287 98.5Q331 79 392 79Q435 79 472 87V316H317V405H616L833 716H942L700 368L958 0H838L616 315H568V16Q545 8 517 3Q492 -3 461.5 -7Q431 -11 394 -11ZM345 801Q316 801 298.5 819.5Q281 838 281 867Q281 896 299 914Q317 932 346 932Q377 932 395 914Q413 896 413 867Q413 838 395 819.5Q377 801 345 801Z" glyph-name="Gdotaccent_K" horiz-adv-x="963" /><glyph d="M345 801Q316 801 298 819.5Q280 838 280 867Q280 896 298 914Q316 932 346 932Q376 932 394 914Q412 896 412 867Q412 838 394 819.5Q376 801 345 801ZM938 -8Q899 -8 869 5Q839 18 805 46L789 0H711V688H600Q556 688 556 647V609Q556 609 543.5 613.5Q531 618 509 623Q487 628 456.5 632Q426 636 390 636Q327 636 283 616Q239 596 211.5 559.5Q184 523 171 471.5Q158 420 158 357Q158 293 172 241.5Q186 190 214.5 154Q243 118 287 98.5Q331 79 392 79Q435 79 472 87V311H317V401H568V16Q545 8 517 3Q492 -3 461.5 -7Q431 -11 394 -11Q300 -11 234.5 16Q169 43 128 92Q87 141 68.5 208Q50 275 50 355Q50 435 69.5 503Q89 571 130 620.5Q171 670 234 698.5Q297 727 384 727Q415 727 440.5 724.5Q466 722 486 717Q495 742 516.5 754Q538 766 569 766H813V449Q826 467 846 481Q864 494 889.5 503.5Q915 513 952 513Q1005 513 1043.5 493.5Q1082 474 1107 440Q1132 406 1144 360.5Q1156 315 1156 263Q1156 200 1141 150Q1126 100 1098 64.5Q1070 29 1029.5 10.5Q989 -8 938 -8ZM813 109Q825 100 841 93Q855 86 873.5 81Q892 76 915 76Q987 76 1018 127Q1049 178 1049 260Q1049 338 1018.5 382.5Q988 427 921 427Q894 427 874 418Q854 409 840 398Q824 385 813 368Z" glyph-name="Gdotaccent_b" horiz-adv-x="1202" /><glyph d="M345 801Q316 801 298 819.5Q280 838 280 867Q280 896 298 914Q316 932 346 932Q376 932 394 914Q412 896 412 867Q412 838 394 819.5Q376 801 345 801ZM568 16Q545 8 517 3Q492 -3 461.5 -7Q431 -11 394 -11Q300 -11 234.5 16Q169 43 128 92Q87 141 68.5 208Q50 275 50 355Q50 435 69.5 503Q89 571 130 620.5Q171 670 234 698.5Q297 727 384 727Q415 727 440.5 724.5Q466 722 486 717Q504 766 566 766H813V297H855L1013 504H1123L942 268L1138 0H1015L856 217H813V0H711V688H600Q556 688 556 647V609Q535 617 509 623Q486 628 456.5 632Q427 636 390 636Q327 636 283 616Q239 596 211.5 559.5Q184 523 171 471.5Q158 420 158 357Q158 293 172 241.5Q186 190 214.5 154Q243 118 287 98.5Q331 79 392 79Q435 79 472 87V311H317V401H568Z" glyph-name="Gdotaccent_k" horiz-adv-x="1141" /><glyph d="M345 801Q316 801 298 819.5Q280 838 280 867Q280 896 298 914Q316 932 346 932Q376 932 394 914Q412 896 412 867Q412 838 394 819.5Q376 801 345 801ZM815 -8Q710 -8 710 116V688H600Q556 688 556 647V609Q535 617 509 623Q486 628 456.5 632Q427 636 390 636Q327 636 283 616Q239 596 211.5 559.5Q184 523 171 471.5Q158 420 158 357Q158 228 214.5 153.5Q271 79 392 79Q434 79 472 87V311H317V401H568V16Q545 8 517 3Q492 -3 461.5 -7Q431 -11 394 -11Q300 -11 234.5 16Q169 43 128 92Q87 141 68.5 208Q50 275 50 355Q50 435 69.5 503Q89 571 130 620.5Q171 670 234 698.5Q297 727 384 727Q415 727 440.5 724.5Q466 722 486 717Q504 766 566 766H813V139Q813 101 825.5 86.5Q838 72 869 71Q871 71 872 71.5Q873 72 874 72V0Q867 -2 858 -4Q850 -6 839.5 -7Q829 -8 815 -8Z" glyph-name="Gdotaccent_l" horiz-adv-x="907" /><glyph d="M86 716H191V410H494V716H598V0H494V316H191V0H86Z" glyph-name="H" horiz-adv-x="685" unicode="H" /><glyph d="M76 550H174V321H403V550H501V0H403V237H174V0H76Z" glyph-name="H.sc" horiz-adv-x="577" /><glyph d="M693 413Q759 413 789.5 443Q820 473 820 526Q820 579 785 604Q750 629 685 629H597V413ZM707 87Q777 87 813.5 119Q850 151 850 208Q850 266 817 296Q784 326 708 326H597V87ZM86 716H190V417H493V716H684Q810 716 867 665.5Q924 615 924 530Q924 478 900.5 439.5Q877 401 833 378Q866 369 889.5 351.5Q913 334 928 311.5Q943 289 950 262.5Q957 236 957 208Q957 155 939 115.5Q921 76 888 50.5Q855 25 809 12.5Q763 0 706 0H493V323H190V0H86Z" glyph-name="H_B" horiz-adv-x="1002" /><glyph d="M572 320Q621 320 643.5 341.5Q666 363 666 401Q666 439 640 457Q614 475 566 475H499V320ZM76 550H174V325H403V550H564Q669 550 716 511Q763 472 763 405Q763 365 743.5 335.5Q724 306 691 289Q742 275 765.5 240Q789 205 789 161Q789 79 732.5 39.5Q676 0 580 0H403V242H174V0H76ZM581 75Q634 75 661 97.5Q688 120 688 161Q688 203 664 224Q640 245 583 245H499V75Z" glyph-name="H_B.sc" horiz-adv-x="831" /><glyph d="M697 93Q798 93 857.5 156.5Q917 220 917 358Q917 427 901.5 477.5Q886 528 857 560Q828 592 787.5 607.5Q747 623 697 623H597V93ZM190 0H86V716H190V410H493V716H695Q856 716 940.5 624Q1025 532 1025 358Q1025 184 940.5 92Q856 0 695 0H493V316H190Z" glyph-name="H_D" horiz-adv-x="1076" /><glyph d="M572 83Q648 83 693 130Q738 177 738 275Q738 374 693 420.5Q648 467 572 467H501V83ZM174 0H76V550H174V321H403V550H567Q702 550 770.5 477.5Q839 405 839 275Q839 146 770.5 73Q702 0 567 0H403V237H174Z" glyph-name="H_D.sc" horiz-adv-x="885" /><glyph d="M190 0H86V716H190V410H493V716H886V623H597V409H837V318H597V93H886V0H493V316H190Z" glyph-name="H_E" horiz-adv-x="936" /><glyph d="M174 0H76V550H174V321H403V550H731V468H501V319H688V239H501V82H731V0H403V237H174Z" glyph-name="H_E.sc" horiz-adv-x="778" /><glyph d="M190 0H86V716H190V410H493V716H886V623H597V409H837V318H597V93H886V0H493V316H190ZM594 840 810 946 847 859 620 778Z" glyph-name="H_Eacute" horiz-adv-x="936" /><glyph d="M489 650 665 732 698 659 513 598ZM174 0H76V550H174V321H403V550H731V468H501V319H688V239H501V82H731V0H403V237H174Z" glyph-name="H_Eacute.sc" horiz-adv-x="778" /><glyph d="M190 0H86V716H190V410H493V716H886V623H597V409H837V318H597V93H886V0H493V316H190ZM516 826 657 945H718L860 826L825 778L688 864L549 778Z" glyph-name="H_Ecircumflex" horiz-adv-x="936" /><glyph d="M425 638 539 731H594L708 638L678 598L566 664L456 598ZM174 0H76V550H174V321H403V550H731V468H501V319H688V239H501V82H731V0H403V237H174Z" glyph-name="H_Ecircumflex.sc" horiz-adv-x="778" /><glyph d="M190 0H86V716H190V410H493V716H886V623H597V409H837V318H597V93H886V0H493V316H190ZM600 801Q573 801 555.5 818.5Q538 836 538 865Q538 893 555.5 910.5Q573 928 601 928Q630 928 647.5 910.5Q665 893 665 866Q665 837 647 819Q629 801 600 801ZM788 801Q761 801 743 818.5Q725 836 725 865Q725 893 743 910.5Q761 928 789 928Q818 928 835.5 910.5Q853 893 853 866Q853 837 835 819Q817 801 788 801Z" glyph-name="H_Edieresis" horiz-adv-x="936" /><glyph d="M494 615Q468 615 454 630Q440 645 440 667Q440 690 454.5 704Q469 718 495 718Q521 718 535 704Q549 690 549 668Q549 645 534.5 630Q520 615 494 615ZM647 615Q623 615 608 630Q593 645 593 667Q593 690 607.5 704Q622 718 648 718Q674 718 688.5 704Q703 690 703 668Q703 645 688 630Q673 615 647 615ZM174 0H76V550H174V321H403V550H731V468H501V319H688V239H501V82H731V0H403V237H174Z" glyph-name="H_Edieresis.sc" horiz-adv-x="778" /><glyph d="M190 0H86V716H190V410H493V716H886V623H597V409H837V318H597V93H886V0H493V316H190ZM693 801Q664 801 646.5 819.5Q629 838 629 867Q629 896 647 914Q665 932 694 932Q725 932 743 914Q761 896 761 867Q761 838 743 819.5Q725 801 693 801Z" glyph-name="H_Edotaccent" horiz-adv-x="936" /><glyph d="M569 615Q543 615 528 630Q513 645 513 668Q513 691 527.5 706Q542 721 570 721Q598 721 612.5 706Q627 691 627 669Q627 646 612 630.5Q597 615 569 615ZM174 0H76V550H174V321H403V550H731V468H501V319H688V239H501V82H731V0H403V237H174Z" glyph-name="H_Edotaccent.sc" horiz-adv-x="778" /><glyph d="M190 0H86V716H190V410H493V716H886V623H597V409H837V318H597V93H886V0H493V316H190ZM535 859 572 946 788 840 762 778Z" glyph-name="H_Egrave" horiz-adv-x="936" /><glyph d="M442 659 475 732 651 650 628 598ZM174 0H76V550H174V321H403V550H731V468H501V319H688V239H501V82H731V0H403V237H174Z" glyph-name="H_Egrave.sc" horiz-adv-x="778" /><glyph d="M190 0H86V716H190V410H493V716H886V623H597V409H837V318H597V93H886V0H493V316H190ZM554 903H834V819H554Z" glyph-name="H_Emacron" horiz-adv-x="936" /><glyph d="M457 699H684V629H457ZM174 0H76V550H174V321H403V550H731V468H501V319H688V239H501V82H731V0H403V237H174Z" glyph-name="H_Emacron.sc" horiz-adv-x="778" /><glyph d="M493 0V316H190V0H86V716H190V410H493V716H886V623H597V409H837V318H597V93H886V0Q833 -29 815.5 -57.5Q798 -86 798 -109Q798 -153 845 -153Q859 -153 870 -148.5Q881 -144 889.5 -138.5Q898 -133 903.5 -128.5Q909 -124 910 -123V-187Q908 -188 901.5 -194Q895 -200 883 -207Q871 -214 853.5 -219.5Q836 -225 813 -225Q765 -225 736 -197Q707 -169 707 -127Q707 -92 726.5 -56Q746 -20 793 0Z" glyph-name="H_Eogonek" horiz-adv-x="936" /><glyph d="M403 0V237H174V0H76V550H174V321H403V550H731V468H501V319H688V239H501V82H731V0Q691 -21 676 -42.5Q661 -64 661 -81Q661 -115 699 -115Q719 -115 733 -105.5Q747 -96 750 -94V-145Q748 -147 741.5 -151.5Q735 -156 725 -161Q715 -166 701.5 -170Q688 -174 670 -174Q630 -174 605.5 -152Q581 -130 581 -97Q581 -68 597.5 -41Q614 -14 651 0Z" glyph-name="H_Eogonek.sc" horiz-adv-x="778" /><glyph d="M190 0H86V716H190V410H493V716H884V623H597V406H837V314H597V0H493V316H190Z" glyph-name="H_F" horiz-adv-x="911" /><glyph d="M174 0H76V550H174V321H403V550H728V468H501V315H689V232H501V0H403V237H174Z" glyph-name="H_F.sc" horiz-adv-x="757" /><glyph d="M86 716H190V410H493V716H597V409H643L877 716H987L727 372L1002 0H882L643 319H597V0H493V316H190V0H86Z" glyph-name="H_K" horiz-adv-x="1007" /><glyph d="M76 550H174V321H403V550H501V319H534L712 550H815L612 286L828 0H716L534 239H501V0H403V237H174V0H76Z" glyph-name="H_K.sc" horiz-adv-x="838" /><glyph d="M86 716H190V410H493V716H638L855 192L1066 716H1199V0H1098V576L886 48H812L597 581V0H493V316H190V0H86Z" glyph-name="H_M" horiz-adv-x="1284" /><glyph d="M76 550H174V321H403V550H537L706 160L870 550H992V0H899V425L737 37H666L501 430V0H403V237H174V0H76Z" glyph-name="H_M.sc" horiz-adv-x="1068" /><glyph d="M86 716H190V410H494V716H591L917 182V716H1013V0H917L591 535V0H494V316H190V0H86Z" glyph-name="H_N" horiz-adv-x="1098" /><glyph d="M76 550H174V321H403V550H494L746 161V550H834V0H746L494 389V0H403V237H174V0H76Z" glyph-name="H_N.sc" horiz-adv-x="910" /><glyph d="M86 716H190V410H494V716H591L917 182V716H1013V0H917L591 535V0H494V316H190V0H86ZM591 896 624 945 763 859 900 945 935 896 793 778H731Z" glyph-name="H_Ncaron" horiz-adv-x="1098" /><glyph d="M486 690 515 731 626 665 737 731 768 690 653 598H598ZM76 550H174V321H403V550H494L746 161V550H834V0H746L494 389V0H403V237H174V0H76Z" glyph-name="H_Ncaron.sc" horiz-adv-x="910" /><glyph d="M683 386Q751 386 792.5 416Q834 446 834 508Q834 566 798 596Q762 626 681 626H597V386ZM86 716H190V388H493V716H681Q815 716 877.5 660.5Q940 605 940 512Q940 460 921.5 420Q903 380 869 352.5Q835 325 787 310.5Q739 296 681 296H597V0H493V296H190V0H86Z" glyph-name="H_P" horiz-adv-x="970" /><glyph d="M564 299Q615 299 645.5 321Q676 343 676 387Q676 428 649 449.5Q622 471 563 471H501V299ZM76 550H174V303H403V550H564Q670 550 722.5 506.5Q775 463 775 390Q775 349 759.5 317.5Q744 286 716.5 264Q689 242 650 231Q611 220 564 220H501V0H403V220H174V0H76Z" glyph-name="H_P.sc" horiz-adv-x="805" /><glyph d="M689 388Q717 388 742 396.5Q767 405 785.5 421Q804 437 814.5 460Q825 483 825 512Q825 567 791.5 596.5Q758 626 692 626H597V388ZM86 716H190V391H493V716H694Q809 716 870 663Q931 610 931 514Q931 448 895 397Q859 346 799 323L971 0H857L698 299H597V0H493V298H190V0H86Z" glyph-name="H_R" horiz-adv-x="990" /><glyph d="M569 303Q611 303 640.5 326Q670 349 670 390Q670 429 645.5 450Q621 471 571 471H501V303ZM76 550H174V307H403V550H571Q668 550 719 508.5Q770 467 770 393Q770 342 742 303.5Q714 265 667 248L801 0H695L573 224H501V0H403V224H174V0H76Z" glyph-name="H_R.sc" horiz-adv-x="827" /><glyph d="M689 388Q717 388 742 396.5Q767 405 785.5 421Q804 437 814.5 460Q825 483 825 512Q825 567 791.5 596.5Q758 626 692 626H597V388ZM86 716H190V391H493V716H694Q809 716 870 663Q931 610 931 514Q931 448 895 397Q859 346 799 323L971 0H857L698 299H597V0H493V298H190V0H86ZM607 840 823 946 860 859 633 778Z" glyph-name="H_Racute" horiz-adv-x="990" /><glyph d="M501 650 677 732 710 659 526 598ZM569 303Q611 303 640.5 326Q670 349 670 391Q670 429 645.5 450Q621 471 571 471H501V303ZM76 550H174V307H403V550H571Q668 550 719 508.5Q770 467 770 393Q770 342 742 303.5Q714 265 667 248L801 0H695L573 224H501V0H403V224H174V0H76Z" glyph-name="H_Racute.sc" horiz-adv-x="827" /><glyph d="M689 388Q717 388 742 396.5Q767 405 785.5 421Q804 437 814.5 460Q825 483 825 512Q825 567 791.5 596.5Q758 626 692 626H597V388ZM86 716H190V391H493V716H694Q809 716 870 663Q931 610 931 514Q931 448 895 397Q859 346 799 323L971 0H857L698 299H597V0H493V298H190V0H86ZM521 896 554 945 693 859 830 945 865 896 723 778H661Z" glyph-name="H_Rcaron" horiz-adv-x="990" /><glyph d="M431 690 461 731 572 665 683 731 714 690 600 598H544ZM569 303Q611 303 640.5 326Q670 349 670 391Q670 429 645.5 450Q621 471 571 471H501V303ZM76 550H174V307H403V550H571Q668 550 719 508.5Q770 467 770 393Q770 342 742 303.5Q714 265 667 248L801 0H695L573 224H501V0H403V224H174V0H76Z" glyph-name="H_Rcaron.sc" horiz-adv-x="827" /><glyph d="M86 716H190V408H521V623H347V716H823V623H626V0H521V315H190V0H86Z" glyph-name="H_T" horiz-adv-x="837" /><glyph d="M76 550H174V318H427V467H291V550H679V467H525V0H427V235H174V0H76Z" glyph-name="H_T.sc" horiz-adv-x="697" /><glyph d="M86 716H190V408H521V623H347V716H823V623H626V0H521V315H190V0H86ZM402 896 435 945 574 859 711 945 746 896 604 778H542Z" glyph-name="H_Tcaron" horiz-adv-x="837" /><glyph d="M335 690 365 731 476 665 587 731 618 690 503 598H448ZM76 550H174V318H427V467H291V550H679V467H525V0H427V235H174V0H76Z" glyph-name="H_Tcaron.sc" horiz-adv-x="697" /><glyph d="M86 716H190V410H493V716H597V250Q597 160 636 119.5Q675 79 752 79Q826 79 865 119Q904 159 906 249V716H1010V250Q1010 183 991.5 133.5Q973 84 939 52Q905 20 857.5 4.5Q810 -11 752 -11Q694 -11 646.5 4Q599 19 565.5 50.5Q532 82 513 130.5Q494 179 493 246V316H190V0H86Z" glyph-name="H_U" horiz-adv-x="1089" /><glyph d="M76 550H174V321H403V550H501V196Q501 130 530.5 101Q560 72 617 72Q672 72 702 101Q732 130 734 196V550H831V196Q831 144 815.5 105.5Q800 67 771.5 41.5Q743 16 704 3.5Q665 -9 617 -9Q571 -9 532 3Q493 15 464.5 39.5Q436 64 420 101.5Q404 139 403 191V237H174V0H76Z" glyph-name="H_U.sc" horiz-adv-x="902" /><glyph d="M86 716H190V410H493V716H597V250Q597 160 636 119.5Q675 79 752 79Q826 79 865 119Q904 159 906 249V716H1010V250Q1010 183 991.5 133.5Q973 84 939 52Q905 20 857.5 4.5Q810 -11 752 -11Q694 -11 646.5 4Q599 19 565.5 50.5Q532 82 513 130.5Q494 179 493 246V316H190V0H86ZM686 840 902 946 939 859 712 778Z" glyph-name="H_Uacute" horiz-adv-x="1089" /><glyph d="M560 650 736 732 769 659 584 598ZM76 550H174V321H403V550H501V196Q501 130 530.5 101Q560 72 617 72Q672 72 702 101Q732 130 734 196V550H831V196Q831 144 815.5 105.5Q800 67 771.5 41.5Q743 16 704 3.5Q665 -9 617 -9Q571 -9 532 3Q493 15 464.5 39.5Q436 64 420 101.5Q404 139 403 191V237H174V0H76Z" glyph-name="H_Uacute.sc" horiz-adv-x="902" /><glyph d="M86 716H190V410H493V716H597V250Q597 160 636 119.5Q675 79 752 79Q826 79 865 119Q904 159 906 249V716H1010V250Q1010 183 991.5 133.5Q973 84 939 52Q905 20 857.5 4.5Q810 -11 752 -11Q694 -11 646.5 4Q599 19 565.5 50.5Q532 82 513 130.5Q494 179 493 246V316H190V0H86ZM657 801Q630 801 612.5 818.5Q595 836 595 865Q595 893 612.5 910.5Q630 928 658 928Q687 928 704.5 910.5Q722 893 722 866Q722 837 704 819Q686 801 657 801ZM845 801Q818 801 800 818.5Q782 836 782 865Q782 893 800 910.5Q818 928 846 928Q875 928 892.5 910.5Q910 893 910 866Q910 837 892 819Q874 801 845 801Z" glyph-name="H_Udieresis" horiz-adv-x="1089" /><glyph d="M540 615Q514 615 500 630Q486 645 486 667Q486 690 500.5 704Q515 718 541 718Q567 718 581 704Q595 690 595 668Q595 645 580.5 630Q566 615 540 615ZM693 615Q669 615 654 630Q639 645 639 667Q639 690 653.5 704Q668 718 694 718Q720 718 734.5 704Q749 690 749 668Q749 645 734 630Q719 615 693 615ZM76 550H174V321H403V550H501V196Q501 130 530.5 101Q560 72 617 72Q672 72 702 101Q732 130 734 196V550H831V196Q831 144 815.5 105.5Q800 67 771.5 41.5Q743 16 704 3.5Q665 -9 617 -9Q571 -9 532 3Q493 15 464.5 39.5Q436 64 420 101.5Q404 139 403 191V237H174V0H76Z" glyph-name="H_Udieresis.sc" horiz-adv-x="902" /><glyph d="M86 716H190V410H493V716H597V250Q597 160 636 119.5Q675 79 752 79Q826 79 865 119Q904 159 906 249V716H1010V250Q1010 183 991.5 133.5Q973 84 939 52Q905 20 857.5 4.5Q810 -11 752 -11Q694 -11 646.5 4Q599 19 565.5 50.5Q532 82 513 130.5Q494 179 493 246V316H190V0H86ZM598 817 723 978 795 921 652 778ZM736 837 945 944 984 860 763 778Z" glyph-name="H_Uhungarumlaut" horiz-adv-x="1089" /><glyph d="M492 630 591 755 654 709 538 598ZM610 645 773 729 807 661 634 598ZM76 550H174V321H403V550H501V196Q501 130 530.5 101Q560 72 617 72Q672 72 702 101Q732 130 734 196V550H831V196Q831 144 815.5 105.5Q800 67 771.5 41.5Q743 16 704 3.5Q665 -9 617 -9Q571 -9 532 3Q493 15 464.5 39.5Q436 64 420 101.5Q404 139 403 191V237H174V0H76Z" glyph-name="H_Uhungarumlaut.sc" horiz-adv-x="902" /><glyph d="M86 716H190V410H493V716H597V250Q597 160 636 119.5Q675 79 752 79Q826 79 865 119Q904 159 906 249V716H1010V250Q1010 183 991.5 133.5Q973 84 939 52Q905 20 857.5 4.5Q810 -11 752 -11Q694 -11 646.5 4Q599 19 565.5 50.5Q532 82 513 130.5Q494 179 493 246V316H190V0H86ZM611 903H891V819H611Z" glyph-name="H_Umacron" horiz-adv-x="1089" /><glyph d="M504 699H730V629H504ZM76 550H174V321H403V550H501V196Q501 130 530.5 101Q560 72 617 72Q672 72 702 101Q732 130 734 196V550H831V196Q831 144 815.5 105.5Q800 67 771.5 41.5Q743 16 704 3.5Q665 -9 617 -9Q571 -9 532 3Q493 15 464.5 39.5Q436 64 420 101.5Q404 139 403 191V237H174V0H76Z" glyph-name="H_Umacron.sc" horiz-adv-x="902" /><glyph d="M783 -225Q736 -225 706.5 -197.5Q677 -170 677 -127Q677 -98 691 -67Q705 -36 740 -10Q621 0 558 61.5Q495 123 493 246V316H190V0H86V716H190V410H493V716H597V250Q597 160 636 119.5Q675 79 752 79Q826 79 866 119Q906 159 906 249V716H1010V250Q1010 204 1001 169Q992 134 977 107.5Q962 81 941.5 62Q921 43 897 29Q834 -10 800.5 -40.5Q767 -71 767 -109Q767 -129 778 -141Q789 -153 814 -153Q828 -153 839.5 -148.5Q851 -144 859.5 -138.5Q868 -133 873 -128.5Q878 -124 879 -123V-187Q878 -188 871.5 -194Q865 -200 853 -207Q841 -214 823.5 -219.5Q806 -225 783 -225Z" glyph-name="H_Uogonek" horiz-adv-x="1089" /><glyph d="M638 -174Q598 -174 573 -152.5Q548 -131 548 -96Q548 -75 560.5 -50.5Q573 -26 600 -8Q507 0 456 48.5Q405 97 403 191V237H174V0H76V550H174V321H403V550H501V196Q501 130 530.5 101Q560 72 617 72Q672 72 703 101Q734 130 734 196V550H831V196Q831 123 801.5 81Q772 39 728 19Q681 -8 655.5 -30Q630 -52 630 -80Q630 -97 640 -105.5Q650 -114 667 -114Q688 -114 702.5 -104.5Q717 -95 720 -93V-145Q717 -147 710.5 -151.5Q704 -156 694 -161Q684 -166 670 -170Q656 -174 638 -174Z" glyph-name="H_Uogonek.sc" horiz-adv-x="902" /><glyph d="M86 716H190V410H493V716H597V250Q597 160 636 119.5Q675 79 752 79Q826 79 865 119Q904 159 906 249V716H1010V250Q1010 183 991.5 133.5Q973 84 939 52Q905 20 857.5 4.5Q810 -11 752 -11Q694 -11 646.5 4Q599 19 565.5 50.5Q532 82 513 130.5Q494 179 493 246V316H190V0H86ZM751 771Q698 771 666 796Q634 821 634 864Q634 905 666 931.5Q698 958 751 958Q804 958 837 931.5Q870 905 870 864Q870 821 837.5 796Q805 771 751 771ZM751 826Q773 826 787.5 836.5Q802 847 802 866Q802 883 787 893Q772 903 751 903Q728 903 714.5 893Q701 883 701 866Q701 847 714.5 836.5Q728 826 751 826Z" glyph-name="H_Uring" horiz-adv-x="1089" /><glyph d="M616 594Q572 594 546 613Q520 632 520 666Q520 698 546 719Q572 740 616 740Q660 740 687 719Q714 698 714 666Q714 632 687.5 613Q661 594 616 594ZM616 638Q633 638 644.5 645.5Q656 653 656 667Q656 681 644.5 688Q633 695 616 695Q598 695 587.5 688Q577 681 577 667Q577 653 587.5 645.5Q598 638 616 638ZM76 550H174V321H403V550H501V196Q501 130 530.5 101Q560 72 617 72Q672 72 702 101Q732 130 734 196V550H831V196Q831 144 815.5 105.5Q800 67 771.5 41.5Q743 16 704 3.5Q665 -9 617 -9Q571 -9 532 3Q493 15 464.5 39.5Q436 64 420 101.5Q404 139 403 191V237H174V0H76Z" glyph-name="H_Uring.sc" horiz-adv-x="902" /><glyph d="M513 410V537H210V410ZM210 0H106V537H13V620H106V716H210V620H513V716H617V620H710V537H617V0H513V316H210Z" glyph-name="Hbar" horiz-adv-x="723" unicode="&#294;" /><glyph d="M413 321V411H183V321ZM183 0H86V411H16V480H86V550H183V480H413V550H510V480H579V411H510V0H413V237H183Z" glyph-name="Hbar.sc" horiz-adv-x="596" /><glyph d="M531 410V537H227V410ZM1047 250Q1047 183 1028.5 133.5Q1010 84 976.5 52Q943 20 895.5 4.5Q848 -11 790 -11Q732 -11 684.5 4Q637 19 603 50.5Q569 82 550 130.5Q531 179 531 246V316H227V0H123V537H28V620H123V716H227V620H531V716H635V620H731V537H635V250Q635 160 674 119.5Q713 79 790 79Q864 79 903.5 119Q943 159 943 249V716H1047Z" glyph-name="Hbar_U" horiz-adv-x="1127" /><glyph d="M844 196Q844 144 828.5 105.5Q813 67 784.5 41.5Q756 16 717 3.5Q678 -9 630 -9Q583 -9 544 3Q505 15 477 39.5Q449 64 433 101.5Q417 139 416 191V237H186V0H88V411H14V478H88V550H186V478H416V550H513V478H587V411H513V196Q513 130 542.5 101Q572 72 630 72Q684 72 714 101Q744 130 746 196V550H844ZM416 321V411H186V321Z" glyph-name="Hbar_U.sc" horiz-adv-x="915" /><glyph d="M86 716H191V410H494V716H598V0H494V316H191V0H86ZM171 826 312 945H373L515 826L480 778L343 864L204 778Z" glyph-name="Hcircumflex" horiz-adv-x="685" unicode="&#292;" /><glyph d="M147 638 260 731H315L430 638L399 598L288 664L176 598ZM76 550H174V321H403V550H501V0H403V237H174V0H76Z" glyph-name="Hcircumflex.sc" horiz-adv-x="577" /><glyph d="M86 716H191V0H86Z" glyph-name="I" horiz-adv-x="277" unicode="I" /><glyph d="M76 550H174V0H76Z" glyph-name="I.sc" horiz-adv-x="250" /><glyph d="M86 716H191V0H86ZM360 -11Q341 -11 325 -8Q309 -5 297 -2Q283 2 272 7V95Q283 91 295 87Q307 84 320 81.5Q333 79 347 79Q384 79 400.5 101.5Q417 124 417 175V716H521V173Q521 82 479.5 35.5Q438 -11 360 -11Z" glyph-name="IJ" horiz-adv-x="602" unicode="&#306;" /><glyph d="M76 550H174V0H76ZM308 -9Q293 -9 280 -7Q267 -5 258 -3Q247 0 238 4V82Q246 79 256 77Q264 75 274 73.5Q284 72 295 72Q325 72 338.5 89Q352 106 352 144V550H450V142Q450 67 413.5 29Q377 -9 308 -9Z" glyph-name="IJ.sc" horiz-adv-x="521" /><glyph d="M86 716H191V0H86ZM68 840 284 946 321 859 94 778Z" glyph-name="Iacute" horiz-adv-x="277" unicode="&#205;" /><glyph d="M60 650 236 732 269 659 84 598ZM76 550H174V0H76Z" glyph-name="Iacute.sc" horiz-adv-x="250" /><glyph d="M136 786Q70 786 29 826.5Q-12 867 -13 934H66Q66 923 70 911Q74 899 82 888.5Q90 878 103.5 871.5Q117 865 136 865Q155 865 168.5 871.5Q182 878 190 888.5Q198 899 202 911Q206 923 206 934H286Q285 867 244 826.5Q203 786 136 786ZM86 716H191V0H86Z" glyph-name="Ibreve" horiz-adv-x="277" unicode="&#300;" /><glyph d="M123 605Q70 605 35 635.5Q0 666 -2 720H69Q69 713 71.5 704Q74 695 80 687.5Q86 680 96.5 674.5Q107 669 123 669Q138 669 148.5 674.5Q159 680 165 687.5Q171 695 174 704Q177 713 177 720H247Q245 666 210.5 635.5Q176 605 123 605ZM76 550H174V0H76Z" glyph-name="Ibreve.sc" horiz-adv-x="250" /><glyph d="M86 716H191V0H86ZM-36 826 105 945H166L308 826L273 778L136 864L-3 778Z" glyph-name="Icircumflex" horiz-adv-x="277" unicode="&#206;" /><glyph d="M-19 638 95 731H150L263 638L233 598L122 664L11 598ZM76 550H174V0H76Z" glyph-name="Icircumflex.sc" horiz-adv-x="250" /><glyph d="M51 801Q24 801 6 818.5Q-12 836 -12 865Q-12 893 6 910.5Q24 928 52 928Q81 928 98.5 910.5Q116 893 116 866Q116 837 98 819Q80 801 51 801ZM230 801Q203 801 185.5 818.5Q168 836 168 865Q168 893 185.5 910.5Q203 928 231 928Q260 928 277.5 910.5Q295 893 295 866Q295 837 277 819Q259 801 230 801ZM86 716H191V0H86Z" glyph-name="Idieresis" horiz-adv-x="277" unicode="&#207;" /><glyph d="M52 615Q27 615 12.5 630Q-2 645 -2 667Q-2 690 12.5 704Q27 718 52 718Q78 718 92.5 704Q107 690 107 668Q107 645 92.5 630Q78 615 52 615ZM199 615Q175 615 160 630Q145 645 145 667Q145 690 160 704Q175 718 200 718Q226 718 240.5 704Q255 690 255 668Q255 645 240 630Q225 615 199 615ZM76 550H174V0H76Z" glyph-name="Idieresis.sc" horiz-adv-x="250" /><glyph d="M86 716H191V0H86ZM135 801Q106 801 88.5 819.5Q71 838 71 867Q71 896 89 914Q107 932 136 932Q167 932 185 914Q203 896 203 867Q203 838 185 819.5Q167 801 135 801Z" glyph-name="Idotaccent" horiz-adv-x="277" unicode="&#304;" /><glyph d="M122 615Q96 615 81.5 630Q67 645 67 668Q67 691 81.5 706Q96 721 123 721Q151 721 165.5 706Q180 691 180 669Q180 646 165.5 630.5Q151 615 122 615ZM76 550H174V0H76Z" glyph-name="Idotaccent.sc" horiz-adv-x="250" /><glyph d="M86 716H191V0H86ZM-41 859 -4 946 212 840 186 778Z" glyph-name="Igrave" horiz-adv-x="277" unicode="&#204;" /><glyph d="M-19 659 14 732 190 650 166 598ZM76 550H174V0H76Z" glyph-name="Igrave.sc" horiz-adv-x="250" /><glyph d="M86 716H191V0H86ZM-1 903H279V819H-1Z" glyph-name="Imacron" horiz-adv-x="277" unicode="&#298;" /><glyph d="M11 699H238V629H11ZM76 550H174V0H76Z" glyph-name="Imacron.sc" horiz-adv-x="250" /><glyph d="M117 -225Q69 -225 40 -197Q11 -169 11 -127Q11 -92 30.5 -56Q50 -20 98 0H86V716H191V0Q137 -29 119.5 -57.5Q102 -86 102 -109Q102 -153 150 -153Q163 -153 174.5 -148.5Q186 -144 194 -138.5Q202 -133 207.5 -128.5Q213 -124 214 -123V-187Q213 -188 206 -194Q199 -200 187 -207Q175 -214 157.5 -219.5Q140 -225 117 -225Z" glyph-name="Iogonek" horiz-adv-x="277" unicode="&#302;" /><glyph d="M76 0V550H174V0Q134 -21 119.5 -42.5Q105 -64 105 -81Q105 -115 142 -115Q162 -115 176 -105.5Q190 -96 193 -94V-145Q190 -147 184 -151.5Q178 -156 168 -161Q158 -166 144.5 -170Q131 -174 114 -174Q72 -174 48 -152Q24 -130 24 -97Q24 -68 41 -41Q58 -14 94 0Z" glyph-name="Iogonek.sc" horiz-adv-x="250" /><glyph d="M-32 804Q-32 809 -28.5 829.5Q-25 850 -14.5 872.5Q-4 895 15.5 913Q35 931 68 931Q95 931 112 920.5Q129 910 145 899Q162 888 173.5 878.5Q185 869 199 869Q210 869 216 876Q222 883 226 892Q230 902 232 915H298Q297 910 294 890Q291 870 281 848.5Q271 827 252 809.5Q233 792 200 792Q175 792 158.5 802.5Q142 813 125 824Q110 834 97.5 844Q85 854 70 854Q58 854 51 846Q44 838 40 829Q36 818 34 804ZM86 716H191V0H86Z" glyph-name="Itilde" horiz-adv-x="277" unicode="&#296;" /><glyph d="M-17 618Q-17 626 -13 642.5Q-9 659 0.5 676.5Q10 694 26.5 707Q43 720 69 720Q90 720 103.5 712.5Q117 705 131 697Q145 688 154.5 681Q164 674 176 674Q184 674 189 679.5Q194 685 197 691Q201 698 202 708H259Q258 700 255 683.5Q252 667 243.5 650.5Q235 634 219.5 621.5Q204 609 178 609Q157 609 143.5 616.5Q130 624 116 632Q102 640 92.5 647Q83 654 70 654Q61 654 55 648.5Q49 643 46 636Q42 628 41 618ZM76 550H174V0H76Z" glyph-name="Itilde.sc" horiz-adv-x="250" /><glyph d="M106 -11Q87 -11 71 -8Q55 -5 43 -2Q29 2 18 7V95Q29 91 41 87Q53 84 66 81.5Q79 79 93 79Q130 79 146.5 101.5Q163 124 163 175V716H267V173Q267 82 225.5 35.5Q184 -11 106 -11Z" glyph-name="J" horiz-adv-x="348" unicode="J" /><glyph d="M92 -9Q77 -9 64 -7Q51 -5 41 -3Q30 0 21 4V82Q29 79 39 77Q47 75 57 73.5Q67 72 78 72Q108 72 121.5 89Q135 106 135 144V550H232V142Q232 67 196.5 29Q161 -9 92 -9Z" glyph-name="J.sc" horiz-adv-x="304" /><glyph d="M42 826 183 945H244L386 826L351 778L214 864L75 778ZM106 -11Q87 -11 71 -8Q55 -5 43 -2Q29 2 18 7V95Q29 91 41 87Q53 84 66 81.5Q79 79 93 79Q130 79 146.5 101.5Q163 124 163 175V716H267V173Q267 82 225.5 35.5Q184 -11 106 -11Z" glyph-name="Jcircumflex" horiz-adv-x="348" unicode="&#308;" /><glyph d="M42 638 155 731H210L324 638L293 598L182 664L71 598ZM92 -9Q77 -9 64 -7Q51 -5 41 -3Q30 0 21 4V82Q29 79 39 77Q47 75 57 73.5Q67 72 78 72Q108 72 121.5 89Q135 106 135 144V550H232V142Q232 67 196.5 29Q161 -9 92 -9Z" glyph-name="Jcircumflex.sc" horiz-adv-x="304" /><glyph d="M86 716H191V409H236L453 716H563L320 372L578 0H458L236 319H191V0H86Z" glyph-name="K" horiz-adv-x="584" unicode="K" /><glyph d="M76 550H174V319H207L374 550H475L285 286L488 0H378L207 239H174V0H76Z" glyph-name="K.sc" horiz-adv-x="499" /><glyph d="M86 716H190V409H235L332 543Q388 624 455 669.5Q522 715 618 716H1034V624H835V0H731V624H624Q587 624 557.5 616.5Q528 609 501.5 592Q475 575 450.5 547.5Q426 520 398 481L320 372L577 0H457L235 319H190V0H86Z" glyph-name="K_T" horiz-adv-x="1047" /><glyph d="M76 550H174V319H207L274 410Q322 475 379 512Q436 549 521 550H859V468H702V0H605V468H527Q497 468 472 462Q447 456 425 443Q403 430 382.5 409.5Q362 389 341 360L285 286L488 0H378L207 239H174V0H76Z" glyph-name="K_T.sc" horiz-adv-x="876" /><glyph d="M86 716H190V409H235L332 543Q388 624 455 669.5Q522 715 618 716H1034V624H835V0H731V624H624Q587 624 557.5 616.5Q528 609 501.5 592Q475 575 450.5 547.5Q426 520 398 481L320 372L577 0H457L235 319H190V0H86ZM735 -280 772 -196Q746 -191 731 -174.5Q716 -158 716 -132Q716 -106 733 -85.5Q750 -65 782 -65Q814 -65 830 -85Q846 -105 846 -135Q846 -169 828.5 -210Q811 -251 785 -301Z" glyph-name="K_Tcommaaccent" horiz-adv-x="1047" /><glyph d="M76 550H174V319H207L274 410Q322 475 379 512Q436 549 521 550H859V468H702V0H605V468H527Q497 468 472 462Q447 456 425 443Q403 430 382.5 409.5Q362 389 341 360L285 286L488 0H378L207 239H174V0H76ZM614 -238 644 -172Q594 -163 594 -118Q594 -97 609.5 -80.5Q625 -64 653 -64Q681 -64 695 -80Q709 -96 709 -122Q709 -149 694.5 -182Q680 -215 658 -254Z" glyph-name="K_Tcommaaccent.sc" horiz-adv-x="876" /><glyph d="M86 716H190V408H235L342 560Q375 607 405.5 645Q436 683 470.5 710Q505 737 546.5 751.5Q588 766 645 766H767V449Q780 467 800 481Q818 494 843.5 503.5Q869 513 906 513Q959 513 997.5 493.5Q1036 474 1061 440Q1086 406 1098 360.5Q1110 315 1110 263Q1110 200 1095 150Q1080 100 1052 64.5Q1024 29 983.5 10.5Q943 -8 892 -8Q853 -8 823 5Q793 18 759 46L743 0H665V687H643Q611 687 583.5 676Q556 665 528.5 642Q501 619 472 583Q443 547 407 497L320 371L577 0H457L235 319H190V0H86ZM767 109Q779 100 795 93Q809 86 827.5 81Q846 76 869 76Q941 76 972 127Q1003 178 1003 260Q1003 338 972.5 382.5Q942 427 875 427Q848 427 828 418Q808 409 794 398Q778 385 767 368Z" glyph-name="K_b" horiz-adv-x="1156" /><glyph d="M86 716H190V408H235L342 560Q376 608 406.5 646Q437 684 472 710.5Q507 737 549.5 751.5Q592 766 649 766H772V446Q788 465 810 480Q831 493 859 503Q887 513 927 513Q974 513 1006.5 497.5Q1039 482 1059 454.5Q1079 427 1088 389.5Q1097 352 1097 308V0H994V303Q994 364 968.5 395Q943 426 887 426Q859 426 837.5 418Q816 410 801 401Q784 390 772 376V0H669V687H647Q614 687 586 676.5Q558 666 530.5 643Q503 620 473 584Q443 548 407 497L320 371L577 0H457L235 319H190V0H86Z" glyph-name="K_h" horiz-adv-x="1165" /><glyph d="M86 716H190V408H235L342 560Q376 608 406.5 646Q437 684 472 710.5Q507 737 549.5 751.5Q592 766 649 766H772V297H813L971 504H1081L900 268L1096 0H974L814 217H772V0H669V687H647Q614 687 586 676.5Q558 666 530.5 643Q503 620 473 584Q443 548 407 497L320 371L577 0H457L235 319H190V0H86Z" glyph-name="K_k" horiz-adv-x="1099" /><glyph d="M86 716H190V408H235L342 560Q375 607 404 645Q433 683 466 710Q499 737 538.5 751.5Q578 766 632 766H750V139Q750 101 763.5 86Q777 71 806 71Q807 71 809 72H811V0Q804 -2 795 -4Q787 -6 776.5 -7Q766 -8 752 -8Q647 -8 647 116V687H629Q599 687 573.5 675.5Q548 664 522.5 641Q497 618 469.5 582Q442 546 407 497L320 371L577 0H457L235 319H190V0H86Z" glyph-name="K_l" horiz-adv-x="844" /><glyph d="M86 716H190V408H235L342 560Q375 607 404 645Q433 683 466 710Q499 737 538.5 751.5Q578 766 632 766H750V139Q750 101 763.5 86Q777 71 806 71Q807 71 809 72H811V0Q804 -2 795 -4Q787 -6 776.5 -7Q766 -8 752 -8Q647 -8 647 116V687H629Q599 687 573.5 675.5Q548 664 522.5 641Q497 618 469.5 582Q442 546 407 497L320 371L577 0H457L235 319H190V0H86ZM578 860 794 966 831 879 604 798Z" glyph-name="K_lacute" horiz-adv-x="844" /><glyph d="M86 716H190V408H235L342 560Q375 607 404 645Q433 683 466 710Q499 737 538.5 751.5Q578 766 632 766H750V139Q750 101 763.5 86Q777 71 806 71Q807 71 809 72H811V0Q804 -2 795 -4Q787 -6 776.5 -7Q766 -8 752 -8Q647 -8 647 116V687H629Q599 687 573.5 675.5Q548 664 522.5 641Q497 618 469.5 582Q442 546 407 497L320 371L577 0H457L235 319H190V0H86ZM827 560 864 644Q838 649 823 665.5Q808 682 808 708Q808 734 825 754.5Q842 775 874 775Q906 775 922 755Q938 735 938 705Q938 671 920.5 630Q903 589 877 539Z" glyph-name="K_lcaron" horiz-adv-x="886" /><glyph d="M86 716H190V408H235L342 560Q375 607 404 645Q433 683 466 710Q499 737 538.5 751.5Q578 766 632 766H750V139Q750 101 763.5 86Q777 71 806 71Q807 71 809 72H811V0Q804 -2 795 -4Q787 -6 776.5 -7Q766 -8 752 -8Q647 -8 647 116V687H629Q599 687 573.5 675.5Q548 664 522.5 641Q497 618 469.5 582Q442 546 407 497L320 371L577 0H457L235 319H190V0H86ZM680 -280 717 -196Q691 -191 676 -174.5Q661 -158 661 -132Q661 -106 678 -85.5Q695 -65 727 -65Q759 -65 775 -85Q791 -105 791 -135Q791 -169 773.5 -210Q756 -251 730 -301Z" glyph-name="K_lcommaaccent" horiz-adv-x="844" /><glyph d="M752 -8Q647 -8 647 116V331L565 290V373L647 415V687H629Q599 687 573.5 675.5Q548 664 522.5 641Q497 618 469.5 582Q442 546 407 497L320 371L577 0H457L235 319H190V0H86V716H190V408H235L342 560Q375 607 404 645Q433 683 465.5 710Q498 737 538 751.5Q578 766 632 766H750V466L838 510V427L750 383V139Q750 101 763 86.5Q776 72 806 71Q808 71 809 71.5Q810 72 811 72V0Q804 -2 795 -4Q787 -6 776.5 -7Q766 -8 752 -8Z" glyph-name="K_lslash" horiz-adv-x="870" /><glyph d="M695 -8Q618 -8 559 10.5Q500 29 453 62Q406 95 366.5 141Q327 187 289 242L235 319H190V0H86V716H190V409H235L452 716H562L320 372L381 284Q451 182 527 126Q603 70 701 70Q767 70 800.5 88Q834 106 834 139Q834 164 811.5 182Q789 200 733 217Q703 226 676 237.5Q649 249 628 266.5Q607 284 594.5 309Q582 334 582 369Q582 438 634.5 475.5Q687 513 778 513Q807 513 829.5 510Q852 507 868 504Q887 500 901 495V414Q897 416 862 425Q827 434 777 434Q725 434 702 416.5Q679 399 679 373Q679 344 702.5 327.5Q726 311 774 298Q859 276 895.5 240.5Q932 205 932 149Q932 80 873.5 36Q815 -8 695 -8Z" glyph-name="K_s" horiz-adv-x="970" /><glyph d="M695 -8Q618 -8 559 10.5Q500 29 453 62Q406 95 366.5 141Q327 187 289 242L235 319H190V0H86V716H190V409H235L452 716H562L320 372L381 284Q451 182 527 126Q603 70 701 70Q767 70 800.5 88Q834 106 834 139Q834 164 811.5 182Q789 200 733 217Q703 226 676 237.5Q649 249 628 266.5Q607 284 594.5 309Q582 334 582 369Q582 438 634.5 475.5Q687 513 778 513Q807 513 829.5 510Q852 507 868 504Q887 500 901 495V414Q897 416 862 425Q827 434 777 434Q725 434 702 416.5Q679 399 679 373Q679 344 702.5 327.5Q726 311 774 298Q859 276 895.5 240.5Q932 205 932 149Q932 80 873.5 36Q815 -8 695 -8ZM698 630 877 772 925 700 735 577Z" glyph-name="K_sacute" horiz-adv-x="970" /><glyph d="M695 -8Q618 -8 559 10.5Q500 29 453 62Q406 95 366.5 141Q327 187 289 242L235 319H190V0H86V716H190V409H235L452 716H562L320 372L381 284Q451 182 527 126Q603 70 701 70Q767 70 800.5 88Q834 106 834 139Q834 164 811.5 182Q789 200 733 217Q703 226 676 237.5Q649 249 628 266.5Q607 284 594.5 309Q582 334 582 369Q582 438 634.5 475.5Q687 513 778 513Q807 513 829.5 510Q852 507 868 504Q887 500 901 495V414Q897 416 862 425Q827 434 777 434Q725 434 702 416.5Q679 399 679 373Q679 344 702.5 327.5Q726 311 774 298Q859 276 895.5 240.5Q932 205 932 149Q932 80 873.5 36Q815 -8 695 -8ZM588 722 627 769 755 663 880 769 920 722 776 580H732Z" glyph-name="K_scaron" horiz-adv-x="970" /><glyph d="M874 -126Q874 -155 859 -176.5Q844 -198 818.5 -212Q793 -226 758 -231Q723 -236 684 -231V-173Q729 -175 755.5 -165Q782 -155 782 -132Q782 -115 761.5 -105.5Q741 -96 690 -98L699 -8Q619 -8 559 10.5Q499 29 451.5 62Q404 95 365.5 141Q327 187 289 242L235 319H190V0H86V716H190V409H235L452 716H562L320 372L381 284Q451 182 527 126Q603 70 701 70Q767 70 800.5 88Q834 106 834 139Q834 164 811.5 182Q789 200 733 217Q703 226 676 237.5Q649 249 628 266.5Q607 284 594.5 309Q582 334 582 369Q582 438 634.5 475.5Q687 513 778 513Q807 513 829.5 510Q852 507 868 504Q887 500 901 495V414Q897 416 862 425Q827 434 777 434Q725 434 702 416.5Q679 399 679 373Q679 344 702.5 327.5Q726 311 774 298Q859 276 895.5 240.5Q932 205 932 149Q932 91 892 51Q852 11 771 -3L767 -40Q874 -47 874 -126Z" glyph-name="K_scedilla" horiz-adv-x="970" /><glyph d="M86 716H191V409H236L453 716H563L320 372L578 0H458L236 319H191V0H86ZM261 -280 298 -196Q272 -191 257 -174.5Q242 -158 242 -132Q242 -106 259 -85.5Q276 -65 308 -65Q340 -65 356 -85Q372 -105 372 -135Q372 -169 354.5 -210Q337 -251 311 -301Z" glyph-name="Kcommaaccent" horiz-adv-x="584" unicode="&#310;" /><glyph d="M76 550H174V319H207L374 550H475L285 286L488 0H378L207 239H174V0H76ZM225 -238 256 -172Q206 -163 206 -118Q206 -97 221.5 -80.5Q237 -64 265 -64Q292 -64 306.5 -80Q321 -96 321 -122Q321 -149 306.5 -182Q292 -215 269 -254Z" glyph-name="Kcommaaccent.sc" horiz-adv-x="499" /><glyph d="M86 716H190V409H235L332 543Q388 624 455 669.5Q522 715 618 716H1034V624H835V0H731V624H624Q587 624 557.5 616.5Q528 609 501.5 592Q475 575 450.5 547.5Q426 520 398 481L320 372L577 0H457L235 319H190V0H86ZM260 -280 297 -196Q271 -191 256 -174.5Q241 -158 241 -132Q241 -106 258 -85.5Q275 -65 307 -65Q339 -65 355 -85Q371 -105 371 -135Q371 -169 353.5 -210Q336 -251 310 -301Z" glyph-name="Kcommaaccent_T" horiz-adv-x="1047" /><glyph d="M76 550H174V319H207L274 410Q322 475 379 512Q436 549 521 550H859V468H702V0H605V468H527Q497 468 472 462Q447 456 425 443Q403 430 382.5 409.5Q362 389 341 360L285 286L488 0H378L207 239H174V0H76ZM225 -238 256 -172Q206 -163 206 -118Q206 -97 221.5 -80.5Q237 -64 265 -64Q292 -64 306.5 -80Q321 -96 321 -122Q321 -149 306.5 -182Q292 -215 269 -254Z" glyph-name="Kcommaaccent_T.sc" horiz-adv-x="876" /><glyph d="M695 -8Q618 -8 559 10.5Q500 29 453 62Q406 95 366.5 141Q327 187 289 242L235 319H190V0H86V716H190V409H235L452 716H562L320 372L381 284Q451 182 527 126Q603 70 701 70Q767 70 800.5 88Q834 106 834 139Q834 164 811.5 182Q789 200 733 217Q703 226 676 237.5Q649 249 628 266.5Q607 284 594.5 309Q582 334 582 369Q582 438 634.5 475.5Q687 513 778 513Q807 513 829.5 510Q852 507 868 504Q887 500 901 495V414Q897 416 862 425Q827 434 777 434Q725 434 702 416.5Q679 399 679 373Q679 344 702.5 327.5Q726 311 774 298Q859 276 895.5 240.5Q932 205 932 149Q932 80 873.5 36Q815 -8 695 -8ZM295 -280 332 -196Q306 -191 291 -174.5Q276 -158 276 -132Q276 -106 293 -85.5Q310 -65 342 -65Q374 -65 390 -85Q406 -105 406 -135Q406 -169 388.5 -210Q371 -251 345 -301Z" glyph-name="Kcommaaccent_s" horiz-adv-x="970" /><glyph d="M695 -8Q618 -8 559 10.5Q500 29 453 62Q406 95 366.5 141Q327 187 289 242L235 319H190V0H86V716H190V409H235L452 716H562L320 372L381 284Q451 182 527 126Q603 70 701 70Q767 70 800.5 88Q834 106 834 139Q834 164 811.5 182Q789 200 733 217Q703 226 676 237.5Q649 249 628 266.5Q607 284 594.5 309Q582 334 582 369Q582 438 634.5 475.5Q687 513 778 513Q807 513 829.5 510Q852 507 868 504Q887 500 901 495V414Q897 416 862 425Q827 434 777 434Q725 434 702 416.5Q679 399 679 373Q679 344 702.5 327.5Q726 311 774 298Q859 276 895.5 240.5Q932 205 932 149Q932 80 873.5 36Q815 -8 695 -8ZM588 722 627 769 755 663 880 769 920 722 776 580H732ZM295 -280 332 -196Q306 -191 291 -174.5Q276 -158 276 -132Q276 -106 293 -85.5Q310 -65 342 -65Q374 -65 390 -85Q406 -105 406 -135Q406 -169 388.5 -210Q371 -251 345 -301Z" glyph-name="Kcommaaccent_scaron" horiz-adv-x="970" /><glyph d="M86 716H191V93H478V0H86Z" glyph-name="L" horiz-adv-x="491" unicode="L" /><glyph d="M76 550H174V83H400V0H76Z" glyph-name="L.sc" horiz-adv-x="417" /><glyph d="M782 256 678 570 578 256ZM86 716H190V93H427L637 719H730L970 0H865L811 166H551L496 0H86Z" glyph-name="L_A" horiz-adv-x="980" /><glyph d="M640 199 562 428 488 199ZM76 550H174V83H359L520 553H615L805 0H706L666 120H463L423 0H76Z" glyph-name="L_A.sc" horiz-adv-x="818" /><glyph d="M782 256 678 570 578 256ZM86 716H190V93H427L637 719H730L970 0H865L811 166H551L496 0H86ZM615 840 831 946 868 859 641 778Z" glyph-name="L_Aacute" horiz-adv-x="980" /><glyph d="M505 650 681 732 713 659 529 597ZM640 199 562 428 488 199ZM76 550H174V83H359L520 553H615L805 0H706L666 120H463L423 0H76Z" glyph-name="L_Aacute.sc" horiz-adv-x="818" /><glyph d="M782 256 678 570 578 256ZM86 716H190V93H427L637 719H730L970 0H865L811 166H551L496 0H86ZM683 786Q617 786 576 826.5Q535 867 534 934H613Q613 923 617 911Q621 899 629 888.5Q637 878 650.5 871.5Q664 865 683 865Q702 865 715.5 871.5Q729 878 737 888.5Q745 899 749 911Q753 923 753 934H833Q832 867 791 826.5Q750 786 683 786Z" glyph-name="L_Abreve" horiz-adv-x="980" /><glyph d="M568 605Q514 605 479.5 635.5Q445 666 443 720H513Q513 713 516 704Q519 695 525.5 687.5Q532 680 542.5 674.5Q553 669 568 669Q583 669 593.5 674.5Q604 680 610 687.5Q616 695 619 704Q622 713 622 720H692Q690 666 655 635.5Q620 605 568 605ZM640 199 562 428 488 199ZM76 550H174V83H359L520 553H615L805 0H706L666 120H463L423 0H76Z" glyph-name="L_Abreve.sc" horiz-adv-x="818" /><glyph d="M782 256 678 570 578 256ZM86 716H190V93H427L637 719H730L970 0H865L811 166H551L496 0H86ZM511 826 652 945H713L855 826L820 778L683 864L544 778Z" glyph-name="L_Acircumflex" horiz-adv-x="980" /><glyph d="M426 638 540 731H595L708 638L678 598L568 664L456 598ZM640 199 562 428 488 199ZM76 550H174V83H359L520 553H615L805 0H706L666 120H463L423 0H76Z" glyph-name="L_Acircumflex.sc" horiz-adv-x="818" /><glyph d="M782 256 678 570 578 256ZM86 716H190V93H427L637 719H730L970 0H865L811 166H551L496 0H86ZM587 801Q560 801 542.5 818.5Q525 836 525 865Q525 893 542.5 910.5Q560 928 588 928Q617 928 634.5 910.5Q652 893 652 866Q652 837 634 819Q616 801 587 801ZM775 801Q748 801 730 818.5Q712 836 712 865Q712 893 730 910.5Q748 928 776 928Q805 928 822.5 910.5Q840 893 840 866Q840 837 822 819Q804 801 775 801Z" glyph-name="L_Adieresis" horiz-adv-x="980" /><glyph d="M490 615Q465 615 450 630Q435 645 435 667Q435 690 450 704Q465 718 490 718Q516 718 530.5 704Q545 690 545 668Q545 645 530.5 630Q516 615 490 615ZM643 615Q618 615 603.5 630Q589 645 589 667Q589 690 603.5 704Q618 718 644 718Q670 718 684.5 704Q699 690 699 668Q699 645 684 630Q669 615 643 615ZM640 199 562 428 488 199ZM76 550H174V83H359L520 553H615L805 0H706L666 120H463L423 0H76Z" glyph-name="L_Adieresis.sc" horiz-adv-x="818" /><glyph d="M782 256 678 570 578 256ZM86 716H190V93H427L637 719H730L970 0H865L811 166H551L496 0H86ZM499 859 536 946 752 840 726 778Z" glyph-name="L_Agrave" horiz-adv-x="980" /><glyph d="M422 659 456 732 631 650 607 598ZM640 199 562 428 488 199ZM76 550H174V83H359L520 553H615L805 0H706L666 120H463L423 0H76Z" glyph-name="L_Agrave.sc" horiz-adv-x="818" /><glyph d="M541 903H821V819H541ZM782 256 678 570 578 256ZM86 716H190V93H427L637 719H730L970 0H865L811 166H551L496 0H86Z" glyph-name="L_Amacron" horiz-adv-x="980" /><glyph d="M453 699H680V629H453ZM640 199 562 428 488 199ZM76 550H174V83H359L520 553H615L805 0H706L666 120H463L423 0H76Z" glyph-name="L_Amacron.sc" horiz-adv-x="818" /><glyph d="M897 -225Q849 -225 820 -197Q791 -169 791 -127Q791 -92 810.5 -56Q830 -20 877 0H865L811 166H551L496 0H86V716H190V93H427L637 719H730L970 0Q916 -29 898.5 -57.5Q881 -86 881 -109Q881 -153 929 -153Q943 -153 954 -148.5Q965 -144 973.5 -138.5Q982 -133 987 -128.5Q992 -124 993 -123V-187Q992 -188 985 -194Q978 -200 966 -207Q954 -214 937 -219.5Q920 -225 897 -225ZM782 256 678 570 578 256Z" glyph-name="L_Aogonek" horiz-adv-x="980" /><glyph d="M706 0 666 120H463L423 0H76V550H174V83H359L520 553H615L805 0Q765 -19 750 -41.5Q735 -64 735 -81Q735 -115 772 -115Q792 -115 805.5 -105.5Q819 -96 823 -94V-145Q820 -147 814 -151.5Q808 -156 798 -161Q788 -166 774.5 -170Q761 -174 744 -174Q702 -174 678 -152Q654 -130 654 -97Q654 -68 671 -41Q688 -14 723 0ZM640 199 562 428 488 199Z" glyph-name="L_Aogonek.sc" horiz-adv-x="818" /><glyph d="M782 256 678 570 578 256ZM86 716H190V93H427L637 719H730L970 0H865L811 166H551L496 0H86ZM681 771Q628 771 596 796Q564 821 564 864Q564 905 596 931.5Q628 958 681 958Q734 958 767 931.5Q800 905 800 864Q800 821 767.5 796Q735 771 681 771ZM681 826Q703 826 717.5 836.5Q732 847 732 866Q732 883 717 893Q702 903 681 903Q658 903 644.5 893Q631 883 631 866Q631 847 644.5 836.5Q658 826 681 826Z" glyph-name="L_Aring" horiz-adv-x="980" /><glyph d="M566 594Q522 594 496 613Q470 632 470 666Q470 698 496 719Q522 740 566 740Q610 740 636.5 719Q663 698 663 666Q663 632 637 613Q611 594 566 594ZM566 638Q583 638 594.5 645.5Q606 653 606 667Q606 681 594.5 688Q583 695 566 695Q549 695 538 688Q527 681 527 667Q527 653 538 645.5Q549 638 566 638ZM640 199 562 428 488 199ZM76 550H174V83H359L520 553H615L805 0H706L666 120H463L423 0H76Z" glyph-name="L_Aring.sc" horiz-adv-x="818" /><glyph d="M782 256 678 570 578 256ZM86 716H190V93H427L637 719H730L970 0H865L811 166H551L496 0H86ZM522 804Q522 809 525.5 829.5Q529 850 539.5 872.5Q550 895 569.5 913Q589 931 622 931Q649 931 666 920.5Q683 910 699 899Q716 888 727.5 878.5Q739 869 753 869Q764 869 770 876Q776 883 780 892Q784 902 786 915H852Q851 910 848 890Q845 870 835 848.5Q825 827 806 809.5Q787 792 754 792Q729 792 712.5 802.5Q696 813 679 824Q664 834 651.5 844Q639 854 624 854Q612 854 605 846Q598 838 594 829Q590 818 588 804Z" glyph-name="L_Atilde" horiz-adv-x="980" /><glyph d="M433 618Q433 626 437 642.5Q441 659 450.5 676.5Q460 694 476.5 707Q493 720 519 720Q540 720 553.5 712.5Q567 705 580 697Q594 688 603.5 681Q613 674 625 674Q633 674 638 679.5Q643 685 646 691Q650 698 651 708H709Q708 700 705 683.5Q702 667 693 650.5Q684 634 668.5 621.5Q653 609 627 609Q607 609 593.5 616.5Q580 624 566 632Q552 640 542.5 647Q533 654 520 654Q511 654 505 648.5Q499 643 496 636Q492 628 491 618ZM640 199 562 428 488 199ZM76 550H174V83H359L520 553H615L805 0H706L666 120H463L423 0H76Z" glyph-name="L_Atilde.sc" horiz-adv-x="818" /><glyph d="M86 716H191V93H478V0H86ZM103 840 319 946 356 859 129 778Z" glyph-name="Lacute" horiz-adv-x="491" unicode="&#313;" /><glyph d="M91 650 267 732 300 659 115 598ZM76 550H174V83H400V0H76Z" glyph-name="Lacute.sc" horiz-adv-x="417" /><glyph d="M86 716H191V93H478V0H86ZM374 511 411 595Q385 600 370 616.5Q355 633 355 659Q355 685 372 705.5Q389 726 421 726Q453 726 469 706Q485 686 485 656Q485 622 467.5 581Q450 540 424 490Z" glyph-name="Lcaron" horiz-adv-x="526" unicode="&#317;" /><glyph d="M316 387 347 453Q297 462 297 505Q297 527 312 543.5Q327 560 355 560Q383 560 397.5 544Q412 528 412 502Q412 475 397 441.5Q382 408 360 369ZM76 550H174V83H400V0H76Z" glyph-name="Lcaron.sc" horiz-adv-x="450" /><glyph d="M782 256 678 570 578 256ZM86 716H190V93H427L637 719H730L970 0H865L811 166H551L496 0H86ZM366 511 403 595Q377 600 362 616.5Q347 633 347 659Q347 685 364 705.5Q381 726 413 726Q445 726 461 706Q477 686 477 656Q477 622 459.5 581Q442 540 416 490Z" glyph-name="Lcaron_A" horiz-adv-x="980" /><glyph d="M305 387 334 453Q285 461 285 505Q285 527 300 543.5Q315 560 343 560Q371 560 385.5 544Q400 528 400 502Q400 475 385 441.5Q370 408 348 369ZM640 199 562 428 488 199ZM76 550H174V83H359L520 552H615L805 0H706L666 120H463L423 0H76Z" glyph-name="Lcaron_A.sc" horiz-adv-x="818" /><glyph d="M86 716H191V93H478V0H86ZM248 -280 285 -196Q259 -191 244 -174.5Q229 -158 229 -132Q229 -106 246 -85.5Q263 -65 295 -65Q327 -65 343 -85Q359 -105 359 -135Q359 -169 341.5 -210Q324 -251 298 -301Z" glyph-name="Lcommaaccent" horiz-adv-x="491" unicode="&#315;" /><glyph d="M76 550H174V83H400V0H76ZM208 -238 238 -172Q189 -163 189 -118Q189 -97 204 -80.5Q219 -64 247 -64Q275 -64 289.5 -80Q304 -96 304 -122Q304 -149 288.5 -182Q273 -215 251 -254Z" glyph-name="Lcommaaccent.sc" horiz-adv-x="417" /><glyph d="M782 256 678 570 578 256ZM86 716H190V93H427L637 719H730L970 0H865L811 166H551L496 0H86ZM247 -280 284 -196Q258 -191 243 -174.5Q228 -158 228 -132Q228 -106 245 -85.5Q262 -65 294 -65Q326 -65 342 -85Q358 -105 358 -135Q358 -169 340.5 -210Q323 -251 297 -301Z" glyph-name="Lcommaaccent_A" horiz-adv-x="980" /><glyph d="M640 199 562 428 488 199ZM76 550H174V83H359L520 552H615L805 0H706L666 120H463L423 0H76ZM208 -238 238 -172Q189 -163 189 -118Q189 -97 204 -80.5Q219 -64 247 -64Q275 -64 289.5 -80Q304 -96 304 -122Q304 -149 288.5 -182Q273 -215 251 -254Z" glyph-name="Lcommaaccent_A.sc" horiz-adv-x="818" /><glyph d="M541 903H821V819H541ZM782 256 678 570 578 256ZM86 716H190V93H427L637 719H730L970 0H865L811 166H551L496 0H86ZM247 -280 284 -196Q258 -191 243 -174.5Q228 -158 228 -132Q228 -106 245 -85.5Q262 -65 294 -65Q326 -65 342 -85Q358 -105 358 -135Q358 -169 340.5 -210Q323 -251 297 -301Z" glyph-name="Lcommaaccent_Amacron" horiz-adv-x="980" /><glyph d="M453 699H680V629H453ZM640 199 562 428 488 199ZM76 550H174V83H359L520 552H615L805 0H706L666 120H463L423 0H76ZM208 -238 238 -172Q189 -163 189 -118Q189 -97 204 -80.5Q219 -64 247 -64Q275 -64 289.5 -80Q304 -96 304 -122Q304 -149 288.5 -182Q273 -215 251 -254Z" glyph-name="Lcommaaccent_Amacron.sc" horiz-adv-x="818" /><glyph d="M86 716H191V93H478V0H86ZM392 295Q361 295 343 315.5Q325 336 325 365Q325 394 343 414Q361 434 392 434Q424 434 441.5 414Q459 394 459 365Q459 336 441.5 315.5Q424 295 392 295Z" glyph-name="Ldot" horiz-adv-x="502" unicode="&#319;" /><glyph d="M76 550H174V83H400V0H76ZM334 227Q307 227 291 244Q275 261 275 285Q275 310 291 326.5Q307 343 334 343Q362 343 378 326.5Q394 310 394 285Q394 261 378 244Q362 227 334 227Z" glyph-name="Ldot.sc" horiz-adv-x="429" /><glyph d="M99 0V311L20 269V363L99 406V716H203V460L325 524V429L203 365V93H491V0Z" glyph-name="Lslash" horiz-adv-x="504" unicode="&#321;" /><glyph d="M85 0V231L26 202V281L85 310V550H182V358L279 405V325L182 278V83H410V0Z" glyph-name="Lslash.sc" horiz-adv-x="426" /><glyph d="M813 256 708 570 609 256ZM527 0H116V311L37 269V363L116 406V716H220V460L342 524V429L220 365V93H458L668 719H761L1001 0H896L841 166H581Z" glyph-name="Lslash_A" horiz-adv-x="1011" /><glyph d="M665 199 586 428 511 199ZM99 231 40 202V281L99 311V550H197V358L296 406V326L197 278V83H382L545 553H639L828 0H729L689 120H486L446 0H99Z" glyph-name="Lslash_A.sc" horiz-adv-x="842" /><glyph d="M813 256 708 570 609 256ZM896 0 841 166H581L527 0H116V311L37 269V363L116 406V716H220V460L342 524V429L220 365V93H458L668 719H761L1001 0Q947 -29 929.5 -57.5Q912 -86 912 -109Q912 -153 960 -153Q973 -153 984.5 -148.5Q996 -144 1004 -138.5Q1012 -133 1017.5 -128.5Q1023 -124 1024 -123V-187Q1023 -188 1016 -194Q1009 -200 997 -207Q985 -214 967.5 -219.5Q950 -225 927 -225Q879 -225 850 -197Q821 -169 821 -127Q821 -92 840.5 -56Q860 -20 908 0Z" glyph-name="Lslash_Aogonek" horiz-adv-x="1011" /><glyph d="M729 0 689 120H486L446 0H99V231L40 202V281L99 311V550H197V358L296 406V326L197 278V83H382L545 553H639L828 0Q788 -21 773 -42.5Q758 -64 758 -81Q758 -115 796 -115Q816 -115 830 -105.5Q844 -96 847 -94V-145Q845 -147 838.5 -151.5Q832 -156 822 -161Q812 -166 798.5 -170Q785 -174 767 -174Q727 -174 702.5 -152Q678 -130 678 -97Q678 -68 694.5 -41Q711 -14 748 0ZM665 199 586 428 511 199Z" glyph-name="Lslash_Aogonek.sc" horiz-adv-x="842" /><glyph d="M185 566 162 0H70L103 716H222L414 199L604 716H718L751 0H652L630 565L444 48H370Z" glyph-name="M" horiz-adv-x="822" unicode="M" /><glyph d="M164 422 147 0H63L90 550H201L346 169L491 550H598L625 0H533L518 421L375 37H305Z" glyph-name="M.sc" horiz-adv-x="688" /><glyph d="M86 716H182L508 182V716H603V0H508L182 535V0H86Z" glyph-name="N" horiz-adv-x="690" unicode="N" /><glyph d="M76 550H164L416 161V550H504V0H416L164 389V0H76Z" glyph-name="N.sc" horiz-adv-x="580" /><glyph d="M707 413Q773 413 803 443Q833 473 833 526Q833 579 798 604Q763 629 699 629H611V413ZM507 716H698Q824 716 881 665.5Q938 615 938 530Q938 478 914.5 439.5Q891 401 847 378Q880 369 903.5 351.5Q927 334 942 311.5Q957 289 964 262.5Q971 236 971 208Q971 155 953 115.5Q935 76 902 50.5Q869 25 823 12.5Q777 0 720 0H507L181 535V0H86V716H181L507 182ZM721 87Q791 87 827 119Q863 151 863 208Q863 266 830.5 296Q798 326 722 326H611V87Z" glyph-name="N_B" horiz-adv-x="1016" /><glyph d="M585 320Q633 320 656 341.5Q679 363 679 401Q679 439 653 457Q627 475 579 475H512V320ZM416 550H576Q681 550 728 511Q775 472 775 405Q775 365 755.5 335.5Q736 306 703 289Q754 275 778 240Q802 205 802 161Q802 79 745 39.5Q688 0 593 0H416L164 389V0H76V550H164L416 161ZM594 75Q646 75 673.5 97.5Q701 120 701 161Q701 203 676.5 224Q652 245 596 245H512V75Z" glyph-name="N_B.sc" horiz-adv-x="844" /><glyph d="M707 93Q808 93 867.5 156.5Q927 220 927 358Q927 427 911.5 477.5Q896 528 867 560Q838 592 797.5 607.5Q757 623 707 623H606V93ZM86 716H181L507 182V716H705Q866 716 950.5 624Q1035 532 1035 358Q1035 184 950.5 92Q866 0 705 0H507L181 535V0H86Z" glyph-name="N_D" horiz-adv-x="1086" /><glyph d="M582 83Q660 83 705 130Q750 177 750 275Q750 374 704.5 420.5Q659 467 582 467H509V83ZM76 550H164L416 161V550H579Q713 550 782 477.5Q851 405 851 275Q851 146 782 73Q713 0 579 0H416L164 389V0H76Z" glyph-name="N_D.sc" horiz-adv-x="897" /><glyph d="M86 716H181L507 182V716H895V623H606V409H846V318H606V93H895V0H507L181 535V0H86Z" glyph-name="N_E" horiz-adv-x="945" /><glyph d="M76 550H164L416 161V550H740V468H509V319H697V239H509V82H740V0H416L164 389V0H76Z" glyph-name="N_E.sc" horiz-adv-x="789" /><glyph d="M86 716H181L507 182V716H895V623H606V409H846V318H606V93H895V0H507L181 535V0H86ZM603 840 819 946 856 859 629 778Z" glyph-name="N_Eacute" horiz-adv-x="945" /><glyph d="M499 650 674 732 707 659 523 598ZM76 550H164L416 161V550H740V468H509V319H697V239H509V82H740V0H416L164 389V0H76Z" glyph-name="N_Eacute.sc" horiz-adv-x="789" /><glyph d="M86 716H181L507 182V716H895V623H606V409H846V318H606V93H895V0H507L181 535V0H86ZM536 896 569 945 708 859 845 945 880 896 738 778H676Z" glyph-name="N_Ecaron" horiz-adv-x="945" /><glyph d="M443 690 472 731 584 665 694 731 725 690 611 598H556ZM76 550H164L416 161V550H740V468H509V319H697V239H509V82H740V0H416L164 389V0H76Z" glyph-name="N_Ecaron.sc" horiz-adv-x="789" /><glyph d="M86 716H181L507 182V716H895V623H606V409H846V318H606V93H895V0H507L181 535V0H86ZM525 826 666 945H727L869 826L834 778L697 864L558 778Z" glyph-name="N_Ecircumflex" horiz-adv-x="945" /><glyph d="M435 638 548 731H604L717 638L686 598L576 664L464 598ZM76 550H164L416 161V550H740V468H509V319H697V239H509V82H740V0H416L164 389V0H76Z" glyph-name="N_Ecircumflex.sc" horiz-adv-x="789" /><glyph d="M86 716H181L507 182V716H895V623H606V409H846V318H606V93H895V0H507L181 535V0H86ZM609 801Q582 801 564.5 818.5Q547 836 547 865Q547 893 564.5 910.5Q582 928 610 928Q639 928 656.5 910.5Q674 893 674 866Q674 837 656 819Q638 801 609 801ZM797 801Q770 801 752 818.5Q734 836 734 865Q734 893 752 910.5Q770 928 798 928Q827 928 844.5 910.5Q862 893 862 866Q862 837 844 819Q826 801 797 801Z" glyph-name="N_Edieresis" horiz-adv-x="945" /><glyph d="M503 615Q478 615 463.5 630Q449 645 449 667Q449 690 463.5 704Q478 718 503 718Q529 718 544 704Q559 690 559 668Q559 645 544 630Q529 615 503 615ZM656 615Q631 615 617 630Q603 645 603 667Q603 690 617 704Q631 718 657 718Q683 718 697.5 704Q712 690 712 668Q712 645 697.5 630Q683 615 656 615ZM76 550H164L416 161V550H740V468H509V319H697V239H509V82H740V0H416L164 389V0H76Z" glyph-name="N_Edieresis.sc" horiz-adv-x="789" /><glyph d="M86 716H181L507 182V716H895V623H606V409H846V318H606V93H895V0H507L181 535V0H86ZM702 801Q673 801 655.5 819.5Q638 838 638 867Q638 896 656 914Q674 932 703 932Q734 932 752 914Q770 896 770 867Q770 838 752 819.5Q734 801 702 801Z" glyph-name="N_Edotaccent" horiz-adv-x="945" /><glyph d="M578 615Q552 615 537 630Q522 645 522 668Q522 691 536.5 706Q551 721 579 721Q607 721 621.5 706Q636 691 636 669Q636 646 621.5 630.5Q607 615 578 615ZM76 550H164L416 161V550H740V468H509V319H697V239H509V82H740V0H416L164 389V0H76Z" glyph-name="N_Edotaccent.sc" horiz-adv-x="789" /><glyph d="M86 716H181L507 182V716H895V623H606V409H846V318H606V93H895V0H507L181 535V0H86ZM544 859 581 946 797 840 771 778Z" glyph-name="N_Egrave" horiz-adv-x="945" /><glyph d="M452 659 485 732 660 650 636 598ZM76 550H164L416 161V550H740V468H509V319H697V239H509V82H740V0H416L164 389V0H76Z" glyph-name="N_Egrave.sc" horiz-adv-x="789" /><glyph d="M86 716H181L507 182V716H895V623H606V409H846V318H606V93H895V0H507L181 535V0H86ZM563 903H843V819H563Z" glyph-name="N_Emacron" horiz-adv-x="945" /><glyph d="M466 699H693V629H466ZM76 550H164L416 161V550H740V468H509V319H697V239H509V82H740V0H416L164 389V0H76Z" glyph-name="N_Emacron.sc" horiz-adv-x="789" /><glyph d="M507 0 181 535V0H86V716H181L507 182V716H895V623H606V409H846V318H606V93H895V0Q842 -29 824.5 -57.5Q807 -86 807 -109Q807 -153 854 -153Q868 -153 879 -148.5Q890 -144 898.5 -138.5Q907 -133 912 -128.5Q917 -124 918 -123V-187Q917 -188 910 -194Q903 -200 891 -207Q879 -214 862 -219.5Q845 -225 822 -225Q774 -225 745 -197Q716 -169 716 -127Q716 -92 735.5 -56Q755 -20 802 0Z" glyph-name="N_Eogonek" horiz-adv-x="945" /><glyph d="M416 0 164 389V0H76V550H164L416 161V550H740V468H509V319H697V239H509V82H740V0Q699 -21 684.5 -42.5Q670 -64 670 -81Q670 -115 708 -115Q728 -115 742 -105.5Q756 -96 759 -94V-145Q757 -147 750.5 -151.5Q744 -156 734.5 -161Q725 -166 711 -170Q697 -174 680 -174Q639 -174 614.5 -152Q590 -130 590 -97Q590 -68 607 -41Q624 -14 659 0Z" glyph-name="N_Eogonek.sc" horiz-adv-x="789" /><glyph d="M86 716H181L507 182V716H893V623H606V406H846V314H606V0H507L181 535V0H86Z" glyph-name="N_F" horiz-adv-x="920" /><glyph d="M76 550H164L416 161V550H737V468H509V315H698V232H509V0H416L164 389V0H76Z" glyph-name="N_F.sc" horiz-adv-x="766" /><glyph d="M86 716H181L507 182V716H606V409H652L868 716H978L736 372L993 0H873L652 319H606V0H507L181 535V0H86Z" glyph-name="N_K" horiz-adv-x="999" /><glyph d="M76 550H164L416 161V550H509V319H543L709 550H812L622 286L825 0H714L543 239H509V0H416L164 389V0H76Z" glyph-name="N_K.sc" horiz-adv-x="835" /><glyph d="M86 716H181L507 182V716H606V409H652L868 716H978L736 372L993 0H873L652 319H606V0H507L181 535V0H86ZM686 -280 723 -196Q697 -191 682 -174.5Q667 -158 667 -132Q667 -106 684 -85.5Q701 -65 733 -65Q765 -65 781 -85Q797 -105 797 -135Q797 -169 779.5 -210Q762 -251 736 -301Z" glyph-name="N_Kcommaaccent" horiz-adv-x="999" /><glyph d="M76 550H164L416 161V550H509V319H543L709 550H812L622 286L825 0H714L543 239H509V0H416L164 389V0H76ZM568 -238 598 -172Q549 -163 549 -118Q549 -97 564 -80.5Q579 -64 607 -64Q635 -64 649 -80Q663 -96 663 -122Q663 -149 648.5 -182Q634 -215 611 -254Z" glyph-name="N_Kcommaaccent.sc" horiz-adv-x="835" /><glyph d="M86 716H181L507 182V716H603L929 182V716H1024V0H929L603 535V0H507L181 535V0H86Z" glyph-name="N_N" horiz-adv-x="1110" /><glyph d="M76 550H164L416 161V550H504L755 161V550H844V0H755L504 389V0H416L164 389V0H76Z" glyph-name="N_N.sc" horiz-adv-x="920" /><glyph d="M676 355Q710 355 739.5 363.5Q769 372 790.5 390Q812 408 824.5 434.5Q837 461 837 497Q837 560 796 593.5Q755 627 674 627H601V355ZM86 716H181L506 182V716H673Q813 716 878 658Q943 600 943 499Q943 442 923 399Q903 356 867 326.5Q831 297 781.5 282Q732 267 673 267H601V0H506L179 538V0H86Z" glyph-name="N_P" horiz-adv-x="975" /><glyph d="M556 276Q607 276 642.5 301.5Q678 327 678 379Q678 424 646.5 448Q615 472 555 472H502V276ZM76 550H164L413 161V550H555Q670 550 722.5 504Q775 458 775 381Q775 337 758.5 303Q742 269 712.5 245.5Q683 222 642.5 210Q602 198 555 198H502V0H413L162 394V0H76Z" glyph-name="N_P.sc" horiz-adv-x="806" /><glyph d="M693 372Q721 372 746 381Q771 390 789.5 408Q808 426 819 452Q830 478 830 512Q830 565 796.5 596Q763 627 695 627H601V372ZM86 716H181L506 182V716H700Q814 716 875 662.5Q936 609 936 517Q936 455 906 400Q876 345 806 310L973 0H859L704 285H601V0H506L179 538V0H86Z" glyph-name="N_R" horiz-adv-x="994" /><glyph d="M571 289Q614 289 643.5 315Q673 341 673 389Q673 427 648.5 449.5Q624 472 573 472H502V289ZM76 550H164L413 161V550H576Q672 550 722.5 508Q773 466 773 395Q773 348 750 307.5Q727 267 673 238L799 0H694L578 214H502V0H413L162 394V0H76Z" glyph-name="N_R.sc" horiz-adv-x="828" /><glyph d="M86 716H182L508 182V716H603V0H508L182 535V0H86ZM275 840 491 946 528 859 301 778Z" glyph-name="Nacute" horiz-adv-x="690" unicode="&#323;" /><glyph d="M86 716H182L508 182V716H603V0H508L182 535V0H86ZM285 801 375 986 446 944 340 770Z" glyph-name="Nacute.pl" horiz-adv-x="690" /><glyph d="M238 618 314 766 379 731 290 592ZM76 550H164L416 161V550H504V0H416L164 389V0H76Z" glyph-name="Nacute.pl.sc" horiz-adv-x="580" /><glyph d="M231 650 406 732 439 659 255 598ZM76 550H164L416 161V550H504V0H416L164 389V0H76Z" glyph-name="Nacute.sc" horiz-adv-x="580" /><glyph d="M86 716H181L507 182V716H606V409H652L868 716H978L736 372L993 0H873L652 319H606V0H507L181 535V0H86ZM274 840 490 946 527 859 300 778Z" glyph-name="Nacute_K" horiz-adv-x="999" /><glyph d="M231 650 406 732 439 659 255 598ZM76 550H164L416 161V550H509V319H543L709 550H812L622 286L825 0H714L543 239H509V0H416L164 389V0H76Z" glyph-name="Nacute_K.sc" horiz-adv-x="835" /><glyph d="M86 716H182L508 182V716H603V0H508L182 535V0H86ZM182 896 215 945 354 859 491 945 526 896 384 778H322Z" glyph-name="Ncaron" horiz-adv-x="690" unicode="&#327;" /><glyph d="M155 690 185 731 296 665 407 731 438 690 323 598H268ZM76 550H164L416 161V550H504V0H416L164 389V0H76Z" glyph-name="Ncaron.sc" horiz-adv-x="580" /><glyph d="M707 93Q808 93 867.5 156.5Q927 220 927 358Q927 427 911.5 477.5Q896 528 867 560Q838 592 797.5 607.5Q757 623 707 623H606V93ZM86 716H181L507 182V716H705Q866 716 950.5 624Q1035 532 1035 358Q1035 184 950.5 92Q866 0 705 0H507L181 535V0H86ZM181 896 214 945 353 859 490 945 525 896 383 778H321Z" glyph-name="Ncaron_D" horiz-adv-x="1086" /><glyph d="M156 690 185 731 296 665 407 731 438 690 323 598H268ZM582 83Q660 83 705 130Q750 177 750 275Q750 374 704.5 420.5Q659 467 582 467H509V83ZM76 550H164L416 161V550H579Q713 550 782 477.5Q851 405 851 275Q851 146 782 73Q713 0 579 0H416L164 389V0H76Z" glyph-name="Ncaron_D.sc" horiz-adv-x="897" /><glyph d="M86 716H181L507 182V716H606V409H652L868 716H978L736 372L993 0H873L652 319H606V0H507L181 535V0H86ZM181 896 214 945 353 859 490 945 525 896 383 778H321Z" glyph-name="Ncaron_K" horiz-adv-x="999" /><glyph d="M155 690 185 731 296 665 407 731 438 690 323 598H268ZM76 550H164L416 161V550H509V319H543L709 550H812L622 286L825 0H714L543 239H509V0H416L164 389V0H76Z" glyph-name="Ncaron_K.sc" horiz-adv-x="835" /><glyph d="M86 716H182L508 182V716H603V0H508L182 535V0H86ZM302 -280 339 -196Q313 -191 298 -174.5Q283 -158 283 -132Q283 -106 300 -85.5Q317 -65 349 -65Q381 -65 397 -85Q413 -105 413 -135Q413 -169 395.5 -210Q378 -251 352 -301Z" glyph-name="Ncommaaccent" horiz-adv-x="690" unicode="&#325;" /><glyph d="M76 550H164L416 161V550H504V0H416L164 389V0H76ZM254 -238 285 -172Q236 -163 236 -118Q236 -97 251 -80.5Q266 -64 294 -64Q321 -64 335.5 -80Q350 -96 350 -122Q350 -149 335.5 -182Q321 -215 298 -254Z" glyph-name="Ncommaaccent.sc" horiz-adv-x="580" /><glyph d="M707 413Q773 413 803 443Q833 473 833 526Q833 579 798 604Q763 629 699 629H611V413ZM507 716H698Q824 716 881 665.5Q938 615 938 530Q938 478 914.5 439.5Q891 401 847 378Q880 369 903.5 351.5Q927 334 942 311.5Q957 289 964 262.5Q971 236 971 208Q971 155 953 115.5Q935 76 902 50.5Q869 25 823 12.5Q777 0 720 0H507L181 535V0H86V716H181L507 182ZM721 87Q791 87 827 119Q863 151 863 208Q863 266 830.5 296Q798 326 722 326H611V87ZM301 -280 338 -196Q312 -191 297 -174.5Q282 -158 282 -132Q282 -106 299 -85.5Q316 -65 348 -65Q380 -65 396 -85Q412 -105 412 -135Q412 -169 394.5 -210Q377 -251 351 -301Z" glyph-name="Ncommaaccent_B" horiz-adv-x="1016" /><glyph d="M585 320Q633 320 656 341.5Q679 363 679 401Q679 439 653 457Q627 475 579 475H512V320ZM416 550H576Q681 550 728 511Q775 472 775 405Q775 365 755.5 335.5Q736 306 703 289Q754 275 778 240Q802 205 802 161Q802 79 745 39.5Q688 0 593 0H416L164 389V0H76V550H164L416 161ZM594 75Q646 75 673.5 97.5Q701 120 701 161Q701 203 676.5 224Q652 245 596 245H512V75ZM253 -238 283 -172Q234 -163 234 -118Q234 -97 249 -80.5Q264 -64 292 -64Q320 -64 334.5 -80Q349 -96 349 -122Q349 -149 334 -182Q319 -215 296 -254Z" glyph-name="Ncommaaccent_B.sc" horiz-adv-x="844" /><glyph d="M707 93Q808 93 867.5 156.5Q927 220 927 358Q927 427 911.5 477.5Q896 528 867 560Q838 592 797.5 607.5Q757 623 707 623H606V93ZM86 716H181L507 182V716H705Q866 716 950.5 624Q1035 532 1035 358Q1035 184 950.5 92Q866 0 705 0H507L181 535V0H86ZM298 -280 335 -196Q309 -191 294 -174.5Q279 -158 279 -132Q279 -106 296 -85.5Q313 -65 345 -65Q377 -65 393 -85Q409 -105 409 -135Q409 -169 391.5 -210Q374 -251 348 -301Z" glyph-name="Ncommaaccent_D" horiz-adv-x="1086" /><glyph d="M582 83Q660 83 705 130Q750 177 750 275Q750 374 704.5 420.5Q659 467 582 467H509V83ZM76 550H164L416 161V550H579Q713 550 782 477.5Q851 405 851 275Q851 146 782 73Q713 0 579 0H416L164 389V0H76ZM250 -238 280 -172Q231 -163 231 -118Q231 -97 246 -80.5Q261 -64 289 -64Q317 -64 331.5 -80Q346 -96 346 -122Q346 -149 331 -182Q316 -215 293 -254Z" glyph-name="Ncommaaccent_D.sc" horiz-adv-x="897" /><glyph d="M86 716H181L507 182V716H895V623H606V409H846V318H606V93H895V0H507L181 535V0H86ZM301 -280 338 -196Q312 -191 297 -174.5Q282 -158 282 -132Q282 -106 299 -85.5Q316 -65 348 -65Q380 -65 396 -85Q412 -105 412 -135Q412 -169 394.5 -210Q377 -251 351 -301Z" glyph-name="Ncommaaccent_E" horiz-adv-x="945" /><glyph d="M76 550H164L416 161V550H740V468H509V319H697V239H509V82H740V0H416L164 389V0H76ZM254 -238 285 -172Q236 -163 236 -118Q236 -97 251 -80.5Q266 -64 294 -64Q321 -64 335.5 -80Q350 -96 350 -122Q350 -149 335.5 -182Q321 -215 298 -254Z" glyph-name="Ncommaaccent_E.sc" horiz-adv-x="789" /><glyph d="M86 716H181L507 182V716H895V623H606V409H846V318H606V93H895V0H507L181 535V0H86ZM563 903H843V819H563ZM301 -280 338 -196Q312 -191 297 -174.5Q282 -158 282 -132Q282 -106 299 -85.5Q316 -65 348 -65Q380 -65 396 -85Q412 -105 412 -135Q412 -169 394.5 -210Q377 -251 351 -301Z" glyph-name="Ncommaaccent_Emacron" horiz-adv-x="945" /><glyph d="M466 699H693V629H466ZM76 550H164L416 161V550H740V468H509V319H697V239H509V82H740V0H416L164 389V0H76ZM254 -238 285 -172Q236 -163 236 -118Q236 -97 251 -80.5Q266 -64 294 -64Q321 -64 335.5 -80Q350 -96 350 -122Q350 -149 335.5 -182Q321 -215 298 -254Z" glyph-name="Ncommaaccent_Emacron.sc" horiz-adv-x="789" /><glyph d="M86 716H181L507 182V716H606V409H652L868 716H978L736 372L993 0H873L652 319H606V0H507L181 535V0H86ZM301 -280 338 -196Q312 -191 297 -174.5Q282 -158 282 -132Q282 -106 299 -85.5Q316 -65 348 -65Q380 -65 396 -85Q412 -105 412 -135Q412 -169 394.5 -210Q377 -251 351 -301Z" glyph-name="Ncommaaccent_K" horiz-adv-x="999" /><glyph d="M76 550H164L416 161V550H509V319H543L709 550H812L622 286L825 0H714L543 239H509V0H416L164 389V0H76ZM254 -238 285 -172Q236 -163 236 -118Q236 -97 251 -80.5Q266 -64 294 -64Q321 -64 335.5 -80Q350 -96 350 -122Q350 -149 335.5 -182Q321 -215 298 -254Z" glyph-name="Ncommaaccent_K.sc" horiz-adv-x="835" /><glyph d="M86 716H181L507 182V716H606V409H652L868 716H978L736 372L993 0H873L652 319H606V0H507L181 535V0H86ZM686 -280 723 -196Q697 -191 682 -174.5Q667 -158 667 -132Q667 -106 684 -85.5Q701 -65 733 -65Q765 -65 781 -85Q797 -105 797 -135Q797 -169 779.5 -210Q762 -251 736 -301ZM301 -280 338 -196Q312 -191 297 -174.5Q282 -158 282 -132Q282 -106 299 -85.5Q316 -65 348 -65Q380 -65 396 -85Q412 -105 412 -135Q412 -169 394.5 -210Q377 -251 351 -301Z" glyph-name="Ncommaaccent_Kcommaaccent" horiz-adv-x="999" /><glyph d="M76 550H164L416 161V550H509V319H543L709 550H812L622 286L825 0H714L543 239H509V0H416L164 389V0H76ZM568 -238 598 -172Q549 -163 549 -118Q549 -97 564 -80.5Q579 -64 607 -64Q635 -64 649 -80Q663 -96 663 -122Q663 -149 648.5 -182Q634 -215 611 -254ZM254 -238 285 -172Q236 -163 236 -118Q236 -97 251 -80.5Q266 -64 294 -64Q321 -64 335.5 -80Q350 -96 350 -122Q350 -149 335.5 -182Q321 -215 298 -254Z" glyph-name="Ncommaaccent_Kcommaaccent.sc" horiz-adv-x="835" /><glyph d="M86 716H181L507 182V716H603L929 182V716H1024V0H929L603 535V0H507L181 535V0H86ZM301 -280 338 -196Q312 -191 297 -174.5Q282 -158 282 -132Q282 -106 299 -85.5Q316 -65 348 -65Q380 -65 396 -85Q412 -105 412 -135Q412 -169 394.5 -210Q377 -251 351 -301Z" glyph-name="Ncommaaccent_N" horiz-adv-x="1110" /><glyph d="M76 550H164L416 161V550H504L755 161V550H844V0H755L504 389V0H416L164 389V0H76ZM254 -238 285 -172Q236 -163 236 -118Q236 -97 251 -80.5Q266 -64 294 -64Q321 -64 335.5 -80Q350 -96 350 -122Q350 -149 335.5 -182Q321 -215 298 -254Z" glyph-name="Ncommaaccent_N.sc" horiz-adv-x="920" /><glyph d="M86 716H181L507 182V716H603L929 182V716H1024V0H929L603 535V0H507L181 535V0H86ZM723 -280 760 -196Q734 -191 719 -174.5Q704 -158 704 -132Q704 -106 721 -85.5Q738 -65 770 -65Q802 -65 818 -85Q834 -105 834 -135Q834 -169 816.5 -210Q799 -251 773 -301ZM301 -280 338 -196Q312 -191 297 -174.5Q282 -158 282 -132Q282 -106 299 -85.5Q316 -65 348 -65Q380 -65 396 -85Q412 -105 412 -135Q412 -169 394.5 -210Q377 -251 351 -301Z" glyph-name="Ncommaaccent_Ncommaaccent" horiz-adv-x="1110" /><glyph d="M76 550H164L416 161V550H504L755 161V550H844V0H755L504 389V0H416L164 389V0H76ZM595 -238 625 -172Q575 -163 575 -118Q575 -97 590.5 -80.5Q606 -64 633 -64Q662 -64 676 -80Q690 -96 690 -122Q690 -149 675.5 -182Q661 -215 639 -254ZM254 -238 285 -172Q236 -163 236 -118Q236 -97 251 -80.5Q266 -64 294 -64Q321 -64 335.5 -80Q350 -96 350 -122Q350 -149 335.5 -182Q321 -215 298 -254Z" glyph-name="Ncommaaccent_Ncommaaccent.sc" horiz-adv-x="920" /><glyph d="M676 355Q710 355 739.5 363.5Q769 372 790.5 390Q812 408 824.5 434.5Q837 461 837 497Q837 560 796 593.5Q755 627 674 627H601V355ZM86 716H181L506 182V716H673Q813 716 878 658Q943 600 943 499Q943 442 923 399Q903 356 867 326.5Q831 297 781.5 282Q732 267 673 267H601V0H506L179 538V0H86ZM298 -280 335 -196Q309 -191 294 -174.5Q279 -158 279 -132Q279 -106 296 -85.5Q313 -65 345 -65Q377 -65 393 -85Q409 -105 409 -135Q409 -169 391.5 -210Q374 -251 348 -301Z" glyph-name="Ncommaaccent_P" horiz-adv-x="975" /><glyph d="M556 276Q607 276 642.5 301.5Q678 327 678 379Q678 424 646.5 448Q615 472 555 472H502V276ZM76 550H164L413 161V550H555Q670 550 722.5 504.5Q775 459 775 381Q775 337 758.5 303Q742 269 712.5 245.5Q683 222 642.5 210Q602 198 555 198H502V0H413L162 394V0H76ZM250 -238 280 -172Q231 -163 231 -118Q231 -97 246 -80.5Q261 -64 289 -64Q317 -64 331.5 -80Q346 -96 346 -122Q346 -149 331 -182Q316 -215 293 -254Z" glyph-name="Ncommaaccent_P.sc" horiz-adv-x="806" /><glyph d="M693 372Q721 372 746 381Q771 390 789.5 408Q808 426 819 452Q830 478 830 512Q830 565 796.5 596Q763 627 695 627H601V372ZM86 716H181L506 182V716H700Q814 716 875 662.5Q936 609 936 517Q936 455 906 400Q876 345 806 310L973 0H859L704 285H601V0H506L179 538V0H86ZM298 -280 335 -196Q309 -191 294 -174.5Q279 -158 279 -132Q279 -106 296 -85.5Q313 -65 345 -65Q377 -65 393 -85Q409 -105 409 -135Q409 -169 391.5 -210Q374 -251 348 -301Z" glyph-name="Ncommaaccent_R" horiz-adv-x="994" /><glyph d="M571 289Q614 289 643.5 315Q673 341 673 389Q673 427 648.5 449.5Q624 472 573 472H502V289ZM76 550H164L413 161V550H576Q672 550 722.5 508Q773 466 773 395Q773 348 750 307.5Q727 267 673 238L799 0H694L578 214H502V0H413L162 394V0H76ZM250 -238 280 -172Q231 -163 231 -118Q231 -97 246 -80.5Q261 -64 289 -64Q317 -64 331.5 -80Q346 -96 346 -122Q346 -149 331 -182Q316 -215 293 -254Z" glyph-name="Ncommaaccent_R.sc" horiz-adv-x="828" /><glyph d="M86 716H182L508 182V716H603V0H508L182 535V0H86ZM181 804Q181 809 184.5 829.5Q188 850 198.5 872.5Q209 895 228.5 913Q248 931 281 931Q308 931 325 920.5Q342 910 358 899Q375 888 386.5 878.5Q398 869 412 869Q423 869 429 876Q435 883 439 892Q443 902 445 915H511Q510 910 507 890Q504 870 494 848.5Q484 827 465 809.5Q446 792 413 792Q388 792 371.5 802.5Q355 813 338 824Q323 834 310.5 844Q298 854 283 854Q271 854 264 846Q257 838 253 829Q249 818 247 804Z" glyph-name="Ntilde" horiz-adv-x="690" unicode="&#209;" /><glyph d="M153 618Q153 626 156.5 642.5Q160 659 169.5 676.5Q179 694 195.5 707Q212 720 238 720Q260 720 273.5 712.5Q287 705 301 697Q315 688 324 681Q333 674 345 674Q353 674 358 679.5Q363 685 366 691Q370 698 371 708H429Q428 700 425 683.5Q422 667 413 650.5Q404 634 388.5 621.5Q373 609 347 609Q326 609 313 616.5Q300 624 286 632Q273 640 262.5 647Q252 654 240 654Q230 654 224.5 648.5Q219 643 216 636Q212 628 211 618ZM76 550H164L416 161V550H504V0H416L164 389V0H76Z" glyph-name="Ntilde.sc" horiz-adv-x="580" /><glyph d="M86 716H181L507 182V716H895V623H606V409H846V318H606V93H895V0H507L181 535V0H86ZM181 804Q181 809 184.5 829.5Q188 850 198.5 872.5Q209 895 228.5 913Q248 931 281 931Q308 931 325 920.5Q342 910 358 899Q375 888 386.5 878.5Q398 869 412 869Q423 869 429 876Q435 883 439 892Q443 902 445 915H511Q510 910 507 890Q504 870 494 848.5Q484 827 465 809.5Q446 792 413 792Q388 792 371.5 802.5Q355 813 338 824Q323 834 310.5 844Q298 854 283 854Q271 854 264 846Q257 838 253 829Q249 818 247 804Z" glyph-name="Ntilde_E" horiz-adv-x="945" /><glyph d="M153 618Q153 626 156.5 642.5Q160 659 169.5 676.5Q179 694 195.5 707Q212 720 238 720Q260 720 273.5 712.5Q287 705 301 697Q315 688 324 681Q333 674 345 674Q353 674 358 679.5Q363 685 366 691Q370 698 371 708H429Q428 700 425 683.5Q422 667 413 650.5Q404 634 388.5 621.5Q373 609 347 609Q326 609 313 616.5Q300 624 286 632Q273 640 262.5 647Q252 654 240 654Q230 654 224.5 648.5Q219 643 216 636Q212 628 211 618ZM76 550H164L416 161V550H740V468H509V319H697V239H509V82H740V0H416L164 389V0H76Z" glyph-name="Ntilde_E.sc" horiz-adv-x="789" /></font>
</defs>
</svg>
